<svg width="957" height="455" viewBox="0 0 957 455" fill="none" xmlns="http://www.w3.org/2000/svg">
<path d="M62.2324 444.956V119.216H0V56.9842C18.9772 56.9842 35.3039 53.9097 48.9802 47.7076C62.6565 41.5586 71.2439 28.3063 74.7955 8.00391H133.688V444.956H62.1794H62.2324Z" fill="white"/>
<path d="M389.933 454.233C361.68 454.233 336.765 448.932 315.138 438.33C293.51 427.728 275.169 412.621 260.168 392.954C245.166 373.341 233.928 349.593 226.401 321.763C218.874 293.934 215.163 262.818 215.163 228.415C215.163 179.859 222.531 138.512 237.321 104.268C252.11 70.0776 272.731 44.1563 299.235 26.5044C325.74 8.85247 356.591 0 391.895 0C428.948 0 460.541 9.17049 486.568 27.4585C512.596 45.7996 532.58 72.0389 546.468 106.23C560.357 140.42 567.301 180.707 567.301 227.037C567.301 261.439 563.325 292.45 555.374 320.067C547.422 347.632 535.867 371.592 520.6 391.894C505.386 412.197 486.727 427.622 464.676 438.224C442.624 448.826 417.657 454.126 389.88 454.126V454.233H389.933ZM391.259 393.961C406.26 393.961 420.042 390.41 432.658 383.36C445.221 376.31 456.141 366.132 465.418 352.933C474.694 339.733 481.851 322.718 486.939 301.938C492.028 281.212 494.573 256.722 494.573 228.468C494.573 193.588 490.385 163.479 482.01 138.088C473.634 112.697 461.919 93.0835 446.918 79.1421C431.916 65.2538 413.151 58.3097 390.622 58.3097C372.069 58.3097 354.894 64.4057 338.992 76.4917C323.089 88.6307 310.42 106.919 300.931 131.462C291.443 155.952 286.672 187.863 286.672 227.143C286.672 254.972 289.216 279.091 294.305 299.659C299.394 320.173 306.55 337.613 315.827 351.979C325.103 366.344 336.129 376.893 348.904 383.731C361.68 390.569 375.833 394.015 391.259 394.015V393.961Z" fill="white"/>
<path d="M779.177 454.233C751.824 454.233 727.758 451.265 707.032 445.275C686.305 439.338 669.29 430.804 656.037 419.778C642.785 408.752 632.66 394.969 625.557 378.378C618.507 361.839 615.168 343.869 615.645 324.415L681.853 307.876C681.853 324.68 684.715 338.568 690.44 349.594C696.165 360.62 703.798 369.578 713.287 376.416C722.776 383.255 733.377 388.131 745.039 390.994C756.754 393.856 768.734 395.287 781.138 395.287C800.115 395.287 817.343 392.637 832.769 387.336C848.194 382.035 860.598 373.766 869.822 362.528C879.099 351.29 883.71 336.607 883.71 318.478C883.71 294.2 876.66 275.541 862.507 262.554C848.353 249.513 828.21 240.502 801.918 235.413C775.678 230.324 743.767 229.105 706.237 231.755V186.062L853.866 71.5097V66.8979H634.728V7.95215H930.676V78.7719L787.022 189.348V193.96C828.528 192.635 861.606 197.512 886.308 208.538C911.01 219.563 928.874 234.671 939.953 253.913C950.978 273.102 956.491 294.836 956.491 319.114C956.491 346.466 949.865 370.426 936.613 390.941C923.361 411.455 903.854 427.146 878.038 437.96C852.223 448.773 819.199 454.18 779.071 454.18H779.177V454.233Z" fill="white"/>
</svg>
