<svg width="2167" height="447" viewBox="0 0 2167 447" fill="none" xmlns="http://www.w3.org/2000/svg">
<path d="M0 436.952V0H164.857C190.461 0 213.308 2.33238 233.398 6.94414C253.488 11.5559 270.822 18.5531 285.347 27.7767C299.924 37.0532 311.056 48.8741 318.795 63.1865C326.534 77.5519 330.404 94.1967 330.404 113.174C330.404 129.978 326.958 144.926 320.12 158.178C313.282 171.431 302.15 182.456 286.672 191.256C271.193 200.108 251.156 206.045 226.454 209.12V217.071C268.384 219.722 298.97 230.217 318.159 248.505C337.348 266.846 346.943 291.23 346.943 321.658C346.943 346.837 341.006 367.775 329.079 384.526C317.152 401.33 298.864 414.211 274.109 423.275C249.406 432.34 218.502 436.846 181.449 436.846H0.0529797V436.952H0ZM69.4946 188.658H145.615C160.193 188.658 173.975 187.757 187.015 186.008C200.002 184.259 212.035 180.919 223.114 176.095C234.14 171.219 242.886 164.645 249.247 156.217C255.662 147.842 258.842 136.816 258.842 123.139C258.842 110.788 255.98 100.187 250.255 91.3872C244.53 82.5878 236.79 75.9617 227.09 71.5089C217.389 67.1092 206.575 63.8756 194.648 61.9143C182.721 59.9529 170.158 58.9458 156.906 58.9458H69.4946V188.711V188.658ZM69.4946 377.37H181.396C193.747 377.37 205.356 376.469 216.17 374.719C226.984 372.97 236.896 369.63 245.961 364.807C255.025 359.93 262.182 353.357 267.483 344.928C272.783 336.553 275.434 326.163 275.434 313.812C275.434 301.461 273.313 291.071 269.126 282.696C264.938 274.321 258.842 267.27 250.944 261.493C242.992 255.768 233.822 251.209 223.485 247.922C213.095 244.636 201.964 242.409 190.037 241.296C178.11 240.183 165.971 239.653 153.62 239.653H69.5476V377.37H69.4946Z" fill="white"/>
<path d="M418.398 436.954V261.494L417.762 92.6613H480.63L476.018 225.077H485.931C489.907 193.325 495.95 167.245 504.113 146.942C512.276 126.64 523.408 111.214 537.561 100.613C551.662 90.0108 568.678 84.71 588.556 84.71C593.857 84.71 599.476 85.293 605.413 86.3532C611.35 87.4664 618.082 89.3218 625.609 91.9722L622.323 167.457C614.371 165.23 606.844 163.375 599.794 161.838C592.744 160.301 586.118 159.505 579.916 159.505C562.264 159.505 547.368 164.912 535.229 175.726C523.09 186.54 513.177 201.541 505.438 220.731C497.699 239.92 492.504 262.555 489.907 288.582V436.901H418.398V436.954Z" fill="white"/>
<path d="M750.074 446.176C732.422 446.176 715.989 442.412 700.775 434.938C685.562 427.464 673.423 416.862 664.358 403.186C655.294 389.509 650.788 371.857 650.788 350.23C650.788 328.602 655.4 310.95 664.676 297.274C673.953 283.598 686.304 272.784 701.73 264.833C717.155 256.881 733.853 251.156 751.717 247.605C769.581 244.053 787.816 240.555 806.316 237.003C824.869 234.777 839.5 232.391 850.366 229.741C861.18 227.09 868.813 223.433 873.213 218.821C877.613 214.209 879.839 207.901 879.839 199.95C879.839 188.5 877.189 178.534 871.888 170.159C866.587 161.784 858.848 155.051 848.723 149.963C838.545 144.874 826.406 142.329 812.306 142.329C799.478 142.329 787.021 144.556 774.882 148.955C762.743 153.355 752.247 160.776 743.448 171.113C734.595 181.503 729.082 195.285 726.909 212.513L662.026 195.974C664.676 176.997 670.401 160.564 679.254 146.676C688.053 132.788 699.132 121.179 712.332 111.902C725.584 102.626 740.903 95.7876 758.343 91.3878C775.783 86.9881 793.541 84.7617 811.617 84.7617C837.644 84.7617 859.59 88.3133 877.507 95.3635C895.371 102.414 909.63 112.22 920.232 124.836C930.834 137.399 938.414 152.295 943.079 169.523C947.691 186.751 950.023 205.94 950.023 227.143V294.677C950.023 310.155 950.129 325.899 950.341 342.014C950.553 358.128 951.083 374.349 951.984 390.676C952.886 407.002 953.946 422.428 955.271 437.005H889.752C889.328 422.004 888.851 406.684 888.427 390.994C888.003 375.356 887.526 359.135 887.102 342.332H879.839C874.538 361.309 866.163 378.643 854.66 394.28C843.157 409.971 828.739 422.534 811.299 432.022C793.859 441.511 773.451 446.282 750.074 446.282V446.176ZM776.525 390.57C786.226 390.57 796.403 388.502 807.005 384.262C817.607 380.074 827.626 374.243 837.114 366.716C846.603 359.241 854.978 349.382 862.293 337.243C869.556 325.104 875.44 311.321 879.839 295.843L879.203 250.838L896.431 250.202C889.805 256.828 880.952 262.023 869.927 265.734C858.901 269.497 846.974 272.36 834.199 274.321C821.371 276.283 808.383 278.403 795.131 280.629C781.879 282.856 769.74 286.248 758.714 290.913C747.688 295.525 738.942 301.621 732.581 309.095C726.167 316.622 722.986 326.959 722.986 340.211C722.986 356.538 727.704 368.995 737.193 377.635C746.681 386.223 759.827 390.57 776.578 390.57H776.525Z" fill="white"/>
<path d="M1031.45 436.952V240.343L1030.81 92.713H1094.37L1088.43 217.178H1098.34C1103.64 184.948 1111.7 159.239 1122.52 140.05C1133.33 120.861 1147.01 106.866 1163.54 98.0139C1180.08 89.2145 1199.17 84.7617 1220.79 84.7617C1240.19 84.7617 1256.79 88.0482 1270.46 94.6743C1284.14 101.3 1295.27 110.365 1303.91 121.815C1312.5 133.318 1319.12 146.199 1323.79 160.564C1328.4 174.93 1331.74 190.037 1333.7 205.887C1335.66 221.79 1336.67 237.215 1336.67 252.217V436.899H1264.53V261.44C1264.53 251.315 1264.1 239.813 1263.2 227.037C1262.3 214.262 1259.65 201.752 1255.25 189.613C1250.85 177.474 1244.12 167.349 1235.05 159.186C1225.99 151.023 1213.32 146.941 1196.99 146.941C1176.69 146.941 1159.78 153.461 1146.37 166.448C1132.9 179.488 1122.41 197.458 1114.93 220.411C1107.41 243.364 1103.22 269.868 1102.37 299.871V436.899H1031.45V436.952Z" fill="white"/>
<path d="M1700.73 292.609V229.052H2166.15V292.609H1700.73Z" fill="white"/>
</svg>
