<svg width="2077" height="472" viewBox="0 0 2077 472" fill="none" xmlns="http://www.w3.org/2000/svg">
<path d="M0 317.685V254.128H465.417V317.685H0Z" fill="white"/>
<path d="M1266.49 471.302C1238.66 471.302 1214.38 464.145 1193.65 449.78C1172.93 435.468 1156.81 414.688 1145.31 387.547C1133.8 360.407 1128.08 327.86 1128.08 289.905C1128.08 251.951 1133.38 221.524 1143.98 194.595C1154.58 167.667 1170.01 147.046 1190.31 132.681C1210.61 118.369 1234.89 111.16 1263.15 111.16C1287 111.16 1306.72 115.665 1322.41 124.73C1338.05 133.794 1350.77 147.153 1360.47 164.804C1370.17 182.456 1377.43 203.183 1382.31 227.037H1392.22C1390 211.611 1387.82 196.504 1385.6 181.714C1383.37 166.925 1381.73 152.931 1380.61 139.678C1379.5 126.426 1378.97 114.764 1378.97 104.586V0H1451.8L1451.17 300.56L1452.49 462.078H1388.3L1392.28 360.142H1381.67C1376.8 383.519 1369.32 403.503 1359.15 420.042C1348.97 436.581 1336.3 449.303 1321.09 458.102C1305.87 466.902 1287.64 471.354 1266.49 471.354V471.302ZM1286.31 410.394C1301.31 410.394 1314.78 406.737 1326.7 399.474C1338.63 392.212 1348.33 382.83 1355.86 371.327C1363.33 359.877 1369.22 347.367 1373.4 333.903C1377.59 320.438 1379.71 307.769 1379.71 295.842V287.891C1379.71 278.614 1378.49 268.808 1376.06 258.418C1373.62 248.028 1370.12 237.692 1365.45 227.302C1360.84 216.912 1354.64 207.423 1346.9 198.836C1339.16 190.249 1330.26 183.304 1320.08 178.004C1309.9 172.703 1298.66 170.052 1286.31 170.052C1268.66 170.052 1253.45 175.353 1240.62 185.955C1227.79 196.557 1218.09 210.763 1211.46 228.68C1204.84 246.597 1201.55 267.642 1201.55 291.92C1201.55 316.198 1204.84 336.5 1211.46 354.152C1218.09 371.804 1227.68 385.586 1240.25 395.552C1252.81 405.465 1268.18 410.447 1286.26 410.447H1286.31V410.394Z" fill="white"/>
<path d="M1617.35 471.304C1599.7 471.304 1583.27 467.54 1568.05 460.066C1552.84 452.592 1540.7 441.99 1531.64 428.314C1522.57 414.637 1518.07 396.986 1518.07 375.358C1518.07 353.73 1522.68 336.078 1531.95 322.402C1541.23 308.726 1553.58 297.912 1569.01 289.961C1584.43 282.009 1601.13 276.284 1619 272.733C1636.86 269.181 1655.09 265.683 1673.59 262.131C1692.15 259.905 1706.78 257.519 1717.64 254.869C1728.46 252.218 1736.09 248.561 1740.49 243.949C1744.89 239.337 1747.12 233.029 1747.12 225.078C1747.12 213.628 1744.47 203.662 1739.17 195.287C1733.87 186.912 1726.13 180.179 1716 175.091C1705.82 170.002 1693.69 167.457 1679.58 167.457C1666.76 167.457 1654.3 169.684 1642.16 174.083C1630.02 178.483 1619.53 185.904 1610.73 196.241C1601.87 206.631 1596.36 220.413 1594.19 237.641L1529.3 221.102C1531.95 202.125 1537.68 185.692 1546.53 171.804C1555.33 157.916 1566.41 146.307 1579.61 137.03C1592.86 127.754 1608.18 120.915 1625.62 116.516C1643.06 112.116 1660.82 109.89 1678.9 109.89C1704.92 109.89 1726.87 113.441 1744.79 120.491C1762.65 127.542 1776.91 137.348 1787.51 149.964C1798.11 162.58 1805.69 177.423 1810.36 194.651C1814.97 211.879 1817.3 231.068 1817.3 252.271V319.805C1817.3 335.283 1817.41 351.027 1817.62 367.141C1817.83 383.256 1818.36 399.477 1819.26 415.804C1820.16 432.13 1821.22 447.556 1822.55 462.133H1757.03C1756.61 447.132 1756.13 431.812 1755.71 416.122C1755.28 400.484 1754.8 384.263 1754.38 367.46H1747.12C1741.82 386.437 1733.44 403.771 1721.94 419.408C1710.44 435.099 1696.02 447.662 1678.58 457.151C1661.14 466.639 1640.73 471.41 1617.35 471.41V471.304ZM1643.86 415.698C1653.56 415.698 1663.74 413.63 1674.28 409.39C1684.89 405.202 1694.9 399.371 1704.39 391.844C1713.88 384.369 1722.26 374.51 1729.57 362.371C1736.83 350.232 1742.72 336.449 1747.12 320.971L1746.48 275.966L1763.71 275.33C1757.08 281.956 1748.23 287.151 1737.21 290.862C1726.18 294.625 1714.25 297.488 1701.48 299.449C1688.65 301.411 1675.66 303.531 1662.41 305.757C1649.16 307.984 1637.02 311.376 1625.99 316.041C1614.97 320.653 1606.22 326.749 1599.86 334.223C1593.45 341.75 1590.26 352.087 1590.26 365.339C1590.26 381.666 1594.98 394.123 1604.52 402.763C1614.01 411.351 1627.16 415.698 1643.91 415.698H1643.86Z" fill="white"/>
<path d="M2013.22 469.29C1995.99 469.29 1980.99 466.852 1968.22 462.028C1955.39 457.151 1944.95 449.783 1936.78 439.87C1928.62 429.958 1922.42 418.137 1918.23 404.46C1914.04 390.784 1911.92 375.306 1911.92 358.131V176.735H1865.59V120.439H1892.1C1906.2 120.015 1916.48 116.782 1922.9 110.845C1929.31 104.908 1932.91 95.7369 1933.82 83.3859L1939.12 41.668H1982.8V117.789H2075.46V178.007H1982.8V354.791C1982.8 372.867 1987.09 385.483 1995.73 392.533C2004.32 399.584 2015.45 403.135 2029.18 403.135C2037.13 403.135 2045.19 402.022 2053.35 399.849C2061.51 397.622 2069.36 393.912 2076.83 388.611V457.469C2064.91 461.869 2053.67 464.943 2043.07 466.746C2032.47 468.495 2022.55 469.396 2013.28 469.396V469.29H2013.22Z" fill="white"/>
</svg>
