<svg width="1487" height="754" viewBox="0 0 1487 754" fill="none" xmlns="http://www.w3.org/2000/svg">
<path d="M14.0918 216.316V0H95.7057C108.381 0 119.691 1.15466 129.637 3.43775C139.583 5.72084 148.164 9.18486 155.355 13.751C162.571 18.3435 168.082 24.1955 171.914 31.281C175.745 38.3927 177.661 46.6328 177.661 56.0276C177.661 64.3464 175.955 71.7468 172.57 78.3074C169.185 84.868 163.674 90.3264 156.011 94.6826C148.348 99.0651 138.428 102.004 126.199 103.526V107.463C146.957 108.775 162.099 113.971 171.599 123.024C181.099 132.104 185.848 144.176 185.848 159.239C185.848 171.704 182.909 182.07 177.005 190.362C171.1 198.681 162.047 205.058 149.791 209.546C137.562 214.033 122.263 216.264 103.92 216.264H14.118V216.316H14.0918ZM48.4956 93.3968H86.1797C93.3964 93.3968 100.219 92.9506 106.675 92.0846C113.104 91.2186 119.061 89.5654 124.546 87.1773C130.005 84.763 134.335 81.509 137.484 77.3364C140.659 73.1901 142.234 67.7317 142.234 60.9611C142.234 54.8466 140.816 49.5982 137.982 45.2419C135.148 40.8857 131.317 37.6054 126.514 35.401C121.712 33.2229 116.359 31.6221 110.454 30.6511C104.549 29.6802 98.33 29.1816 91.7693 29.1816H48.4956V93.423V93.3968ZM48.4956 186.82H103.893C110.008 186.82 115.755 186.374 121.108 185.508C126.462 184.642 131.369 182.988 135.857 180.6C140.344 178.186 143.887 174.932 146.511 170.759C149.135 166.613 150.447 161.47 150.447 155.355C150.447 149.241 149.398 144.097 147.325 139.951C145.251 135.805 142.234 132.314 138.323 129.454C134.387 126.62 129.847 124.363 124.73 122.736C119.586 121.109 114.075 120.007 108.171 119.455C102.266 118.904 96.2568 118.642 90.1423 118.642H48.5218V186.82H48.4956Z" fill="black"/>
<path d="M221.223 216.317V129.455L220.908 45.8729H252.032L249.749 111.426H254.656C256.624 95.7073 259.616 82.796 263.657 72.7451C267.698 62.6943 273.209 55.0577 280.216 49.8093C287.197 44.5608 295.62 41.9365 305.461 41.9365C308.086 41.9365 310.867 42.2252 313.806 42.75C316.746 43.3011 320.078 44.2196 323.805 45.5318L322.178 82.9009C318.241 81.7988 314.515 80.8803 311.025 80.1193C307.534 79.3582 304.254 78.9646 301.184 78.9646C292.445 78.9646 285.071 81.6413 279.061 86.9948C273.052 92.3482 268.145 99.7748 264.313 109.275C260.482 118.774 257.91 129.98 256.624 142.865V216.291H221.223V216.317Z" fill="black"/>
<path d="M385.422 220.884C376.683 220.884 368.548 219.02 361.016 215.32C353.485 211.62 347.475 206.372 342.988 199.601C338.5 192.831 336.27 184.092 336.27 173.385C336.27 162.678 338.553 153.939 343.145 147.169C347.737 140.398 353.852 135.045 361.489 131.108C369.125 127.172 377.391 124.338 386.235 122.58C395.079 120.821 404.106 119.089 413.265 117.331C422.45 116.229 429.693 115.048 435.072 113.736C440.426 112.424 444.205 110.613 446.383 108.33C448.561 106.047 449.663 102.924 449.663 98.9877C449.663 93.3193 448.351 88.3857 445.727 84.2394C443.102 80.0931 439.271 76.7603 434.259 74.241C429.22 71.7218 423.211 70.4622 416.23 70.4622C409.88 70.4622 403.713 71.5643 397.703 73.7425C391.694 75.9206 386.498 79.5945 382.141 84.7118C377.759 89.8553 375.03 96.6783 373.954 105.207L341.833 97.0195C343.145 87.6247 345.979 79.4895 350.362 72.614C354.718 65.7385 360.203 59.9914 366.737 55.399C373.298 50.8066 380.882 47.4213 389.515 45.2432C398.149 43.0651 406.94 41.9629 415.889 41.9629C428.774 41.9629 439.638 43.7211 448.508 47.2114C457.352 50.7016 464.411 55.5565 469.66 61.8022C474.908 68.0216 478.661 75.3957 480.97 83.9245C483.253 92.4533 484.408 101.953 484.408 112.45V145.883C484.408 153.546 484.461 161.34 484.565 169.317C484.67 177.295 484.933 185.325 485.379 193.408C485.825 201.491 486.35 209.127 487.006 216.344H454.57C454.36 208.917 454.124 201.333 453.914 193.565C453.704 185.824 453.468 177.794 453.258 169.475H449.663C447.039 178.87 442.892 187.451 437.198 195.192C431.503 202.96 424.365 209.18 415.732 213.877C407.098 218.574 396.995 220.936 385.422 220.936V220.884ZM398.517 193.355C403.319 193.355 408.357 192.332 413.606 190.233C418.854 188.159 423.814 185.273 428.512 181.546C433.209 177.846 437.355 172.965 440.977 166.956C444.572 160.946 447.485 154.123 449.663 146.46L449.348 124.18L457.877 123.865C454.597 127.146 450.214 129.718 444.756 131.555C439.297 133.418 433.393 134.835 427.068 135.806C420.718 136.777 414.288 137.826 407.728 138.929C401.167 140.031 395.158 141.71 389.699 144.02C384.241 146.303 379.911 149.321 376.762 153.021C373.586 156.747 372.012 161.864 372.012 168.425C372.012 176.508 374.347 182.675 379.045 186.952C383.742 191.204 390.25 193.355 398.543 193.355H398.517Z" fill="black"/>
<path d="M524.717 216.318V118.984L524.402 45.8993H555.867L552.928 107.516H557.835C560.459 91.5611 564.448 78.8335 569.802 69.3337C575.155 59.834 581.926 52.906 590.113 48.5235C598.301 44.1673 607.748 41.9629 618.455 41.9629C628.06 41.9629 636.274 43.5899 643.044 46.8702C649.815 50.1505 655.326 54.638 659.603 60.3063C663.855 66.0009 667.135 72.3778 669.444 79.4895C671.727 86.6012 673.381 94.0803 674.352 101.927C675.323 109.8 675.821 117.436 675.821 124.863V216.291H640.105V129.429C640.105 124.417 639.895 118.722 639.449 112.398C639.003 106.073 637.691 99.8799 635.513 93.8704C633.335 87.8609 630.002 82.8486 625.514 78.8072C621.027 74.7659 614.755 72.7452 606.672 72.7452C596.622 72.7452 588.25 75.973 581.611 82.4024C574.945 88.8581 569.749 97.7543 566.049 109.117C562.323 120.48 560.249 133.601 559.83 148.455V216.291H524.717V216.318Z" fill="black"/>
<path d="M856.054 144.858V113.394H1086.46V144.858H856.054Z" fill="black"/>
<path d="M458.167 411.063V379.598H688.575V411.063H458.167Z" fill="black"/>
<path d="M1085.15 487.111C1071.37 487.111 1059.35 483.569 1049.09 476.457C1038.83 469.372 1030.85 459.084 1025.16 445.648C1019.47 432.212 1016.63 416.099 1016.63 397.31C1016.63 378.52 1019.26 363.457 1024.5 350.126C1029.75 336.795 1037.39 326.587 1047.44 319.475C1057.49 312.389 1069.51 308.82 1083.5 308.82C1095.31 308.82 1105.07 311.051 1112.84 315.538C1120.58 320.026 1126.88 326.639 1131.68 335.378C1136.48 344.116 1140.08 354.377 1142.49 366.186H1147.4C1146.29 358.55 1145.22 351.071 1144.12 343.749C1143.01 336.427 1142.2 329.499 1141.65 322.939C1141.1 316.378 1140.84 310.605 1140.84 305.566V253.79H1176.89L1176.58 402.585L1177.23 482.545H1145.45L1147.42 432.081H1142.17C1139.76 443.654 1136.06 453.547 1131.02 461.735C1125.98 469.923 1119.71 476.221 1112.18 480.577C1104.65 484.933 1095.62 487.138 1085.15 487.138V487.111ZM1094.96 456.959C1102.39 456.959 1109.06 455.148 1114.96 451.553C1120.87 447.958 1125.67 443.313 1129.39 437.618C1133.09 431.95 1136.01 425.757 1138.08 419.091C1140.15 412.425 1141.2 406.154 1141.2 400.249V396.313C1141.2 391.72 1140.6 386.865 1139.39 381.722C1138.19 376.578 1136.45 371.461 1134.14 366.318C1131.86 361.174 1128.79 356.477 1124.96 352.225C1121.13 347.974 1116.72 344.536 1111.68 341.912C1106.64 339.288 1101.08 337.976 1094.96 337.976C1086.23 337.976 1078.69 340.6 1072.34 345.848C1065.99 351.097 1061.19 358.13 1057.91 367C1054.63 375.87 1053 386.288 1053 398.307C1053 410.326 1054.63 420.377 1057.91 429.116C1061.19 437.854 1065.94 444.677 1072.16 449.611C1078.38 454.518 1085.99 456.985 1094.94 456.985H1094.96V456.959Z" fill="black"/>
<path d="M1258.85 487.113C1250.11 487.113 1241.97 485.25 1234.44 481.55C1226.91 477.85 1220.9 472.601 1216.41 465.831C1211.93 459.06 1209.7 450.321 1209.7 439.614C1209.7 428.908 1211.98 420.169 1216.57 413.398C1221.16 406.628 1227.28 401.274 1234.92 397.338C1242.55 393.402 1250.82 390.567 1259.66 388.809C1268.51 387.051 1277.53 385.319 1286.69 383.561C1295.88 382.458 1303.12 381.278 1308.5 379.965C1313.85 378.653 1317.63 376.843 1319.81 374.559C1321.99 372.276 1323.09 369.154 1323.09 365.217C1323.09 359.549 1321.78 354.615 1319.15 350.469C1316.53 346.323 1312.7 342.99 1307.69 340.471C1302.65 337.951 1296.64 336.692 1289.66 336.692C1283.31 336.692 1277.14 337.794 1271.13 339.972C1265.12 342.15 1259.92 345.824 1255.57 350.941C1251.19 356.085 1248.46 362.908 1247.38 371.437L1215.26 363.249C1216.57 353.854 1219.41 345.719 1223.79 338.844C1228.14 331.968 1233.63 326.221 1240.16 321.629C1246.72 317.036 1254.31 313.651 1262.94 311.473C1271.58 309.295 1280.37 308.192 1289.32 308.192C1302.2 308.192 1313.07 309.951 1321.94 313.441C1330.78 316.931 1337.84 321.786 1343.09 328.032C1348.34 334.277 1352.09 341.625 1354.4 350.154C1356.68 358.683 1357.83 368.183 1357.83 378.68V412.112C1357.83 419.775 1357.89 427.569 1357.99 435.547C1358.1 443.525 1358.36 451.555 1358.81 459.637C1359.25 467.72 1359.78 475.357 1360.43 482.573H1328C1327.79 475.147 1327.55 467.563 1327.34 459.795C1327.13 452.053 1326.89 444.023 1326.69 435.704H1323.09C1320.47 445.099 1316.32 453.68 1310.62 461.422C1304.93 469.19 1297.79 475.409 1289.16 480.106C1280.52 484.804 1270.42 487.166 1258.85 487.166V487.113ZM1271.97 459.585C1276.77 459.585 1281.81 458.561 1287.03 456.462C1292.28 454.389 1297.24 451.502 1301.94 447.776C1306.64 444.076 1310.78 439.195 1314.4 433.185C1318 427.176 1320.91 420.352 1323.09 412.69L1322.77 390.41L1331.3 390.095C1328.02 393.375 1323.64 395.947 1318.18 397.784C1312.72 399.647 1306.82 401.064 1300.5 402.035C1294.14 403.006 1287.72 404.056 1281.15 405.158C1274.59 406.26 1268.58 407.94 1263.13 410.249C1257.67 412.532 1253.34 415.55 1250.19 419.25C1247.01 422.977 1245.44 428.094 1245.44 434.655C1245.44 442.737 1247.77 448.904 1252.5 453.182C1257.2 457.433 1263.7 459.585 1272 459.585H1271.97Z" fill="black"/>
<path d="M1454.83 486.116C1446.3 486.116 1438.87 484.908 1432.55 482.52C1426.2 480.106 1421.03 476.458 1416.99 471.551C1412.94 466.644 1409.87 460.792 1407.8 454.021C1405.73 447.251 1404.68 439.588 1404.68 431.085V341.284H1381.74V313.414H1394.86C1401.84 313.204 1406.93 311.604 1410.11 308.664C1413.29 305.725 1415.07 301.185 1415.52 295.071L1418.14 274.418H1439.76V312.102H1485.64V341.913H1439.76V429.432C1439.76 438.381 1441.89 444.626 1446.17 448.117C1450.42 451.607 1455.93 453.365 1462.73 453.365C1466.66 453.365 1470.65 452.814 1474.69 451.738C1478.73 450.636 1482.62 448.799 1486.32 446.175V480.264C1480.41 482.442 1474.85 483.964 1469.6 484.856C1464.35 485.722 1459.45 486.168 1454.85 486.168V486.116H1454.83Z" fill="black"/>
<path d="M30.8086 748.723V587.463H0V556.654C9.39479 556.654 17.4775 555.132 24.248 552.062C31.0186 549.018 35.2698 542.457 37.0281 532.406H66.1834V748.723H30.7824H30.8086Z" fill="black"/>
<path d="M193.039 753.315C179.052 753.315 166.718 750.691 156.011 745.442C145.304 740.194 136.224 732.715 128.797 722.979C121.371 713.269 115.807 701.513 112.081 687.735C108.355 673.958 106.518 658.554 106.518 641.522C106.518 617.484 110.165 597.015 117.487 580.063C124.809 563.136 135.017 550.304 148.138 541.565C161.259 532.826 176.532 528.444 194.01 528.444C212.353 528.444 227.994 532.984 240.879 542.037C253.764 551.117 263.657 564.107 270.533 581.034C277.408 597.96 280.846 617.904 280.846 640.84C280.846 657.871 278.878 673.223 274.941 686.896C271.005 700.542 265.284 712.403 257.726 722.454C250.195 732.505 240.957 740.141 230.041 745.39C219.124 750.638 206.764 753.263 193.013 753.263V753.315H193.039ZM193.695 723.477C201.121 723.477 207.945 721.719 214.19 718.229C220.41 714.739 225.816 709.7 230.408 703.166C235 696.631 238.543 688.208 241.062 677.921C243.582 667.66 244.841 655.536 244.841 641.549C244.841 624.281 242.768 609.375 238.622 596.805C234.476 584.235 228.676 574.526 221.249 567.624C213.823 560.748 204.533 557.311 193.38 557.311C184.195 557.311 175.693 560.328 167.82 566.312C159.947 572.321 153.675 581.375 148.978 593.525C144.28 605.649 141.919 621.447 141.919 640.893C141.919 654.67 143.178 666.61 145.697 676.792C148.217 686.948 151.759 695.582 156.352 702.694C160.944 709.805 166.403 715.027 172.727 718.413C179.052 721.798 186.058 723.504 193.695 723.504V723.477Z" fill="black"/>
<path d="M385.737 753.315C372.196 753.315 360.282 751.846 350.021 748.88C339.76 745.941 331.336 741.716 324.776 736.258C318.215 730.799 313.203 723.976 309.686 715.762C306.196 707.575 304.543 698.679 304.779 689.048L337.556 680.86C337.556 689.179 338.973 696.054 341.807 701.513C344.641 706.971 348.42 711.406 353.118 714.791C357.815 718.177 363.063 720.591 368.837 722.008C374.636 723.425 380.567 724.134 386.708 724.134C396.103 724.134 404.631 722.822 412.268 720.197C419.904 717.573 426.045 713.479 430.611 707.916C435.204 702.352 437.487 695.083 437.487 686.108C437.487 674.089 433.997 664.852 426.99 658.423C419.983 651.967 410.011 647.506 396.995 644.987C384.005 642.467 368.207 641.864 349.627 643.176V620.555L422.712 563.845V561.562H314.226V532.38H460.738V567.44L389.621 622.182V624.465C410.169 623.809 426.544 626.223 438.773 631.682C451.002 637.14 459.845 644.619 465.33 654.145C470.789 663.645 473.518 674.404 473.518 686.423C473.518 699.964 470.238 711.826 463.677 721.982C457.116 732.138 447.459 739.905 434.679 745.259C421.899 750.612 405.55 753.289 385.684 753.289H385.737V753.315Z" fill="black"/>
<path d="M1031.42 34.49C1031.42 34.03 1031.46 33.5 1031.54 32.9C1031.62 32.3 1031.76 31.64 1031.96 30.92C1032.18 30.18 1032.48 29.38 1032.86 28.52L1035.98 29.63C1035.76 30.23 1035.57 30.78 1035.41 31.28C1035.25 31.78 1035.13 32.25 1035.05 32.69C1034.99 33.13 1034.96 33.55 1034.96 33.95C1034.96 34.69 1035.12 35.33 1035.44 35.87C1035.76 36.43 1036.21 36.89 1036.79 37.25C1037.39 37.63 1038.1 37.92 1038.92 38.12C1039.76 38.32 1040.69 38.42 1041.71 38.42C1042.83 38.42 1043.85 38.35 1044.77 38.21C1045.69 38.07 1046.48 37.86 1047.14 37.58C1047.82 37.32 1048.34 37 1048.7 36.62C1049.08 36.26 1049.27 35.86 1049.27 35.42C1049.27 35.2 1049.19 35 1049.03 34.82C1048.87 34.64 1048.62 34.46 1048.28 34.28C1047.96 34.08 1047.55 33.89 1047.05 33.71C1046.55 33.51 1045.96 33.29 1045.28 33.05L1046.09 29.48C1047.03 29.86 1047.89 30.19 1048.67 30.47C1049.45 30.73 1050.17 30.95 1050.83 31.13C1051.49 31.29 1052.09 31.41 1052.63 31.49C1053.19 31.57 1053.7 31.61 1054.16 31.61C1054.78 31.61 1055.23 31.78 1055.51 32.12C1055.79 32.44 1055.93 32.84 1055.93 33.32C1055.93 33.82 1055.74 34.25 1055.36 34.61C1055 34.97 1054.5 35.15 1053.86 35.15C1053.72 35.15 1053.58 35.15 1053.44 35.15C1053.3 35.15 1053.16 35.15 1053.02 35.15C1052.88 35.15 1052.73 35.15 1052.57 35.15C1052.61 35.35 1052.63 35.51 1052.63 35.63C1052.65 35.77 1052.66 35.92 1052.66 36.08C1052.66 36.76 1052.42 37.44 1051.94 38.12C1051.48 38.82 1050.77 39.46 1049.81 40.04C1048.85 40.62 1047.66 41.08 1046.24 41.42C1044.82 41.76 1043.15 41.93 1041.23 41.93C1039.29 41.93 1037.58 41.66 1036.1 41.12C1034.62 40.6 1033.47 39.79 1032.65 38.69C1031.83 37.59 1031.42 36.19 1031.42 34.49ZM1043.87 48.41C1043.35 48.41 1042.91 48.22 1042.55 47.84C1042.19 47.48 1042.01 47.05 1042.01 46.55C1042.01 46.05 1042.19 45.61 1042.55 45.23C1042.91 44.85 1043.35 44.66 1043.87 44.66C1044.37 44.66 1044.8 44.85 1045.16 45.23C1045.52 45.61 1045.7 46.05 1045.7 46.55C1045.7 47.05 1045.52 47.48 1045.16 47.84C1044.8 48.22 1044.37 48.41 1043.87 48.41ZM1039.1 48.41C1038.58 48.41 1038.13 48.22 1037.75 47.84C1037.39 47.48 1037.21 47.05 1037.21 46.55C1037.21 46.05 1037.39 45.61 1037.75 45.23C1038.13 44.85 1038.58 44.66 1039.1 44.66C1039.6 44.66 1040.03 44.85 1040.39 45.23C1040.75 45.61 1040.93 46.05 1040.93 46.55C1040.93 47.05 1040.75 47.48 1040.39 47.84C1040.03 48.22 1039.6 48.41 1039.1 48.41ZM1053.87 35.15L1054.17 31.61C1054.97 31.61 1055.6 31.54 1056.06 31.4C1056.52 31.24 1056.88 30.95 1057.14 30.53C1057.4 30.09 1057.62 29.46 1057.8 28.64C1058 27.8 1058.21 26.7 1058.43 25.34L1061.76 25.91C1061.7 26.23 1061.63 26.6 1061.55 27.02C1061.47 27.44 1061.4 27.86 1061.34 28.28C1061.28 28.7 1061.25 29.08 1061.25 29.42C1061.25 29.86 1061.35 30.25 1061.55 30.59C1061.75 30.91 1062.13 31.16 1062.69 31.34C1063.27 31.52 1064.12 31.61 1065.24 31.61C1065.86 31.61 1066.3 31.78 1066.56 32.12C1066.84 32.44 1066.98 32.84 1066.98 33.32C1066.98 33.82 1066.8 34.25 1066.44 34.61C1066.08 34.97 1065.58 35.15 1064.94 35.15C1063.58 35.15 1062.49 35.03 1061.67 34.79C1060.87 34.53 1060.27 34.12 1059.87 33.56C1059.49 33 1059.24 32.25 1059.12 31.31L1060.35 31.34C1060.01 32.18 1059.62 32.86 1059.18 33.38C1058.74 33.88 1058.25 34.26 1057.71 34.52C1057.17 34.76 1056.58 34.92 1055.94 35C1055.3 35.1 1054.61 35.15 1053.87 35.15ZM1059.45 22.28C1058.91 22.28 1058.45 22.1 1058.07 21.74C1057.69 21.36 1057.5 20.9 1057.5 20.36C1057.5 19.82 1057.69 19.36 1058.07 18.98C1058.45 18.58 1058.91 18.38 1059.45 18.38C1059.97 18.38 1060.42 18.58 1060.8 18.98C1061.18 19.36 1061.37 19.82 1061.37 20.36C1061.37 20.9 1061.18 21.36 1060.8 21.74C1060.42 22.1 1059.97 22.28 1059.45 22.28ZM1064.95 35.15L1065.25 31.61C1066.05 31.61 1066.68 31.54 1067.14 31.4C1067.6 31.24 1067.96 30.95 1068.22 30.53C1068.48 30.09 1068.7 29.46 1068.88 28.64C1069.08 27.8 1069.29 26.7 1069.51 25.34L1072.84 25.91C1072.78 26.23 1072.71 26.6 1072.63 27.02C1072.55 27.44 1072.48 27.86 1072.42 28.28C1072.36 28.7 1072.33 29.08 1072.33 29.42C1072.33 29.86 1072.43 30.25 1072.63 30.59C1072.83 30.91 1073.21 31.16 1073.77 31.34C1074.35 31.52 1075.2 31.61 1076.32 31.61C1076.94 31.61 1077.38 31.78 1077.64 32.12C1077.92 32.44 1078.06 32.84 1078.06 33.32C1078.06 33.82 1077.88 34.25 1077.52 34.61C1077.16 34.97 1076.66 35.15 1076.02 35.15C1074.66 35.15 1073.57 35.03 1072.75 34.79C1071.95 34.53 1071.35 34.12 1070.95 33.56C1070.57 33 1070.32 32.25 1070.2 31.31L1071.43 31.34C1071.09 32.18 1070.7 32.86 1070.26 33.38C1069.82 33.88 1069.33 34.26 1068.79 34.52C1068.25 34.76 1067.66 34.92 1067.02 35C1066.38 35.1 1065.69 35.15 1064.95 35.15ZM1070.2 41.54C1069.68 41.54 1069.24 41.36 1068.88 41C1068.52 40.64 1068.34 40.21 1068.34 39.71C1068.34 39.19 1068.52 38.74 1068.88 38.36C1069.24 37.98 1069.68 37.79 1070.2 37.79C1070.72 37.79 1071.16 37.98 1071.52 38.36C1071.9 38.74 1072.09 39.19 1072.09 39.71C1072.09 40.21 1071.9 40.64 1071.52 41C1071.16 41.36 1070.72 41.54 1070.2 41.54ZM1076.02 35.15L1076.32 31.61C1077.52 31.61 1078.44 31.56 1079.08 31.46C1079.72 31.34 1080.17 31.11 1080.43 30.77C1080.71 30.41 1080.85 29.89 1080.85 29.21C1080.85 28.67 1080.77 28.03 1080.61 27.29C1080.45 26.55 1080.25 25.77 1080.01 24.95C1079.77 24.13 1079.51 23.36 1079.23 22.64L1082.74 21.59C1083 22.25 1083.24 23.02 1083.46 23.9C1083.7 24.76 1083.9 25.64 1084.06 26.54C1084.22 27.42 1084.3 28.25 1084.3 29.03C1084.3 30.25 1084.11 31.26 1083.73 32.06C1083.37 32.86 1082.83 33.49 1082.11 33.95C1081.41 34.39 1080.54 34.7 1079.5 34.88C1078.48 35.06 1077.32 35.15 1076.02 35.15ZM1083.55 18.89C1083.03 18.89 1082.59 18.71 1082.23 18.35C1081.87 17.99 1081.69 17.55 1081.69 17.03C1081.69 16.53 1081.87 16.1 1082.23 15.74C1082.59 15.36 1083.03 15.17 1083.55 15.17C1084.05 15.17 1084.48 15.36 1084.84 15.74C1085.2 16.1 1085.38 16.53 1085.38 17.03C1085.38 17.55 1085.2 17.99 1084.84 18.35C1084.48 18.71 1084.05 18.89 1083.55 18.89ZM1078.78 18.86C1078.26 18.86 1077.81 18.68 1077.43 18.32C1077.07 17.96 1076.89 17.53 1076.89 17.03C1076.89 16.53 1077.07 16.09 1077.43 15.71C1077.79 15.33 1078.24 15.14 1078.78 15.14C1079.28 15.14 1079.7 15.33 1080.04 15.71C1080.4 16.09 1080.58 16.53 1080.58 17.03C1080.58 17.53 1080.4 17.96 1080.04 18.32C1079.68 18.68 1079.26 18.86 1078.78 18.86ZM1094.75 41.93L1093.49 38.75C1094.69 38.35 1095.75 37.88 1096.67 37.34C1097.59 36.82 1098.36 36.24 1098.98 35.6C1099.62 34.98 1100.09 34.32 1100.39 33.62C1100.71 32.92 1100.87 32.19 1100.87 31.43C1100.87 30.55 1100.67 29.61 1100.27 28.61C1099.89 27.59 1099.43 26.59 1098.89 25.61L1102.16 24.02C1102.52 24.66 1102.84 25.33 1103.12 26.03C1103.4 26.73 1103.64 27.37 1103.84 27.95C1104.04 28.51 1104.19 28.95 1104.29 29.27C1104.57 30.19 1104.94 30.81 1105.4 31.13C1105.88 31.45 1106.61 31.61 1107.59 31.61C1108.23 31.61 1108.68 31.78 1108.94 32.12C1109.22 32.44 1109.36 32.84 1109.36 33.32C1109.36 33.82 1109.18 34.25 1108.82 34.61C1108.46 34.97 1107.95 35.15 1107.29 35.15C1106.45 35.15 1105.73 35.02 1105.13 34.76C1104.55 34.48 1104.09 34.1 1103.75 33.62C1103.41 33.14 1103.19 32.61 1103.09 32.03L1104.14 32.6C1104.06 33.76 1103.73 34.84 1103.15 35.84C1102.59 36.86 1101.85 37.77 1100.93 38.57C1100.03 39.37 1099.04 40.05 1097.96 40.61C1096.88 41.19 1095.81 41.63 1094.75 41.93ZM1107.31 35.15L1107.61 31.61H1116.04C1116.68 31.61 1117.14 31.78 1117.42 32.12C1117.7 32.44 1117.84 32.84 1117.84 33.32C1117.84 33.82 1117.65 34.25 1117.27 34.61C1116.91 34.97 1116.4 35.15 1115.74 35.15H1107.31ZM1115.78 35.15L1116.08 31.61H1124.51C1125.15 31.61 1125.61 31.78 1125.89 32.12C1126.17 32.44 1126.31 32.84 1126.31 33.32C1126.31 33.82 1126.12 34.25 1125.74 34.61C1125.38 34.97 1124.87 35.15 1124.21 35.15H1115.78ZM1124.24 35.15L1124.54 31.61H1132.97C1133.61 31.61 1134.07 31.78 1134.35 32.12C1134.63 32.44 1134.77 32.84 1134.77 33.32C1134.77 33.82 1134.58 34.25 1134.2 34.61C1133.84 34.97 1133.33 35.15 1132.67 35.15H1124.24ZM1132.71 35.15L1133.01 31.61H1136.49C1137.55 31.61 1138.35 31.55 1138.89 31.43C1139.43 31.31 1139.79 31.14 1139.97 30.92C1140.15 30.7 1140.24 30.46 1140.24 30.2C1140.24 29.78 1140.07 29.32 1139.73 28.82C1139.41 28.3 1138.99 27.76 1138.47 27.2C1137.95 26.64 1137.4 26.09 1136.82 25.55C1136.26 24.99 1135.72 24.47 1135.2 23.99C1134.68 23.51 1134.25 23.09 1133.91 22.73C1133.59 22.37 1133.43 22.11 1133.43 21.95C1133.43 21.49 1133.46 21.11 1133.52 20.81C1133.58 20.49 1133.66 20.23 1133.76 20.03C1133.86 19.81 1133.98 19.63 1134.12 19.49C1134.48 19.11 1135 18.7 1135.68 18.26C1136.38 17.82 1137.19 17.36 1138.11 16.88C1139.05 16.38 1140.07 15.86 1141.17 15.32C1142.29 14.78 1143.46 14.23 1144.68 13.67L1146.12 16.79C1144.94 17.33 1143.84 17.84 1142.82 18.32C1141.82 18.8 1140.9 19.26 1140.06 19.7C1139.22 20.12 1138.45 20.53 1137.75 20.93C1137.07 21.33 1136.45 21.72 1135.89 22.1L1136.16 20.33C1137.04 21.07 1137.84 21.78 1138.56 22.46C1139.3 23.14 1139.99 23.83 1140.63 24.53C1141.29 25.21 1141.9 25.93 1142.46 26.69C1143.02 27.43 1143.56 28.25 1144.08 29.15C1144.52 29.87 1144.99 30.41 1145.49 30.77C1145.99 31.11 1146.48 31.34 1146.96 31.46C1147.46 31.56 1147.88 31.61 1148.22 31.61C1148.86 31.61 1149.32 31.78 1149.6 32.12C1149.88 32.44 1150.02 32.84 1150.02 33.32C1150.02 33.82 1149.83 34.25 1149.45 34.61C1149.09 34.97 1148.58 35.15 1147.92 35.15C1147.32 35.15 1146.64 35.05 1145.88 34.85C1145.14 34.63 1144.43 34.27 1143.75 33.77C1143.07 33.25 1142.54 32.52 1142.16 31.58L1143.51 31.79C1143.21 32.39 1142.86 32.91 1142.46 33.35C1142.06 33.77 1141.57 34.12 1140.99 34.4C1140.41 34.66 1139.73 34.85 1138.95 34.97C1138.19 35.09 1137.3 35.15 1136.28 35.15H1132.71ZM1147.94 35.15L1148.24 31.61C1148.92 31.63 1149.56 31.63 1150.16 31.61C1150.78 31.57 1151.35 31.52 1151.87 31.46C1152.39 31.4 1152.87 31.33 1153.31 31.25C1153.75 31.15 1154.13 31.06 1154.45 30.98C1155.13 30.76 1155.73 30.49 1156.25 30.17C1156.77 29.83 1157.18 29.44 1157.48 29C1157.8 28.54 1157.96 28.04 1157.96 27.5C1157.96 27.1 1157.87 26.7 1157.69 26.3C1157.51 25.88 1157.26 25.53 1156.94 25.25C1156.62 24.97 1156.25 24.83 1155.83 24.83C1155.43 24.83 1155.06 24.96 1154.72 25.22C1154.38 25.48 1154.1 25.82 1153.88 26.24C1153.68 26.66 1153.58 27.12 1153.58 27.62C1153.58 28.12 1153.7 28.58 1153.94 29C1154.2 29.42 1154.53 29.81 1154.93 30.17C1155.33 30.51 1155.78 30.82 1156.28 31.1L1152.71 32.36C1152.33 32 1151.93 31.59 1151.51 31.13C1151.11 30.67 1150.77 30.13 1150.49 29.51C1150.21 28.89 1150.07 28.19 1150.07 27.41C1150.07 26.53 1150.23 25.73 1150.55 25.01C1150.89 24.27 1151.34 23.63 1151.9 23.09C1152.46 22.55 1153.09 22.13 1153.79 21.83C1154.49 21.53 1155.2 21.38 1155.92 21.38C1157.04 21.38 1158.01 21.66 1158.83 22.22C1159.67 22.78 1160.32 23.5 1160.78 24.38C1161.24 25.24 1161.47 26.17 1161.47 27.17C1161.47 28.11 1161.29 28.95 1160.93 29.69C1160.59 30.43 1160.12 31.09 1159.52 31.67C1158.94 32.23 1158.28 32.72 1157.54 33.14C1156.82 33.56 1156.08 33.9 1155.32 34.16C1154.92 34.32 1154.45 34.46 1153.91 34.58C1153.37 34.7 1152.78 34.81 1152.14 34.91C1151.5 34.99 1150.83 35.05 1150.13 35.09C1149.43 35.13 1148.7 35.15 1147.94 35.15ZM1163.42 35.15C1162.32 35.15 1161.21 35.09 1160.09 34.97C1158.99 34.85 1157.96 34.68 1157 34.46C1156.06 34.22 1155.26 33.94 1154.6 33.62L1156.67 31.04C1157.27 31.18 1157.97 31.29 1158.77 31.37C1159.59 31.45 1160.43 31.51 1161.29 31.55C1162.17 31.59 1162.98 31.61 1163.72 31.61C1164.34 31.61 1164.79 31.78 1165.07 32.12C1165.35 32.44 1165.49 32.84 1165.49 33.32C1165.49 33.82 1165.3 34.25 1164.92 34.61C1164.56 34.97 1164.06 35.15 1163.42 35.15ZM1155.83 18.5C1155.29 18.5 1154.83 18.32 1154.45 17.96C1154.07 17.58 1153.88 17.12 1153.88 16.58C1153.88 16.04 1154.07 15.58 1154.45 15.2C1154.83 14.8 1155.29 14.6 1155.83 14.6C1156.35 14.6 1156.8 14.8 1157.18 15.2C1157.56 15.58 1157.75 16.04 1157.75 16.58C1157.75 17.12 1157.56 17.58 1157.18 17.96C1156.8 18.32 1156.35 18.5 1155.83 18.5ZM1163.41 35.15L1163.71 31.61C1164.53 31.61 1165.21 31.54 1165.75 31.4C1166.29 31.24 1166.72 30.95 1167.04 30.53C1167.38 30.09 1167.66 29.46 1167.88 28.64C1168.12 27.8 1168.35 26.7 1168.57 25.34L1171.9 25.91C1171.84 26.23 1171.77 26.6 1171.69 27.02C1171.61 27.44 1171.54 27.86 1171.48 28.28C1171.42 28.7 1171.39 29.08 1171.39 29.42C1171.39 29.76 1171.44 30.07 1171.54 30.35C1171.64 30.61 1171.83 30.83 1172.11 31.01C1172.41 31.19 1172.84 31.34 1173.4 31.46C1173.96 31.56 1174.68 31.61 1175.56 31.61C1176.2 31.61 1176.65 31.78 1176.91 32.12C1177.19 32.44 1177.33 32.84 1177.33 33.32C1177.33 33.82 1177.15 34.25 1176.79 34.61C1176.43 34.97 1175.92 35.15 1175.26 35.15C1174.24 35.15 1173.37 35.08 1172.65 34.94C1171.93 34.8 1171.33 34.58 1170.85 34.28C1170.39 33.98 1170.03 33.59 1169.77 33.11C1169.51 32.61 1169.34 32.01 1169.26 31.31L1170.49 31.34C1170.15 32.18 1169.73 32.86 1169.23 33.38C1168.75 33.88 1168.21 34.26 1167.61 34.52C1167.01 34.76 1166.35 34.92 1165.63 35C1164.93 35.1 1164.19 35.15 1163.41 35.15ZM1172.44 22.49C1171.92 22.49 1171.47 22.31 1171.09 21.95C1170.73 21.57 1170.55 21.13 1170.55 20.63C1170.55 20.13 1170.73 19.69 1171.09 19.31C1171.47 18.93 1171.92 18.74 1172.44 18.74C1172.94 18.74 1173.36 18.93 1173.7 19.31C1174.06 19.69 1174.24 20.13 1174.24 20.63C1174.24 21.13 1174.06 21.57 1173.7 21.95C1173.36 22.31 1172.94 22.49 1172.44 22.49ZM1167.64 22.46C1167.12 22.46 1166.68 22.28 1166.32 21.92C1165.96 21.56 1165.78 21.13 1165.78 20.63C1165.78 20.11 1165.96 19.67 1166.32 19.31C1166.68 18.93 1167.12 18.74 1167.64 18.74C1168.14 18.74 1168.57 18.93 1168.93 19.31C1169.29 19.67 1169.47 20.11 1169.47 20.63C1169.47 21.13 1169.29 21.56 1168.93 21.92C1168.57 22.28 1168.14 22.46 1167.64 22.46ZM1175.25 35.15L1175.55 31.61C1176.47 31.61 1177.2 31.55 1177.74 31.43C1178.28 31.31 1178.66 31.08 1178.88 30.74C1179.12 30.38 1179.24 29.87 1179.24 29.21C1179.24 28.67 1179.16 28.03 1179 27.29C1178.86 26.55 1178.66 25.77 1178.4 24.95C1178.16 24.13 1177.91 23.36 1177.65 22.64L1181.13 21.59C1181.39 22.25 1181.63 23.02 1181.85 23.9C1182.09 24.76 1182.29 25.64 1182.45 26.54C1182.63 27.42 1182.72 28.25 1182.72 29.03C1182.72 30.01 1182.6 30.85 1182.36 31.55C1182.12 32.25 1181.78 32.84 1181.34 33.32C1180.92 33.78 1180.4 34.15 1179.78 34.43C1179.16 34.69 1178.47 34.88 1177.71 35C1176.95 35.1 1176.13 35.15 1175.25 35.15ZM1178.76 41.54C1178.24 41.54 1177.8 41.36 1177.44 41C1177.08 40.64 1176.9 40.21 1176.9 39.71C1176.9 39.19 1177.08 38.74 1177.44 38.36C1177.8 37.98 1178.24 37.79 1178.76 37.79C1179.28 37.79 1179.72 37.98 1180.08 38.36C1180.46 38.74 1180.65 39.19 1180.65 39.71C1180.65 40.21 1180.46 40.64 1180.08 41C1179.72 41.36 1179.28 41.54 1178.76 41.54ZM1194.24 41.9L1193.52 38.36C1194.84 38.18 1196.02 37.96 1197.06 37.7C1198.1 37.44 1198.98 37.07 1199.7 36.59C1200.44 36.11 1200.99 35.47 1201.35 34.67C1201.73 33.85 1201.92 32.81 1201.92 31.55C1201.92 30.31 1201.71 29.3 1201.29 28.52C1200.89 27.74 1200.35 27.35 1199.67 27.35C1199.25 27.35 1198.88 27.5 1198.56 27.8C1198.26 28.1 1198.03 28.48 1197.87 28.94C1197.71 29.38 1197.63 29.81 1197.63 30.23C1197.63 30.49 1197.69 30.73 1197.81 30.95C1197.93 31.15 1198.15 31.32 1198.47 31.46C1198.81 31.58 1199.29 31.66 1199.91 31.7C1200.55 31.74 1201.39 31.71 1202.43 31.61H1207.95C1208.57 31.61 1209.02 31.78 1209.3 32.12C1209.58 32.44 1209.72 32.84 1209.72 33.32C1209.72 33.82 1209.53 34.25 1209.15 34.61C1208.79 34.97 1208.29 35.15 1207.65 35.15H1199.79C1198.67 35.15 1197.68 35.01 1196.82 34.73C1195.98 34.45 1195.32 34 1194.84 33.38C1194.36 32.74 1194.12 31.9 1194.12 30.86C1194.12 29.98 1194.27 29.12 1194.57 28.28C1194.87 27.42 1195.27 26.64 1195.77 25.94C1196.29 25.24 1196.9 24.69 1197.6 24.29C1198.3 23.87 1199.06 23.66 1199.88 23.66C1200.98 23.66 1201.94 23.99 1202.76 24.65C1203.6 25.31 1204.26 26.23 1204.74 27.41C1205.22 28.57 1205.46 29.92 1205.46 31.46C1205.46 33.56 1205.02 35.35 1204.14 36.83C1203.26 38.33 1201.98 39.5 1200.3 40.34C1198.62 41.2 1196.6 41.72 1194.24 41.9ZM1207.65 35.15L1207.95 31.61H1216.38C1217.02 31.61 1217.48 31.78 1217.76 32.12C1218.04 32.44 1218.18 32.84 1218.18 33.32C1218.18 33.82 1217.99 34.25 1217.61 34.61C1217.25 34.97 1216.74 35.15 1216.08 35.15H1207.65ZM1216.12 35.15L1216.42 31.61H1224.85C1225.49 31.61 1225.95 31.78 1226.23 32.12C1226.51 32.44 1226.65 32.84 1226.65 33.32C1226.65 33.82 1226.46 34.25 1226.08 34.61C1225.72 34.97 1225.21 35.15 1224.55 35.15H1216.12ZM1224.58 35.15L1224.88 31.61H1233.31C1233.95 31.61 1234.41 31.78 1234.69 32.12C1234.97 32.44 1235.11 32.84 1235.11 33.32C1235.11 33.82 1234.92 34.25 1234.54 34.61C1234.18 34.97 1233.67 35.15 1233.01 35.15H1224.58ZM1233.05 35.15L1233.35 31.61C1234.35 31.61 1235.06 31.51 1235.48 31.31C1235.9 31.11 1236.15 30.74 1236.23 30.2C1236.31 29.66 1236.33 28.88 1236.29 27.86L1235.72 13.25H1239.29L1239.89 27.95C1239.93 29.07 1239.88 30.08 1239.74 30.98C1239.62 31.86 1239.33 32.61 1238.87 33.23C1238.41 33.85 1237.71 34.33 1236.77 34.67C1235.85 34.99 1234.61 35.15 1233.05 35.15ZM1262.2 35.63L1262.98 32.09C1264.9 32.09 1266.46 32.03 1267.66 31.91C1268.88 31.77 1269.81 31.52 1270.45 31.16C1271.11 30.8 1271.55 30.31 1271.77 29.69C1272.01 29.05 1272.1 28.25 1272.04 27.29L1271.41 13.25H1274.95L1275.58 27.32C1275.64 28.46 1275.79 29.34 1276.03 29.96C1276.27 30.58 1276.62 31.01 1277.08 31.25C1277.56 31.49 1278.13 31.61 1278.79 31.61C1279.41 31.61 1279.86 31.78 1280.14 32.12C1280.42 32.44 1280.56 32.84 1280.56 33.32C1280.56 33.82 1280.37 34.25 1279.99 34.61C1279.63 34.97 1279.13 35.15 1278.49 35.15C1277.59 35.15 1276.81 35.03 1276.15 34.79C1275.51 34.53 1274.98 34.15 1274.56 33.65C1274.16 33.15 1273.9 32.51 1273.78 31.73L1274.86 31.76C1274.42 32.6 1273.82 33.28 1273.06 33.8C1272.32 34.32 1271.42 34.72 1270.36 35C1269.3 35.26 1268.09 35.43 1266.73 35.51C1265.39 35.61 1263.88 35.65 1262.2 35.63ZM1261 28.67L1260.31 26.09C1261.07 25.89 1261.68 25.72 1262.14 25.58C1262.62 25.44 1262.97 25.3 1263.19 25.16C1263.43 25 1263.55 24.85 1263.55 24.71C1263.55 24.51 1263.45 24.31 1263.25 24.11C1263.05 23.91 1262.82 23.69 1262.56 23.45C1262.32 23.21 1262.1 22.94 1261.9 22.64C1261.7 22.34 1261.6 21.98 1261.6 21.56C1261.6 21.12 1261.73 20.69 1261.99 20.27C1262.25 19.83 1262.67 19.4 1263.25 18.98C1263.85 18.54 1264.66 18.1 1265.68 17.66L1266.85 19.97C1265.97 20.35 1265.36 20.68 1265.02 20.96C1264.68 21.22 1264.51 21.46 1264.51 21.68C1264.51 21.86 1264.61 22.07 1264.81 22.31C1265.01 22.53 1265.23 22.78 1265.47 23.06C1265.73 23.32 1265.96 23.62 1266.16 23.96C1266.36 24.3 1266.46 24.67 1266.46 25.07C1266.46 25.37 1266.39 25.68 1266.25 26C1266.13 26.32 1265.88 26.63 1265.5 26.93C1265.14 27.23 1264.6 27.53 1263.88 27.83C1263.16 28.11 1262.2 28.39 1261 28.67ZM1262.2 35.63C1260.18 35.63 1258.45 35.48 1257.01 35.18C1255.59 34.9 1254.42 34.48 1253.5 33.92C1252.58 33.36 1251.9 32.68 1251.46 31.88C1251.02 31.08 1250.8 30.16 1250.8 29.12C1250.8 28.54 1250.85 27.95 1250.95 27.35C1251.05 26.73 1251.18 26.13 1251.34 25.55C1251.5 24.95 1251.65 24.4 1251.79 23.9L1254.97 24.68C1254.89 25.02 1254.8 25.4 1254.7 25.82C1254.6 26.22 1254.51 26.62 1254.43 27.02C1254.37 27.42 1254.34 27.79 1254.34 28.13C1254.34 28.97 1254.6 29.69 1255.12 30.29C1255.66 30.89 1256.56 31.34 1257.82 31.64C1259.08 31.94 1260.8 32.09 1262.98 32.09L1263.58 34.67L1262.2 35.63ZM1278.49 35.15L1278.79 31.61H1287.22C1287.86 31.61 1288.32 31.78 1288.6 32.12C1288.88 32.44 1289.02 32.84 1289.02 33.32C1289.02 33.82 1288.83 34.25 1288.45 34.61C1288.09 34.97 1287.58 35.15 1286.92 35.15H1278.49ZM1286.96 35.15L1287.26 31.61H1295.69C1296.33 31.61 1296.79 31.78 1297.07 32.12C1297.35 32.44 1297.49 32.84 1297.49 33.32C1297.49 33.82 1297.3 34.25 1296.92 34.61C1296.56 34.97 1296.05 35.15 1295.39 35.15H1286.96ZM1295.42 35.15L1295.72 31.61H1304.15C1304.79 31.61 1305.25 31.78 1305.53 32.12C1305.81 32.44 1305.95 32.84 1305.95 33.32C1305.95 33.82 1305.76 34.25 1305.38 34.61C1305.02 34.97 1304.51 35.15 1303.85 35.15H1295.42ZM1303.89 35.15L1304.19 31.61C1305.01 31.61 1305.69 31.54 1306.23 31.4C1306.77 31.24 1307.2 30.95 1307.52 30.53C1307.86 30.09 1308.14 29.46 1308.36 28.64C1308.6 27.8 1308.83 26.7 1309.05 25.34L1312.38 25.91C1312.32 26.23 1312.25 26.6 1312.17 27.02C1312.09 27.44 1312.02 27.86 1311.96 28.28C1311.9 28.7 1311.87 29.08 1311.87 29.42C1311.87 29.76 1311.92 30.07 1312.02 30.35C1312.12 30.61 1312.31 30.83 1312.59 31.01C1312.89 31.19 1313.32 31.34 1313.88 31.46C1314.44 31.56 1315.16 31.61 1316.04 31.61C1316.68 31.61 1317.13 31.78 1317.39 32.12C1317.67 32.44 1317.81 32.84 1317.81 33.32C1317.81 33.82 1317.63 34.25 1317.27 34.61C1316.91 34.97 1316.4 35.15 1315.74 35.15C1314.72 35.15 1313.85 35.08 1313.13 34.94C1312.41 34.8 1311.81 34.58 1311.33 34.28C1310.87 33.98 1310.51 33.59 1310.25 33.11C1309.99 32.61 1309.82 32.01 1309.74 31.31L1310.97 31.34C1310.63 32.18 1310.21 32.86 1309.71 33.38C1309.23 33.88 1308.69 34.26 1308.09 34.52C1307.49 34.76 1306.83 34.92 1306.11 35C1305.41 35.1 1304.67 35.15 1303.89 35.15ZM1311.96 41.63C1311.44 41.63 1310.99 41.44 1310.61 41.06C1310.25 40.7 1310.07 40.27 1310.07 39.77C1310.07 39.27 1310.25 38.83 1310.61 38.45C1310.99 38.07 1311.44 37.88 1311.96 37.88C1312.46 37.88 1312.89 38.07 1313.25 38.45C1313.61 38.83 1313.79 39.27 1313.79 39.77C1313.79 40.27 1313.61 40.7 1313.25 41.06C1312.89 41.44 1312.46 41.63 1311.96 41.63ZM1307.16 41.63C1306.64 41.63 1306.2 41.44 1305.84 41.06C1305.48 40.7 1305.3 40.27 1305.3 39.77C1305.3 39.27 1305.48 38.83 1305.84 38.45C1306.2 38.07 1306.64 37.88 1307.16 37.88C1307.66 37.88 1308.09 38.07 1308.45 38.45C1308.81 38.83 1308.99 39.27 1308.99 39.77C1308.99 40.27 1308.81 40.7 1308.45 41.06C1308.09 41.44 1307.66 41.63 1307.16 41.63ZM1315.73 35.15L1316.03 31.61C1317.03 31.61 1317.74 31.51 1318.16 31.31C1318.58 31.11 1318.83 30.74 1318.91 30.2C1318.99 29.66 1319.01 28.88 1318.97 27.86L1318.4 13.25H1321.97L1322.57 27.95C1322.61 29.07 1322.56 30.08 1322.42 30.98C1322.3 31.86 1322.01 32.61 1321.55 33.23C1321.09 33.85 1320.39 34.33 1319.45 34.67C1318.53 34.99 1317.29 35.15 1315.73 35.15ZM1338.99 35.06C1337.93 35.06 1336.97 34.88 1336.11 34.52C1335.27 34.14 1334.6 33.57 1334.1 32.81C1333.62 32.05 1333.38 31.1 1333.38 29.96C1333.38 28.9 1333.75 27.68 1334.49 26.3C1335.25 24.9 1336.52 23.47 1338.3 22.01L1338.33 24.35L1335.9 22.37L1338.24 19.52C1339.58 20.54 1340.75 21.57 1341.75 22.61C1342.77 23.63 1343.56 24.7 1344.12 25.82C1344.68 26.92 1344.96 28.1 1344.96 29.36C1344.96 29.92 1344.87 30.53 1344.69 31.19C1344.51 31.85 1344.2 32.47 1343.76 33.05C1343.32 33.63 1342.71 34.11 1341.93 34.49C1341.15 34.87 1340.17 35.06 1338.99 35.06ZM1339.2 31.55C1339.76 31.55 1340.22 31.45 1340.58 31.25C1340.96 31.03 1341.24 30.74 1341.42 30.38C1341.6 30.02 1341.69 29.62 1341.69 29.18C1341.69 28.78 1341.61 28.35 1341.45 27.89C1341.29 27.41 1340.97 26.89 1340.49 26.33C1340.01 25.75 1339.29 25.09 1338.33 24.35L1340.25 24.14C1339.47 24.74 1338.82 25.36 1338.3 26C1337.78 26.62 1337.4 27.22 1337.16 27.8C1336.94 28.38 1336.83 28.91 1336.83 29.39C1336.83 30.11 1337.06 30.65 1337.52 31.01C1337.98 31.37 1338.54 31.55 1339.2 31.55ZM1346.98 33.74L1348.36 30.59C1348.96 30.89 1349.61 31.14 1350.31 31.34C1351.01 31.52 1351.75 31.61 1352.53 31.61C1353.35 31.61 1354.01 31.53 1354.51 31.37C1355.03 31.21 1355.41 30.98 1355.65 30.68C1355.91 30.36 1356.04 29.99 1356.04 29.57C1356.04 29.21 1355.94 28.74 1355.74 28.16C1355.56 27.56 1355.19 26.77 1354.63 25.79C1354.09 24.79 1353.28 23.53 1352.2 22.01L1355.2 20.03C1356.2 21.43 1357.03 22.76 1357.69 24.02C1358.37 25.26 1358.88 26.4 1359.22 27.44C1359.58 28.46 1359.76 29.35 1359.76 30.11C1359.76 31.05 1359.51 31.9 1359.01 32.66C1358.51 33.42 1357.75 34.03 1356.73 34.49C1355.71 34.95 1354.4 35.18 1352.8 35.18C1352.18 35.18 1351.52 35.12 1350.82 35C1350.12 34.9 1349.43 34.75 1348.75 34.55C1348.09 34.33 1347.5 34.06 1346.98 33.74ZM1381.67 35.63L1382.45 32.09C1383.81 32.09 1385.16 32.02 1386.5 31.88C1387.84 31.72 1389.14 31.44 1390.4 31.04C1391.66 30.64 1392.85 30.06 1393.97 29.3C1395.09 28.52 1396.09 27.5 1396.97 26.24L1399.79 27.62C1399.65 28.04 1399.54 28.41 1399.46 28.73C1399.38 29.05 1399.34 29.32 1399.34 29.54C1399.34 29.94 1399.45 30.3 1399.67 30.62C1399.91 30.92 1400.32 31.16 1400.9 31.34C1401.48 31.52 1402.29 31.61 1403.33 31.61C1403.95 31.61 1404.39 31.78 1404.65 32.12C1404.93 32.44 1405.07 32.84 1405.07 33.32C1405.07 33.82 1404.89 34.25 1404.53 34.61C1404.17 34.97 1403.67 35.15 1403.03 35.15C1401.67 35.15 1400.49 34.98 1399.49 34.64C1398.51 34.3 1397.75 33.81 1397.21 33.17C1396.69 32.51 1396.43 31.72 1396.43 30.8L1397.36 30.95C1396.62 31.75 1395.7 32.45 1394.6 33.05C1393.52 33.63 1392.3 34.11 1390.94 34.49C1389.6 34.87 1388.15 35.15 1386.59 35.33C1385.03 35.53 1383.39 35.63 1381.67 35.63ZM1381.64 35.63C1379.62 35.63 1377.89 35.48 1376.45 35.18C1375.03 34.9 1373.86 34.48 1372.94 33.92C1372.02 33.36 1371.34 32.68 1370.9 31.88C1370.46 31.08 1370.24 30.16 1370.24 29.12C1370.24 28.54 1370.29 27.95 1370.39 27.35C1370.49 26.73 1370.62 26.13 1370.78 25.55C1370.94 24.95 1371.09 24.4 1371.23 23.9L1374.41 24.68C1374.33 25.02 1374.24 25.4 1374.14 25.82C1374.04 26.22 1373.95 26.62 1373.87 27.02C1373.81 27.42 1373.78 27.79 1373.78 28.13C1373.78 28.97 1374.04 29.69 1374.56 30.29C1375.1 30.89 1376 31.34 1377.26 31.64C1378.52 31.94 1380.24 32.09 1382.42 32.09L1383.02 34.67L1381.64 35.63ZM1383.8 42.14C1383.28 42.14 1382.84 41.96 1382.48 41.6C1382.12 41.24 1381.94 40.81 1381.94 40.31C1381.94 39.79 1382.12 39.34 1382.48 38.96C1382.84 38.58 1383.28 38.39 1383.8 38.39C1384.32 38.39 1384.76 38.58 1385.12 38.96C1385.5 39.34 1385.69 39.79 1385.69 40.31C1385.69 40.81 1385.5 41.24 1385.12 41.6C1384.76 41.96 1384.32 42.14 1383.8 42.14ZM1403.03 35.15L1403.33 31.61H1411.76C1412.4 31.61 1412.86 31.78 1413.14 32.12C1413.42 32.44 1413.56 32.84 1413.56 33.32C1413.56 33.82 1413.37 34.25 1412.99 34.61C1412.63 34.97 1412.12 35.15 1411.46 35.15H1403.03ZM1411.5 35.15L1411.8 31.61H1420.23C1420.87 31.61 1421.33 31.78 1421.61 32.12C1421.89 32.44 1422.03 32.84 1422.03 33.32C1422.03 33.82 1421.84 34.25 1421.46 34.61C1421.1 34.97 1420.59 35.15 1419.93 35.15H1411.5ZM1419.96 35.15L1420.26 31.61H1428.69C1429.33 31.61 1429.79 31.78 1430.07 32.12C1430.35 32.44 1430.49 32.84 1430.49 33.32C1430.49 33.82 1430.3 34.25 1429.92 34.61C1429.56 34.97 1429.05 35.15 1428.39 35.15H1419.96ZM1428.43 35.15L1428.73 31.61C1429.23 31.61 1429.65 31.49 1429.99 31.25C1430.35 31.01 1430.71 30.62 1431.07 30.08C1431.43 29.52 1431.84 28.77 1432.3 27.83C1432.88 26.61 1433.48 25.66 1434.1 24.98C1434.72 24.3 1435.35 23.83 1435.99 23.57C1436.65 23.29 1437.3 23.15 1437.94 23.15C1438.74 23.15 1439.49 23.34 1440.19 23.72C1440.89 24.08 1441.49 24.57 1441.99 25.19C1442.51 25.81 1442.91 26.51 1443.19 27.29C1443.49 28.07 1443.64 28.86 1443.64 29.66C1443.64 30.78 1443.42 31.74 1442.98 32.54C1442.54 33.34 1441.95 33.95 1441.21 34.37C1440.47 34.79 1439.65 35 1438.75 35C1437.99 35 1437.07 34.86 1435.99 34.58C1434.91 34.3 1433.7 33.68 1432.36 32.72L1433.74 29.75C1434.68 30.37 1435.54 30.81 1436.32 31.07C1437.12 31.33 1437.78 31.46 1438.3 31.46C1438.76 31.46 1439.13 31.4 1439.41 31.28C1439.71 31.16 1439.93 30.99 1440.07 30.77C1440.21 30.53 1440.28 30.24 1440.28 29.9C1440.28 29.42 1440.16 28.94 1439.92 28.46C1439.7 27.96 1439.4 27.54 1439.02 27.2C1438.66 26.86 1438.25 26.69 1437.79 26.69C1437.39 26.69 1437.04 26.83 1436.74 27.11C1436.44 27.37 1436.13 27.78 1435.81 28.34C1435.51 28.9 1435.16 29.61 1434.76 30.47C1434.28 31.45 1433.82 32.25 1433.38 32.87C1432.96 33.49 1432.51 33.97 1432.03 34.31C1431.57 34.63 1431.04 34.85 1430.44 34.97C1429.86 35.09 1429.19 35.15 1428.43 35.15ZM1454.46 35.15C1452.7 35.15 1451.34 34.97 1450.38 34.61C1449.44 34.23 1448.78 33.65 1448.4 32.87C1448.04 32.07 1447.84 31.05 1447.8 29.81L1447.17 13.25H1450.71L1451.34 28.22C1451.38 29.16 1451.47 29.87 1451.61 30.35C1451.77 30.83 1452.09 31.16 1452.57 31.34C1453.05 31.52 1453.78 31.61 1454.76 31.61C1455.4 31.61 1455.86 31.78 1456.14 32.12C1456.42 32.44 1456.56 32.84 1456.56 33.32C1456.56 33.82 1456.37 34.25 1455.99 34.61C1455.63 34.97 1455.12 35.15 1454.46 35.15ZM1454.48 35.15L1454.78 31.61H1458.26C1459.32 31.61 1460.12 31.55 1460.66 31.43C1461.2 31.31 1461.56 31.14 1461.74 30.92C1461.92 30.7 1462.01 30.46 1462.01 30.2C1462.01 29.78 1461.84 29.32 1461.5 28.82C1461.18 28.3 1460.76 27.76 1460.24 27.2C1459.72 26.64 1459.17 26.09 1458.59 25.55C1458.03 24.99 1457.49 24.47 1456.97 23.99C1456.45 23.51 1456.02 23.09 1455.68 22.73C1455.36 22.37 1455.2 22.11 1455.2 21.95C1455.2 21.49 1455.23 21.11 1455.29 20.81C1455.35 20.49 1455.43 20.23 1455.53 20.03C1455.63 19.81 1455.75 19.63 1455.89 19.49C1456.25 19.11 1456.77 18.7 1457.45 18.26C1458.15 17.82 1458.96 17.36 1459.88 16.88C1460.82 16.38 1461.84 15.86 1462.94 15.32C1464.06 14.78 1465.23 14.23 1466.45 13.67L1467.89 16.79C1466.71 17.33 1465.61 17.84 1464.59 18.32C1463.59 18.8 1462.67 19.26 1461.83 19.7C1460.99 20.12 1460.22 20.53 1459.52 20.93C1458.84 21.33 1458.22 21.72 1457.66 22.1L1457.93 20.33C1458.81 21.07 1459.61 21.78 1460.33 22.46C1461.07 23.14 1461.76 23.83 1462.4 24.53C1463.06 25.21 1463.67 25.93 1464.23 26.69C1464.79 27.43 1465.33 28.25 1465.85 29.15C1466.29 29.87 1466.76 30.41 1467.26 30.77C1467.76 31.11 1468.25 31.34 1468.73 31.46C1469.23 31.56 1469.65 31.61 1469.99 31.61C1470.63 31.61 1471.09 31.78 1471.37 32.12C1471.65 32.44 1471.79 32.84 1471.79 33.32C1471.79 33.82 1471.6 34.25 1471.22 34.61C1470.86 34.97 1470.35 35.15 1469.69 35.15C1469.09 35.15 1468.41 35.05 1467.65 34.85C1466.91 34.63 1466.2 34.27 1465.52 33.77C1464.84 33.25 1464.31 32.52 1463.93 31.58L1465.28 31.79C1464.98 32.39 1464.63 32.91 1464.23 33.35C1463.83 33.77 1463.34 34.12 1462.76 34.4C1462.18 34.66 1461.5 34.85 1460.72 34.97C1459.96 35.09 1459.07 35.15 1458.05 35.15H1454.48ZM1469.71 35.15L1470.01 31.61C1471.01 31.61 1471.72 31.51 1472.14 31.31C1472.56 31.11 1472.81 30.74 1472.89 30.2C1472.97 29.66 1472.99 28.88 1472.95 27.86L1472.38 13.25H1475.95L1476.55 27.95C1476.59 29.07 1476.54 30.08 1476.4 30.98C1476.28 31.86 1475.99 32.61 1475.53 33.23C1475.07 33.85 1474.37 34.33 1473.43 34.67C1472.51 34.99 1471.27 35.15 1469.71 35.15ZM1480.76 35L1480.13 13.25H1483.67L1484.27 35H1480.76ZM1104.13 71.36C1102.45 71.36 1101.28 70.31 1101.28 68.87C1101.28 67.46 1102.45 66.35 1104.13 66.35C1105.78 66.35 1106.95 67.46 1106.95 68.87C1106.95 70.31 1105.78 71.36 1104.13 71.36ZM1108.9 77.93L1107.64 74.75C1108.84 74.35 1109.9 73.88 1110.82 73.34C1111.74 72.82 1112.51 72.24 1113.13 71.6C1113.77 70.98 1114.24 70.32 1114.54 69.62C1114.86 68.92 1115.02 68.19 1115.02 67.43C1115.02 66.55 1114.82 65.61 1114.42 64.61C1114.04 63.59 1113.58 62.59 1113.04 61.61L1116.31 60.02C1116.67 60.66 1116.99 61.33 1117.27 62.03C1117.55 62.73 1117.79 63.37 1117.99 63.95C1118.19 64.51 1118.34 64.95 1118.44 65.27C1118.72 66.19 1119.09 66.81 1119.55 67.13C1120.03 67.45 1120.76 67.61 1121.74 67.61C1122.38 67.61 1122.83 67.78 1123.09 68.12C1123.37 68.44 1123.51 68.84 1123.51 69.32C1123.51 69.82 1123.33 70.25 1122.97 70.61C1122.61 70.97 1122.1 71.15 1121.44 71.15C1120.6 71.15 1119.88 71.02 1119.28 70.76C1118.7 70.48 1118.24 70.1 1117.9 69.62C1117.56 69.14 1117.34 68.61 1117.24 68.03L1118.29 68.6C1118.21 69.76 1117.88 70.84 1117.3 71.84C1116.74 72.86 1116 73.77 1115.08 74.57C1114.18 75.37 1113.19 76.05 1112.11 76.61C1111.03 77.19 1109.96 77.63 1108.9 77.93ZM1114.54 56.81C1114 56.81 1113.54 56.63 1113.16 56.27C1112.78 55.89 1112.59 55.43 1112.59 54.89C1112.59 54.35 1112.78 53.89 1113.16 53.51C1113.54 53.11 1114 52.91 1114.54 52.91C1115.06 52.91 1115.51 53.11 1115.89 53.51C1116.27 53.89 1116.46 54.35 1116.46 54.89C1116.46 55.43 1116.27 55.89 1115.89 56.27C1115.51 56.63 1115.06 56.81 1114.54 56.81ZM1121.46 71.15L1121.76 67.61C1122.96 67.61 1123.88 67.56 1124.52 67.46C1125.16 67.34 1125.61 67.11 1125.87 66.77C1126.15 66.41 1126.29 65.89 1126.29 65.21C1126.29 64.67 1126.21 64.03 1126.05 63.29C1125.89 62.55 1125.69 61.77 1125.45 60.95C1125.21 60.13 1124.95 59.36 1124.67 58.64L1128.18 57.59C1128.44 58.25 1128.68 59.02 1128.9 59.9C1129.14 60.76 1129.34 61.64 1129.5 62.54C1129.66 63.42 1129.74 64.25 1129.74 65.03C1129.74 66.25 1129.55 67.26 1129.17 68.06C1128.81 68.86 1128.27 69.49 1127.55 69.95C1126.85 70.39 1125.98 70.7 1124.94 70.88C1123.92 71.06 1122.76 71.15 1121.46 71.15ZM1128.18 77.63C1127.66 77.63 1127.21 77.44 1126.83 77.06C1126.47 76.7 1126.29 76.27 1126.29 75.77C1126.29 75.27 1126.47 74.83 1126.83 74.45C1127.19 74.07 1127.64 73.88 1128.18 73.88C1128.68 73.88 1129.1 74.07 1129.44 74.45C1129.8 74.83 1129.98 75.27 1129.98 75.77C1129.98 76.27 1129.8 76.7 1129.44 77.06C1129.08 77.44 1128.66 77.63 1128.18 77.63ZM1123.38 77.63C1122.86 77.63 1122.42 77.44 1122.06 77.06C1121.7 76.7 1121.52 76.27 1121.52 75.77C1121.52 75.27 1121.7 74.83 1122.06 74.45C1122.42 74.07 1122.86 73.88 1123.38 73.88C1123.88 73.88 1124.31 74.07 1124.67 74.45C1125.03 74.83 1125.21 75.27 1125.21 75.77C1125.21 76.27 1125.03 76.7 1124.67 77.06C1124.31 77.44 1123.88 77.63 1123.38 77.63ZM1134.09 71L1133.46 49.25H1137L1137.6 71H1134.09ZM1141.04 77.9L1140.32 74.36C1141.64 74.18 1142.82 73.96 1143.86 73.7C1144.9 73.44 1145.78 73.07 1146.5 72.59C1147.24 72.11 1147.79 71.47 1148.15 70.67C1148.53 69.85 1148.72 68.81 1148.72 67.55C1148.72 66.31 1148.51 65.3 1148.09 64.52C1147.69 63.74 1147.15 63.35 1146.47 63.35C1146.05 63.35 1145.68 63.5 1145.36 63.8C1145.06 64.1 1144.83 64.48 1144.67 64.94C1144.51 65.38 1144.43 65.81 1144.43 66.23C1144.43 66.49 1144.49 66.73 1144.61 66.95C1144.73 67.15 1144.95 67.32 1145.27 67.46C1145.61 67.58 1146.09 67.66 1146.71 67.7C1147.35 67.74 1148.19 67.71 1149.23 67.61H1154.75C1155.37 67.61 1155.82 67.78 1156.1 68.12C1156.38 68.44 1156.52 68.84 1156.52 69.32C1156.52 69.82 1156.33 70.25 1155.95 70.61C1155.59 70.97 1155.09 71.15 1154.45 71.15H1146.59C1145.47 71.15 1144.48 71.01 1143.62 70.73C1142.78 70.45 1142.12 70 1141.64 69.38C1141.16 68.74 1140.92 67.9 1140.92 66.86C1140.92 65.98 1141.07 65.12 1141.37 64.28C1141.67 63.42 1142.07 62.64 1142.57 61.94C1143.09 61.24 1143.7 60.69 1144.4 60.29C1145.1 59.87 1145.86 59.66 1146.68 59.66C1147.78 59.66 1148.74 59.99 1149.56 60.65C1150.4 61.31 1151.06 62.23 1151.54 63.41C1152.02 64.57 1152.26 65.92 1152.26 67.46C1152.26 69.56 1151.82 71.35 1150.94 72.83C1150.06 74.33 1148.78 75.5 1147.1 76.34C1145.42 77.2 1143.4 77.72 1141.04 77.9ZM1154.45 71.15L1154.75 67.61C1155.81 67.61 1156.86 67.54 1157.9 67.4C1158.94 67.26 1159.95 67.06 1160.93 66.8C1161.91 66.54 1162.85 66.21 1163.75 65.81C1164.65 65.41 1165.5 64.94 1166.3 64.4C1165.74 64 1165.11 63.66 1164.41 63.38C1163.73 63.08 1162.99 62.86 1162.19 62.72C1161.39 62.56 1160.54 62.48 1159.64 62.48C1159.32 62.48 1159 62.49 1158.68 62.51C1158.36 62.53 1158.03 62.57 1157.69 62.63C1157.37 62.67 1157.03 62.73 1156.67 62.81L1156.13 59.39C1156.69 59.23 1157.27 59.11 1157.87 59.03C1158.49 58.95 1159.05 58.91 1159.55 58.91C1160.61 58.91 1161.58 59.03 1162.46 59.27C1163.34 59.51 1164.15 59.81 1164.89 60.17C1165.63 60.53 1166.32 60.89 1166.96 61.25C1167.62 61.61 1168.25 61.92 1168.85 62.18C1169.45 62.42 1170.05 62.54 1170.65 62.54H1171.58L1171.94 65.84C1171.08 65.86 1170.28 66.01 1169.54 66.29C1168.8 66.55 1168.07 66.89 1167.35 67.31C1166.65 67.71 1165.9 68.13 1165.1 68.57C1164.3 69.01 1163.4 69.43 1162.4 69.83C1161.4 70.21 1160.25 70.53 1158.95 70.79C1157.65 71.03 1156.15 71.15 1154.45 71.15ZM1163.21 77.48C1162.69 77.48 1162.25 77.3 1161.89 76.94C1161.53 76.58 1161.35 76.15 1161.35 75.65C1161.35 75.13 1161.53 74.68 1161.89 74.3C1162.25 73.92 1162.69 73.73 1163.21 73.73C1163.73 73.73 1164.17 73.92 1164.53 74.3C1164.91 74.68 1165.1 75.13 1165.1 75.65C1165.1 76.15 1164.91 76.58 1164.53 76.94C1164.17 77.3 1163.73 77.48 1163.21 77.48ZM1190.41 71.15C1188.65 71.15 1187.29 70.97 1186.33 70.61C1185.39 70.23 1184.73 69.65 1184.35 68.87C1183.99 68.07 1183.79 67.05 1183.75 65.81L1183.12 49.25H1186.66L1187.29 64.22C1187.33 65.16 1187.42 65.87 1187.56 66.35C1187.72 66.83 1188.04 67.16 1188.52 67.34C1189 67.52 1189.73 67.61 1190.71 67.61C1191.35 67.61 1191.81 67.78 1192.09 68.12C1192.37 68.44 1192.51 68.84 1192.51 69.32C1192.51 69.82 1192.32 70.25 1191.94 70.61C1191.58 70.97 1191.07 71.15 1190.41 71.15ZM1200.17 77.57C1198.81 77.57 1197.56 77.27 1196.42 76.67C1195.3 76.07 1194.4 75.15 1193.72 73.91C1193.04 72.67 1192.7 71.08 1192.7 69.14C1192.7 67.42 1192.9 65.84 1193.3 64.4C1193.72 62.96 1194.27 61.72 1194.95 60.68C1195.65 59.62 1196.43 58.8 1197.29 58.22C1198.15 57.64 1199.04 57.35 1199.96 57.35C1200.68 57.35 1201.35 57.56 1201.97 57.98C1202.59 58.38 1203.09 58.97 1203.47 59.75C1203.87 60.51 1204.07 61.44 1204.07 62.54C1204.07 63.24 1203.94 64 1203.68 64.82C1203.42 65.64 1202.95 66.4 1202.27 67.1C1201.59 67.8 1200.64 68.35 1199.42 68.75L1200.62 66.65C1201.26 66.85 1201.93 67.02 1202.63 67.16C1203.33 67.3 1204.06 67.41 1204.82 67.49C1205.58 67.57 1206.34 67.61 1207.1 67.61C1207.74 67.61 1208.2 67.78 1208.48 68.12C1208.76 68.44 1208.9 68.84 1208.9 69.32C1208.9 69.82 1208.71 70.25 1208.33 70.61C1207.97 70.97 1207.46 71.15 1206.8 71.15C1206.26 71.15 1205.65 71.12 1204.97 71.06C1204.29 71 1203.62 70.92 1202.96 70.82C1202.32 70.72 1201.75 70.61 1201.25 70.49L1204.28 70.01C1204.74 70.55 1205.06 71.15 1205.24 71.81C1205.42 72.49 1205.45 73.16 1205.33 73.82C1205.23 74.5 1204.97 75.12 1204.55 75.68C1204.13 76.26 1203.55 76.72 1202.81 77.06C1202.09 77.4 1201.21 77.57 1200.17 77.57ZM1190.42 71.15L1190.72 67.61C1191.1 67.61 1191.54 67.61 1192.04 67.61C1192.56 67.61 1193.03 67.6 1193.45 67.58L1193.69 70.82C1193.15 70.92 1192.58 71 1191.98 71.06C1191.38 71.12 1190.86 71.15 1190.42 71.15ZM1200.11 74.06C1200.51 74.06 1200.85 73.99 1201.13 73.85C1201.43 73.73 1201.66 73.54 1201.82 73.28C1202 73.02 1202.09 72.7 1202.09 72.32C1202.09 72 1201.99 71.66 1201.79 71.3C1201.59 70.96 1201.24 70.67 1200.74 70.43C1200.24 70.19 1199.52 70.07 1198.58 70.07C1198.3 70.07 1197.99 70.09 1197.65 70.13C1197.33 70.17 1196.99 70.22 1196.63 70.28C1196.27 70.34 1195.9 70.42 1195.52 70.52L1195.61 67.49C1196.37 67.43 1197.05 67.3 1197.65 67.1C1198.27 66.9 1198.79 66.63 1199.21 66.29C1199.65 65.93 1199.99 65.49 1200.23 64.97C1200.47 64.43 1200.59 63.79 1200.59 63.05C1200.59 62.73 1200.56 62.41 1200.5 62.09C1200.44 61.75 1200.33 61.46 1200.17 61.22C1200.03 60.98 1199.85 60.86 1199.63 60.86C1199.31 60.86 1198.96 61.05 1198.58 61.43C1198.2 61.81 1197.83 62.35 1197.47 63.05C1197.11 63.73 1196.81 64.55 1196.57 65.51C1196.35 66.45 1196.24 67.5 1196.24 68.66C1196.24 69.74 1196.36 70.63 1196.6 71.33C1196.84 72.03 1197.15 72.58 1197.53 72.98C1197.91 73.38 1198.33 73.66 1198.79 73.82C1199.25 73.98 1199.69 74.06 1200.11 74.06ZM1206.83 71.15L1207.13 67.61C1207.95 67.61 1208.63 67.54 1209.17 67.4C1209.71 67.24 1210.14 66.95 1210.46 66.53C1210.8 66.09 1211.08 65.46 1211.3 64.64C1211.54 63.8 1211.77 62.7 1211.99 61.34L1215.32 61.91C1215.26 62.23 1215.19 62.6 1215.11 63.02C1215.03 63.44 1214.96 63.86 1214.9 64.28C1214.84 64.7 1214.81 65.08 1214.81 65.42C1214.81 65.76 1214.86 66.07 1214.96 66.35C1215.06 66.61 1215.25 66.83 1215.53 67.01C1215.83 67.19 1216.26 67.34 1216.82 67.46C1217.38 67.56 1218.1 67.61 1218.98 67.61C1219.62 67.61 1220.07 67.78 1220.33 68.12C1220.61 68.44 1220.75 68.84 1220.75 69.32C1220.75 69.82 1220.57 70.25 1220.21 70.61C1219.85 70.97 1219.34 71.15 1218.68 71.15C1217.66 71.15 1216.79 71.08 1216.07 70.94C1215.35 70.8 1214.75 70.58 1214.27 70.28C1213.81 69.98 1213.45 69.59 1213.19 69.11C1212.93 68.61 1212.76 68.01 1212.68 67.31L1213.91 67.34C1213.57 68.18 1213.15 68.86 1212.65 69.38C1212.17 69.88 1211.63 70.26 1211.03 70.52C1210.43 70.76 1209.77 70.92 1209.05 71C1208.35 71.1 1207.61 71.15 1206.83 71.15ZM1214.9 77.63C1214.38 77.63 1213.93 77.44 1213.55 77.06C1213.19 76.7 1213.01 76.27 1213.01 75.77C1213.01 75.27 1213.19 74.83 1213.55 74.45C1213.93 74.07 1214.38 73.88 1214.9 73.88C1215.4 73.88 1215.83 74.07 1216.19 74.45C1216.55 74.83 1216.73 75.27 1216.73 75.77C1216.73 76.27 1216.55 76.7 1216.19 77.06C1215.83 77.44 1215.4 77.63 1214.9 77.63ZM1210.1 77.63C1209.58 77.63 1209.14 77.44 1208.78 77.06C1208.42 76.7 1208.24 76.27 1208.24 75.77C1208.24 75.27 1208.42 74.83 1208.78 74.45C1209.14 74.07 1209.58 73.88 1210.1 73.88C1210.6 73.88 1211.03 74.07 1211.39 74.45C1211.75 74.83 1211.93 75.27 1211.93 75.77C1211.93 76.27 1211.75 76.7 1211.39 77.06C1211.03 77.44 1210.6 77.63 1210.1 77.63ZM1218.67 71.15L1218.97 67.61C1219.89 67.61 1220.62 67.55 1221.16 67.43C1221.7 67.31 1222.08 67.08 1222.3 66.74C1222.54 66.38 1222.66 65.87 1222.66 65.21C1222.66 64.67 1222.58 64.03 1222.42 63.29C1222.28 62.55 1222.08 61.77 1221.82 60.95C1221.58 60.13 1221.33 59.36 1221.07 58.64L1224.55 57.59C1224.81 58.25 1225.05 59.02 1225.27 59.9C1225.51 60.76 1225.71 61.64 1225.87 62.54C1226.05 63.42 1226.14 64.25 1226.14 65.03C1226.14 66.01 1226.02 66.85 1225.78 67.55C1225.54 68.25 1225.2 68.84 1224.76 69.32C1224.34 69.78 1223.82 70.15 1223.2 70.43C1222.58 70.69 1221.89 70.88 1221.13 71C1220.37 71.1 1219.55 71.15 1218.67 71.15ZM1222.18 77.54C1221.66 77.54 1221.22 77.36 1220.86 77C1220.5 76.64 1220.32 76.21 1220.32 75.71C1220.32 75.19 1220.5 74.74 1220.86 74.36C1221.22 73.98 1221.66 73.79 1222.18 73.79C1222.7 73.79 1223.14 73.98 1223.5 74.36C1223.88 74.74 1224.07 75.19 1224.07 75.71C1224.07 76.21 1223.88 76.64 1223.5 77C1223.14 77.36 1222.7 77.54 1222.18 77.54ZM1242.46 67.61C1243.4 67.61 1244.13 67.52 1244.65 67.34C1245.17 67.16 1245.53 66.92 1245.73 66.62C1245.95 66.3 1246.06 65.95 1246.06 65.57C1246.06 65.13 1245.94 64.61 1245.7 64.01C1245.46 63.39 1245.14 62.73 1244.74 62.03C1244.36 61.33 1243.95 60.64 1243.51 59.96C1243.07 59.26 1242.64 58.61 1242.22 58.01L1245.22 56.03C1246.04 57.19 1246.75 58.32 1247.35 59.42C1247.97 60.52 1248.47 61.55 1248.85 62.51C1249.25 63.45 1249.55 64.28 1249.75 65C1249.95 65.72 1250.22 66.27 1250.56 66.65C1250.9 67.03 1251.28 67.29 1251.7 67.43C1252.12 67.55 1252.52 67.61 1252.9 67.61C1253.54 67.61 1254 67.78 1254.28 68.12C1254.56 68.44 1254.7 68.84 1254.7 69.32C1254.7 69.82 1254.52 70.25 1254.16 70.61C1253.8 70.97 1253.29 71.15 1252.63 71.15C1251.83 71.15 1251.1 71.03 1250.44 70.79C1249.8 70.55 1249.25 70.16 1248.79 69.62C1248.33 69.08 1247.97 68.38 1247.71 67.52L1249.3 67.4C1249.2 68.04 1248.9 68.65 1248.4 69.23C1247.92 69.81 1247.22 70.28 1246.3 70.64C1245.4 71 1244.24 71.18 1242.82 71.18C1242.18 71.18 1241.5 71.12 1240.78 71C1240.08 70.9 1239.4 70.75 1238.74 70.55C1238.1 70.33 1237.52 70.06 1237 69.74L1238.38 66.59C1238.98 66.89 1239.63 67.14 1240.33 67.34C1241.03 67.52 1241.74 67.61 1242.46 67.61ZM1252.62 71.15L1252.92 67.61C1253.98 67.61 1255.03 67.54 1256.07 67.4C1257.11 67.26 1258.12 67.06 1259.1 66.8C1260.08 66.54 1261.02 66.21 1261.92 65.81C1262.82 65.41 1263.67 64.94 1264.47 64.4C1263.91 64 1263.28 63.66 1262.58 63.38C1261.9 63.08 1261.16 62.86 1260.36 62.72C1259.56 62.56 1258.71 62.48 1257.81 62.48C1257.49 62.48 1257.17 62.49 1256.85 62.51C1256.53 62.53 1256.2 62.57 1255.86 62.63C1255.54 62.67 1255.2 62.73 1254.84 62.81L1254.3 59.39C1254.86 59.23 1255.44 59.11 1256.04 59.03C1256.66 58.95 1257.22 58.91 1257.72 58.91C1258.78 58.91 1259.75 59.03 1260.63 59.27C1261.51 59.51 1262.32 59.81 1263.06 60.17C1263.8 60.53 1264.49 60.89 1265.13 61.25C1265.79 61.61 1266.42 61.92 1267.02 62.18C1267.62 62.42 1268.22 62.54 1268.82 62.54H1269.75L1270.11 65.84C1269.25 65.86 1268.45 66.01 1267.71 66.29C1266.97 66.55 1266.24 66.89 1265.52 67.31C1264.82 67.71 1264.07 68.13 1263.27 68.57C1262.47 69.01 1261.57 69.43 1260.57 69.83C1259.57 70.21 1258.42 70.53 1257.12 70.79C1255.82 71.03 1254.32 71.15 1252.62 71.15ZM1257.75 56C1257.21 56 1256.75 55.82 1256.37 55.46C1255.99 55.08 1255.8 54.62 1255.8 54.08C1255.8 53.54 1255.99 53.08 1256.37 52.7C1256.75 52.3 1257.21 52.1 1257.75 52.1C1258.27 52.1 1258.72 52.3 1259.1 52.7C1259.48 53.08 1259.67 53.54 1259.67 54.08C1259.67 54.62 1259.48 55.08 1259.1 55.46C1258.72 55.82 1258.27 56 1257.75 56ZM1280.26 71.15C1278.5 71.15 1277.14 70.97 1276.18 70.61C1275.24 70.23 1274.58 69.65 1274.2 68.87C1273.84 68.07 1273.64 67.05 1273.6 65.81L1272.97 49.25H1276.51L1277.14 64.22C1277.18 65.16 1277.27 65.87 1277.41 66.35C1277.57 66.83 1277.89 67.16 1278.37 67.34C1278.85 67.52 1279.58 67.61 1280.56 67.61C1281.2 67.61 1281.66 67.78 1281.94 68.12C1282.22 68.44 1282.36 68.84 1282.36 69.32C1282.36 69.82 1282.17 70.25 1281.79 70.61C1281.43 70.97 1280.92 71.15 1280.26 71.15ZM1280.28 71.15L1280.58 67.61C1281.78 67.61 1282.7 67.56 1283.34 67.46C1283.98 67.34 1284.43 67.11 1284.69 66.77C1284.97 66.41 1285.11 65.89 1285.11 65.21C1285.11 64.67 1285.03 64.03 1284.87 63.29C1284.71 62.55 1284.51 61.77 1284.27 60.95C1284.03 60.13 1283.77 59.36 1283.49 58.64L1287 57.59C1287.26 58.25 1287.5 59.02 1287.72 59.9C1287.96 60.76 1288.16 61.64 1288.32 62.54C1288.48 63.42 1288.56 64.25 1288.56 65.03C1288.56 66.25 1288.37 67.26 1287.99 68.06C1287.63 68.86 1287.09 69.49 1286.37 69.95C1285.67 70.39 1284.8 70.7 1283.76 70.88C1282.74 71.06 1281.58 71.15 1280.28 71.15ZM1287.81 54.89C1287.29 54.89 1286.85 54.71 1286.49 54.35C1286.13 53.99 1285.95 53.55 1285.95 53.03C1285.95 52.53 1286.13 52.1 1286.49 51.74C1286.85 51.36 1287.29 51.17 1287.81 51.17C1288.31 51.17 1288.74 51.36 1289.1 51.74C1289.46 52.1 1289.64 52.53 1289.64 53.03C1289.64 53.55 1289.46 53.99 1289.1 54.35C1288.74 54.71 1288.31 54.89 1287.81 54.89ZM1283.04 54.86C1282.52 54.86 1282.07 54.68 1281.69 54.32C1281.33 53.96 1281.15 53.53 1281.15 53.03C1281.15 52.53 1281.33 52.09 1281.69 51.71C1282.05 51.33 1282.5 51.14 1283.04 51.14C1283.54 51.14 1283.96 51.33 1284.3 51.71C1284.66 52.09 1284.84 52.53 1284.84 53.03C1284.84 53.53 1284.66 53.96 1284.3 54.32C1283.94 54.68 1283.52 54.86 1283.04 54.86ZM1292.07 77.9L1291.35 74.36C1292.67 74.18 1293.85 73.96 1294.89 73.7C1295.93 73.44 1296.81 73.07 1297.53 72.59C1298.27 72.11 1298.82 71.47 1299.18 70.67C1299.56 69.85 1299.75 68.81 1299.75 67.55C1299.75 67.05 1299.7 66.55 1299.6 66.05C1299.52 65.55 1299.38 65.1 1299.18 64.7C1299 64.3 1298.77 63.98 1298.49 63.74C1298.21 63.48 1297.88 63.35 1297.5 63.35C1297.1 63.35 1296.74 63.5 1296.42 63.8C1296.12 64.08 1295.88 64.44 1295.7 64.88C1295.52 65.3 1295.43 65.73 1295.43 66.17C1295.43 66.51 1295.5 66.8 1295.64 67.04C1295.8 67.26 1296.04 67.43 1296.36 67.55C1296.7 67.67 1297.12 67.73 1297.62 67.73C1298.14 67.73 1298.67 67.68 1299.21 67.58C1299.75 67.46 1300.23 67.3 1300.65 67.1L1300.77 69.92C1300.29 70.28 1299.73 70.58 1299.09 70.82C1298.47 71.06 1297.76 71.18 1296.96 71.18C1296.22 71.18 1295.54 71.1 1294.92 70.94C1294.32 70.76 1293.8 70.5 1293.36 70.16C1292.92 69.82 1292.57 69.38 1292.31 68.84C1292.07 68.3 1291.95 67.66 1291.95 66.92C1291.95 66.02 1292.09 65.14 1292.37 64.28C1292.67 63.42 1293.08 62.64 1293.6 61.94C1294.12 61.24 1294.73 60.69 1295.43 60.29C1296.15 59.87 1296.91 59.66 1297.71 59.66C1298.63 59.66 1299.44 59.89 1300.14 60.35C1300.84 60.81 1301.42 61.43 1301.88 62.21C1302.34 62.97 1302.69 63.81 1302.93 64.73C1303.17 65.65 1303.29 66.56 1303.29 67.46C1303.29 69.56 1302.85 71.35 1301.97 72.83C1301.09 74.33 1299.81 75.5 1298.13 76.34C1296.45 77.2 1294.43 77.72 1292.07 77.9ZM1328.93 71.15C1327.63 71.15 1326.5 70.98 1325.54 70.64C1324.6 70.28 1323.86 69.7 1323.32 68.9C1322.78 68.1 1322.48 67.01 1322.42 65.63L1321.88 54.17H1325.45L1325.93 64.52C1325.99 65.38 1326.14 66.04 1326.38 66.5C1326.64 66.94 1327 67.24 1327.46 67.4C1327.92 67.54 1328.51 67.61 1329.23 67.61C1329.85 67.61 1330.29 67.78 1330.55 68.12C1330.83 68.44 1330.97 68.84 1330.97 69.32C1330.97 69.82 1330.79 70.25 1330.43 70.61C1330.07 70.97 1329.57 71.15 1328.93 71.15ZM1323.8 68.18C1322.52 68.5 1321.29 68.65 1320.11 68.63C1318.93 68.61 1317.87 68.41 1316.93 68.03C1315.99 67.65 1315.24 67.11 1314.68 66.41C1314.14 65.69 1313.87 64.79 1313.87 63.71C1313.87 62.73 1314.1 61.83 1314.56 61.01C1315.02 60.19 1315.65 59.47 1316.45 58.85C1317.27 58.21 1318.22 57.68 1319.3 57.26C1320.38 56.82 1321.55 56.5 1322.81 56.3L1323.23 59.9C1322.31 59.94 1321.49 60.06 1320.77 60.26C1320.05 60.46 1319.44 60.73 1318.94 61.07C1318.44 61.39 1318.05 61.74 1317.77 62.12C1317.51 62.5 1317.38 62.9 1317.38 63.32C1317.38 63.7 1317.51 64.01 1317.77 64.25C1318.05 64.49 1318.41 64.68 1318.85 64.82C1319.29 64.96 1319.78 65.04 1320.32 65.06C1320.88 65.08 1321.43 65.06 1321.97 65C1322.53 64.92 1323.06 64.79 1323.56 64.61L1323.8 68.18ZM1323.59 50.96C1323.07 50.96 1322.63 50.78 1322.27 50.42C1321.91 50.04 1321.73 49.6 1321.73 49.1C1321.73 48.6 1321.91 48.16 1322.27 47.78C1322.63 47.4 1323.07 47.21 1323.59 47.21C1324.09 47.21 1324.52 47.4 1324.88 47.78C1325.24 48.16 1325.42 48.6 1325.42 49.1C1325.42 49.6 1325.24 50.04 1324.88 50.42C1324.52 50.78 1324.09 50.96 1323.59 50.96ZM1318.82 50.93C1318.3 50.93 1317.85 50.75 1317.47 50.39C1317.11 50.03 1316.93 49.6 1316.93 49.1C1316.93 48.6 1317.11 48.16 1317.47 47.78C1317.83 47.4 1318.28 47.21 1318.82 47.21C1319.32 47.21 1319.75 47.4 1320.11 47.78C1320.47 48.16 1320.65 48.6 1320.65 49.1C1320.65 49.6 1320.47 50.03 1320.11 50.39C1319.75 50.75 1319.32 50.93 1318.82 50.93ZM1348.38 71.15C1347.48 71.15 1346.65 71.09 1345.89 70.97C1345.13 70.83 1344.44 70.6 1343.82 70.28C1343.2 69.94 1342.66 69.47 1342.2 68.87C1341.74 68.27 1341.37 67.5 1341.09 66.56L1343.22 64.97C1343.54 65.67 1343.93 66.21 1344.39 66.59C1344.87 66.97 1345.45 67.24 1346.13 67.4C1346.83 67.54 1347.68 67.61 1348.68 67.61C1349.3 67.61 1349.74 67.78 1350 68.12C1350.28 68.44 1350.42 68.84 1350.42 69.32C1350.42 69.82 1350.24 70.25 1349.88 70.61C1349.52 70.97 1349.02 71.15 1348.38 71.15ZM1328.94 71.15L1329.24 67.61C1330.3 67.61 1331.35 67.54 1332.39 67.4C1333.43 67.26 1334.44 67.06 1335.42 66.8C1336.4 66.54 1337.34 66.21 1338.24 65.81C1339.14 65.41 1339.99 64.94 1340.79 64.4C1340.23 64 1339.6 63.66 1338.9 63.38C1338.22 63.08 1337.48 62.86 1336.68 62.72C1335.88 62.56 1335.03 62.48 1334.13 62.48C1333.81 62.48 1333.49 62.49 1333.17 62.51C1332.85 62.53 1332.52 62.57 1332.18 62.63C1331.86 62.67 1331.52 62.73 1331.16 62.81L1330.62 59.39C1331.18 59.23 1331.76 59.11 1332.36 59.03C1332.98 58.95 1333.54 58.91 1334.04 58.91C1335.1 58.91 1336.07 59.03 1336.95 59.27C1337.83 59.51 1338.64 59.81 1339.38 60.17C1340.12 60.53 1340.81 60.89 1341.45 61.25C1342.11 61.61 1342.74 61.92 1343.34 62.18C1343.94 62.42 1344.54 62.54 1345.14 62.54H1346.07L1346.43 65.84C1345.57 65.86 1344.77 66.01 1344.03 66.29C1343.29 66.55 1342.56 66.89 1341.84 67.31C1341.14 67.71 1340.39 68.13 1339.59 68.57C1338.79 69.01 1337.89 69.43 1336.89 69.83C1335.89 70.21 1334.74 70.53 1333.44 70.79C1332.14 71.03 1330.64 71.15 1328.94 71.15ZM1348.39 71.15L1348.69 67.61C1349.75 67.61 1350.8 67.54 1351.84 67.4C1352.88 67.26 1353.89 67.06 1354.87 66.8C1355.85 66.54 1356.79 66.21 1357.69 65.81C1358.59 65.41 1359.44 64.94 1360.24 64.4C1359.68 64 1359.05 63.66 1358.35 63.38C1357.67 63.08 1356.93 62.86 1356.13 62.72C1355.33 62.56 1354.48 62.48 1353.58 62.48C1353.26 62.48 1352.94 62.49 1352.62 62.51C1352.3 62.53 1351.97 62.57 1351.63 62.63C1351.31 62.67 1350.97 62.73 1350.61 62.81L1350.07 59.39C1350.63 59.23 1351.21 59.11 1351.81 59.03C1352.43 58.95 1352.99 58.91 1353.49 58.91C1354.55 58.91 1355.52 59.03 1356.4 59.27C1357.28 59.51 1358.09 59.81 1358.83 60.17C1359.57 60.53 1360.26 60.89 1360.9 61.25C1361.56 61.61 1362.19 61.92 1362.79 62.18C1363.39 62.42 1363.99 62.54 1364.59 62.54H1365.52L1365.88 65.84C1365.02 65.86 1364.22 66.01 1363.48 66.29C1362.74 66.55 1362.01 66.89 1361.29 67.31C1360.59 67.71 1359.84 68.13 1359.04 68.57C1358.24 69.01 1357.34 69.43 1356.34 69.83C1355.34 70.21 1354.19 70.53 1352.89 70.79C1351.59 71.03 1350.09 71.15 1348.39 71.15ZM1357.15 77.48C1356.63 77.48 1356.19 77.3 1355.83 76.94C1355.47 76.58 1355.29 76.15 1355.29 75.65C1355.29 75.13 1355.47 74.68 1355.83 74.3C1356.19 73.92 1356.63 73.73 1357.15 73.73C1357.67 73.73 1358.11 73.92 1358.47 74.3C1358.85 74.68 1359.04 75.13 1359.04 75.65C1359.04 76.15 1358.85 76.58 1358.47 76.94C1358.11 77.3 1357.67 77.48 1357.15 77.48ZM1376.03 71.15C1374.27 71.15 1372.91 70.97 1371.95 70.61C1371.01 70.23 1370.35 69.65 1369.97 68.87C1369.61 68.07 1369.41 67.05 1369.37 65.81L1368.74 49.25H1372.28L1372.91 64.22C1372.95 65.16 1373.04 65.87 1373.18 66.35C1373.34 66.83 1373.66 67.16 1374.14 67.34C1374.62 67.52 1375.35 67.61 1376.33 67.61C1376.97 67.61 1377.43 67.78 1377.71 68.12C1377.99 68.44 1378.13 68.84 1378.13 69.32C1378.13 69.82 1377.94 70.25 1377.56 70.61C1377.2 70.97 1376.69 71.15 1376.03 71.15ZM1376.05 71.15L1376.35 67.61C1377.27 67.61 1378 67.55 1378.54 67.43C1379.08 67.31 1379.46 67.08 1379.68 66.74C1379.92 66.38 1380.04 65.87 1380.04 65.21C1380.04 64.67 1379.96 64.03 1379.8 63.29C1379.66 62.55 1379.46 61.77 1379.2 60.95C1378.96 60.13 1378.71 59.36 1378.45 58.64L1381.93 57.59C1382.19 58.25 1382.43 59.02 1382.65 59.9C1382.89 60.76 1383.09 61.64 1383.25 62.54C1383.43 63.42 1383.52 64.25 1383.52 65.03C1383.52 66.01 1383.4 66.85 1383.16 67.55C1382.92 68.25 1382.58 68.84 1382.14 69.32C1381.72 69.78 1381.2 70.15 1380.58 70.43C1379.96 70.69 1379.27 70.88 1378.51 71C1377.75 71.1 1376.93 71.15 1376.05 71.15ZM1380.19 54.86C1379.65 54.86 1379.19 54.68 1378.81 54.32C1378.43 53.94 1378.24 53.48 1378.24 52.94C1378.24 52.4 1378.43 51.94 1378.81 51.56C1379.19 51.16 1379.65 50.96 1380.19 50.96C1380.71 50.96 1381.16 51.16 1381.54 51.56C1381.92 51.94 1382.11 52.4 1382.11 52.94C1382.11 53.48 1381.92 53.94 1381.54 54.32C1381.16 54.68 1380.71 54.86 1380.19 54.86ZM1405.69 71.63L1406.47 68.09C1408.55 68.09 1410.36 68.03 1411.9 67.91C1413.44 67.79 1414.71 67.61 1415.71 67.37C1416.71 67.13 1417.45 66.81 1417.93 66.41C1418.43 65.99 1418.68 65.48 1418.68 64.88C1418.68 64.14 1418.55 63.27 1418.29 62.27C1418.05 61.27 1417.73 60.23 1417.33 59.15L1420.63 58.13C1420.89 58.79 1421.14 59.51 1421.38 60.29C1421.62 61.07 1421.81 61.85 1421.95 62.63C1422.11 63.39 1422.19 64.1 1422.19 64.76C1422.19 65.98 1421.92 67.03 1421.38 67.91C1420.84 68.77 1419.94 69.48 1418.68 70.04C1417.44 70.58 1415.76 70.98 1413.64 71.24C1411.52 71.5 1408.87 71.63 1405.69 71.63ZM1405.66 71.63C1403.64 71.63 1401.91 71.48 1400.47 71.18C1399.05 70.9 1397.88 70.48 1396.96 69.92C1396.04 69.36 1395.36 68.68 1394.92 67.88C1394.48 67.08 1394.26 66.16 1394.26 65.12C1394.26 64.54 1394.31 63.95 1394.41 63.35C1394.51 62.73 1394.64 62.13 1394.8 61.55C1394.96 60.95 1395.11 60.4 1395.25 59.9L1398.43 60.68C1398.35 61.02 1398.26 61.4 1398.16 61.82C1398.06 62.22 1397.97 62.62 1397.89 63.02C1397.83 63.42 1397.8 63.79 1397.8 64.13C1397.8 64.97 1398.06 65.69 1398.58 66.29C1399.12 66.89 1400.02 67.34 1401.28 67.64C1402.54 67.94 1404.26 68.09 1406.44 68.09L1407.04 70.67L1405.66 71.63ZM1410.64 58.31C1410.12 58.31 1409.68 58.13 1409.32 57.77C1408.96 57.39 1408.78 56.95 1408.78 56.45C1408.78 55.95 1408.96 55.51 1409.32 55.13C1409.68 54.75 1410.12 54.56 1410.64 54.56C1411.14 54.56 1411.57 54.75 1411.93 55.13C1412.29 55.51 1412.47 55.95 1412.47 56.45C1412.47 56.95 1412.29 57.39 1411.93 57.77C1411.57 58.13 1411.14 58.31 1410.64 58.31ZM1405.87 58.28C1405.35 58.28 1404.9 58.1 1404.52 57.74C1404.16 57.38 1403.98 56.95 1403.98 56.45C1403.98 55.95 1404.16 55.51 1404.52 55.13C1404.88 54.75 1405.33 54.56 1405.87 54.56C1406.37 54.56 1406.8 54.75 1407.16 55.13C1407.52 55.51 1407.7 55.95 1407.7 56.45C1407.7 56.95 1407.52 57.38 1407.16 57.74C1406.8 58.1 1406.37 58.28 1405.87 58.28ZM1426.24 71L1425.61 49.25H1429.15L1429.75 71H1426.24ZM1437.99 67.61C1438.93 67.61 1439.66 67.52 1440.18 67.34C1440.7 67.16 1441.06 66.92 1441.26 66.62C1441.48 66.3 1441.59 65.95 1441.59 65.57C1441.59 65.13 1441.47 64.61 1441.23 64.01C1440.99 63.39 1440.67 62.73 1440.27 62.03C1439.89 61.33 1439.48 60.64 1439.04 59.96C1438.6 59.26 1438.17 58.61 1437.75 58.01L1440.75 56.03C1441.57 57.19 1442.28 58.32 1442.88 59.42C1443.5 60.52 1444 61.55 1444.38 62.51C1444.78 63.45 1445.08 64.28 1445.28 65C1445.48 65.72 1445.75 66.27 1446.09 66.65C1446.43 67.03 1446.81 67.29 1447.23 67.43C1447.65 67.55 1448.05 67.61 1448.43 67.61C1449.07 67.61 1449.53 67.78 1449.81 68.12C1450.09 68.44 1450.23 68.84 1450.23 69.32C1450.23 69.82 1450.05 70.25 1449.69 70.61C1449.33 70.97 1448.82 71.15 1448.16 71.15C1447.36 71.15 1446.63 71.03 1445.97 70.79C1445.33 70.55 1444.78 70.16 1444.32 69.62C1443.86 69.08 1443.5 68.38 1443.24 67.52L1444.83 67.4C1444.73 68.04 1444.43 68.65 1443.93 69.23C1443.45 69.81 1442.75 70.28 1441.83 70.64C1440.93 71 1439.77 71.18 1438.35 71.18C1437.71 71.18 1437.03 71.12 1436.31 71C1435.61 70.9 1434.93 70.75 1434.27 70.55C1433.63 70.33 1433.05 70.06 1432.53 69.74L1433.91 66.59C1434.51 66.89 1435.16 67.14 1435.86 67.34C1436.56 67.52 1437.27 67.61 1437.99 67.61ZM1448.15 71.15L1448.45 67.61C1449.37 67.61 1450.1 67.55 1450.64 67.43C1451.18 67.31 1451.56 67.08 1451.78 66.74C1452.02 66.38 1452.14 65.87 1452.14 65.21C1452.14 64.67 1452.06 64.03 1451.9 63.29C1451.76 62.55 1451.56 61.77 1451.3 60.95C1451.06 60.13 1450.81 59.36 1450.55 58.64L1454.03 57.59C1454.29 58.25 1454.53 59.02 1454.75 59.9C1454.99 60.76 1455.19 61.64 1455.35 62.54C1455.53 63.42 1455.62 64.25 1455.62 65.03C1455.62 66.01 1455.5 66.85 1455.26 67.55C1455.02 68.25 1454.68 68.84 1454.24 69.32C1453.82 69.78 1453.3 70.15 1452.68 70.43C1452.06 70.69 1451.37 70.88 1450.61 71C1449.85 71.1 1449.03 71.15 1448.15 71.15ZM1452.29 54.86C1451.75 54.86 1451.29 54.68 1450.91 54.32C1450.53 53.94 1450.34 53.48 1450.34 52.94C1450.34 52.4 1450.53 51.94 1450.91 51.56C1451.29 51.16 1451.75 50.96 1452.29 50.96C1452.81 50.96 1453.26 51.16 1453.64 51.56C1454.02 51.94 1454.21 52.4 1454.21 52.94C1454.21 53.48 1454.02 53.94 1453.64 54.32C1453.26 54.68 1452.81 54.86 1452.29 54.86ZM1459.66 71L1459.03 49.25H1462.57L1463.17 71H1459.66ZM1464.47 77.93L1463.21 74.75C1464.41 74.35 1465.47 73.88 1466.39 73.34C1467.31 72.82 1468.08 72.24 1468.7 71.6C1469.34 70.98 1469.81 70.32 1470.11 69.62C1470.43 68.92 1470.59 68.19 1470.59 67.43C1470.59 66.55 1470.39 65.61 1469.99 64.61C1469.61 63.59 1469.15 62.59 1468.61 61.61L1471.88 60.02C1472.24 60.66 1472.56 61.33 1472.84 62.03C1473.12 62.73 1473.36 63.37 1473.56 63.95C1473.76 64.51 1473.91 64.95 1474.01 65.27C1474.29 66.19 1474.66 66.81 1475.12 67.13C1475.6 67.45 1476.33 67.61 1477.31 67.61C1477.95 67.61 1478.4 67.78 1478.66 68.12C1478.94 68.44 1479.08 68.84 1479.08 69.32C1479.08 69.82 1478.9 70.25 1478.54 70.61C1478.18 70.97 1477.67 71.15 1477.01 71.15C1476.17 71.15 1475.45 71.02 1474.85 70.76C1474.27 70.48 1473.81 70.1 1473.47 69.62C1473.13 69.14 1472.91 68.61 1472.81 68.03L1473.86 68.6C1473.78 69.76 1473.45 70.84 1472.87 71.84C1472.31 72.86 1471.57 73.77 1470.65 74.57C1469.75 75.37 1468.76 76.05 1467.68 76.61C1466.6 77.19 1465.53 77.63 1464.47 77.93ZM1477.04 71.15L1477.34 67.61C1478.26 67.61 1478.99 67.55 1479.53 67.43C1480.07 67.31 1480.45 67.08 1480.67 66.74C1480.91 66.38 1481.03 65.87 1481.03 65.21C1481.03 64.67 1480.95 64.03 1480.79 63.29C1480.65 62.55 1480.45 61.77 1480.19 60.95C1479.95 60.13 1479.7 59.36 1479.44 58.64L1482.92 57.59C1483.18 58.25 1483.42 59.02 1483.64 59.9C1483.88 60.76 1484.08 61.64 1484.24 62.54C1484.42 63.42 1484.51 64.25 1484.51 65.03C1484.51 66.01 1484.39 66.85 1484.15 67.55C1483.91 68.25 1483.57 68.84 1483.13 69.32C1482.71 69.78 1482.19 70.15 1481.57 70.43C1480.95 70.69 1480.26 70.88 1479.5 71C1478.74 71.1 1477.92 71.15 1477.04 71.15ZM1480.55 77.54C1480.03 77.54 1479.59 77.36 1479.23 77C1478.87 76.64 1478.69 76.21 1478.69 75.71C1478.69 75.19 1478.87 74.74 1479.23 74.36C1479.59 73.98 1480.03 73.79 1480.55 73.79C1481.07 73.79 1481.51 73.98 1481.87 74.36C1482.25 74.74 1482.44 75.19 1482.44 75.71C1482.44 76.21 1482.25 76.64 1481.87 77C1481.51 77.36 1481.07 77.54 1480.55 77.54Z" fill="black"/>
<path d="M102.973 477V479.28H93.0429V498H90.5229V479.28H80.6229V477H102.973ZM126.915 477H129.435V498H126.915V488.55H109.635V498H107.115V477H109.635V486.15H126.915V477ZM138.902 498H136.382V477H138.902V498ZM168.675 498H165.375L158.415 489.96H148.425V498H145.875V477H159.975C164.655 477 168.015 479.34 168.015 483.48C168.015 487.14 165.375 489.42 161.505 489.87L168.675 498ZM148.395 487.62H159.795C163.185 487.62 165.435 486.33 165.435 483.48C165.435 480.63 163.185 479.34 159.795 479.34H148.395V487.62ZM183.819 477C191.499 477 196.419 481.05 196.419 487.5C196.419 493.95 191.499 498 183.819 498H173.619V477H183.819ZM183.639 495.66C189.609 495.66 193.839 492.87 193.839 487.5C193.839 482.13 189.609 479.34 183.639 479.34H176.139V495.66H183.639ZM213.961 495.66H231.751V498H211.441V477H231.451V479.34H213.961V486.15H228.781V488.49H213.961V495.66ZM247.129 477C254.809 477 259.729 481.05 259.729 487.5C259.729 493.95 254.809 498 247.129 498H236.929V477H247.129ZM246.949 495.66C252.919 495.66 257.149 492.87 257.149 487.5C257.149 482.13 252.919 479.34 246.949 479.34H239.449V495.66H246.949ZM267.662 498H265.142V477H267.662V498ZM294.164 477V479.28H284.234V498H281.714V479.28H271.814V477H294.164ZM300.826 498H298.306V477H300.826V498ZM319.018 498.63C311.038 498.63 306.238 494.34 306.238 487.5C306.238 480.66 311.038 476.37 319.018 476.37C326.998 476.37 331.798 480.66 331.798 487.5C331.798 494.34 326.998 498.63 319.018 498.63ZM319.018 496.29C325.198 496.29 329.218 493.14 329.218 487.5C329.218 481.86 325.198 478.71 319.018 478.71C312.838 478.71 308.818 481.86 308.818 487.5C308.818 493.14 312.838 496.29 319.018 496.29ZM357.072 477H359.532V498H357.312L339.672 480.21V498H337.212V477H339.942L357.072 494.31V477Z" fill="#FF0000"/>
<path d="M1212.29 619.1L1214.89 605.1C1221.36 605.1 1226.99 604.933 1231.79 604.6C1236.59 604.2 1240.56 603.633 1243.69 602.9C1246.89 602.1 1249.26 601.067 1250.79 599.8C1252.39 598.533 1253.19 597 1253.19 595.2C1253.19 592.8 1252.79 589.933 1251.99 586.6C1251.19 583.2 1250.16 579.767 1248.89 576.3L1261.99 572.5C1262.86 574.767 1263.69 577.267 1264.49 580C1265.29 582.667 1265.92 585.367 1266.39 588.1C1266.92 590.767 1267.19 593.267 1267.19 595.6C1267.19 599.733 1266.29 603.3 1264.49 606.3C1262.69 609.233 1259.69 611.667 1255.49 613.6C1251.36 615.467 1245.76 616.833 1238.69 617.7C1231.62 618.633 1222.82 619.1 1212.29 619.1ZM1212.19 619.1C1204.99 619.1 1198.89 618.533 1193.89 617.4C1188.96 616.333 1184.92 614.8 1181.79 612.8C1178.72 610.733 1176.49 608.333 1175.09 605.6C1173.69 602.867 1172.99 599.867 1172.99 596.6C1172.99 594.467 1173.16 592.333 1173.49 590.2C1173.89 588 1174.36 585.867 1174.89 583.8C1175.49 581.733 1176.02 579.867 1176.49 578.2L1188.99 581.1C1188.72 582.3 1188.42 583.6 1188.09 585C1187.76 586.4 1187.49 587.767 1187.29 589.1C1187.09 590.367 1186.99 591.533 1186.99 592.6C1186.99 595.067 1187.86 597.267 1189.59 599.2C1191.39 601.067 1194.32 602.533 1198.39 603.6C1202.46 604.6 1207.92 605.1 1214.79 605.1L1216.79 615.9L1212.19 619.1ZM1228.69 573.4C1226.76 573.4 1225.09 572.733 1223.69 571.4C1222.36 570 1221.69 568.367 1221.69 566.5C1221.69 564.567 1222.36 562.9 1223.69 561.5C1225.09 560.1 1226.76 559.4 1228.69 559.4C1230.56 559.4 1232.16 560.1 1233.49 561.5C1234.82 562.9 1235.49 564.567 1235.49 566.5C1235.49 568.367 1234.82 570 1233.49 571.4C1232.16 572.733 1230.56 573.4 1228.69 573.4ZM1211.39 573.3C1209.46 573.3 1207.79 572.633 1206.39 571.3C1205.06 569.9 1204.39 568.267 1204.39 566.4C1204.39 564.467 1205.06 562.8 1206.39 561.4C1207.79 560 1209.46 559.3 1211.39 559.3C1213.26 559.3 1214.86 560 1216.19 561.4C1217.52 562.8 1218.19 564.467 1218.19 566.4C1218.19 568.267 1217.52 569.9 1216.19 571.3C1214.86 572.633 1213.26 573.3 1211.39 573.3ZM1303.93 617.5C1297.73 617.5 1292.93 616.867 1289.53 615.6C1286.2 614.333 1283.86 612.367 1282.53 609.7C1281.2 606.967 1280.43 603.533 1280.23 599.4L1278.13 543.8H1292.13L1294.23 592.7C1294.36 595.767 1294.7 598.067 1295.23 599.6C1295.76 601.133 1296.76 602.167 1298.23 602.7C1299.76 603.233 1302 603.5 1304.93 603.5C1307.46 603.5 1309.26 604.167 1310.33 605.5C1311.46 606.767 1312.03 608.367 1312.03 610.3C1312.03 612.367 1311.33 614.1 1309.93 615.5C1308.53 616.833 1306.53 617.5 1303.93 617.5ZM1304.07 617.5L1305.07 603.5C1306.6 603.5 1307.9 603.133 1308.97 602.4C1310.1 601.6 1311.27 600.3 1312.47 598.5C1313.67 596.633 1315.07 594.133 1316.67 591C1318.67 587 1320.73 583.867 1322.87 581.6C1325.07 579.333 1327.3 577.733 1329.57 576.8C1331.9 575.8 1334.23 575.3 1336.57 575.3C1339.5 575.3 1342.23 575.933 1344.77 577.2C1347.3 578.467 1349.5 580.2 1351.37 582.4C1353.23 584.533 1354.67 587 1355.67 589.8C1356.73 592.533 1357.27 595.367 1357.27 598.3C1357.27 601.833 1356.5 605.033 1354.97 607.9C1353.5 610.7 1351.43 612.933 1348.77 614.6C1346.17 616.2 1343.17 617 1339.77 617C1336.9 617 1333.57 616.5 1329.77 615.5C1325.97 614.5 1321.97 612.4 1317.77 609.2L1322.87 597.1C1325.87 599.167 1328.67 600.667 1331.27 601.6C1333.93 602.533 1336.13 603 1337.87 603C1339.2 603 1340.3 602.867 1341.17 602.6C1342.03 602.333 1342.67 601.9 1343.07 601.3C1343.47 600.7 1343.67 599.9 1343.67 598.9C1343.67 597.5 1343.33 596.067 1342.67 594.6C1342 593.133 1341.1 591.9 1339.97 590.9C1338.9 589.833 1337.63 589.3 1336.17 589.3C1334.77 589.3 1333.57 589.833 1332.57 590.9C1331.63 591.9 1330.7 593.367 1329.77 595.3C1328.9 597.167 1327.83 599.367 1326.57 601.9C1325.03 604.967 1323.53 607.533 1322.07 609.6C1320.6 611.6 1319.03 613.2 1317.37 614.4C1315.77 615.533 1313.87 616.333 1311.67 616.8C1309.53 617.267 1307 617.5 1304.07 617.5ZM1430.27 617.5C1425.6 617.5 1421.74 617.167 1418.67 616.5C1415.67 615.767 1413.3 614.667 1411.57 613.2C1409.84 611.667 1408.6 609.767 1407.87 607.5C1407.14 605.233 1406.7 602.533 1406.57 599.4L1404.47 543.8H1418.47L1420.57 592.7C1420.7 595.767 1421.04 598.067 1421.57 599.6C1422.1 601.133 1423.1 602.167 1424.57 602.7C1426.1 603.233 1428.34 603.5 1431.27 603.5C1433.8 603.5 1435.6 604.167 1436.67 605.5C1437.8 606.767 1438.37 608.367 1438.37 610.3C1438.37 612.367 1437.67 614.1 1436.27 615.5C1434.87 616.833 1432.87 617.5 1430.27 617.5ZM1376.47 617.5C1374.67 617.5 1372.84 617.333 1370.97 617C1369.17 616.733 1367.9 616.533 1367.17 616.4L1369.07 601.9C1373.67 602.5 1378.14 602.633 1382.47 602.3C1386.87 601.9 1390.8 600.833 1394.27 599.1C1397.8 597.3 1400.6 594.7 1402.67 591.3C1404.74 587.833 1405.77 583.367 1405.77 577.9L1411.17 593.6C1410.37 598.133 1409 601.9 1407.07 604.9C1405.2 607.833 1402.97 610.167 1400.37 611.9C1397.84 613.567 1395.14 614.8 1392.27 615.6C1389.4 616.4 1386.6 616.9 1383.87 617.1C1381.14 617.367 1378.67 617.5 1376.47 617.5ZM1398.17 603.8C1397.17 601.867 1395.74 599.6 1393.87 597C1392 594.333 1389.7 591.4 1386.97 588.2C1384.3 584.933 1381.24 581.5 1377.77 577.9C1374.3 574.233 1370.47 570.467 1366.27 566.6L1374.97 557.1C1381.17 562.967 1386.2 567.9 1390.07 571.9C1393.94 575.9 1397 579.267 1399.27 582C1401.6 584.667 1403.37 586.967 1404.57 588.9C1405.84 590.833 1406.9 592.7 1407.77 594.5L1398.17 603.8ZM1430.34 617.5L1431.34 603.5C1434.47 603.5 1436.87 603.467 1438.54 603.4C1440.27 603.333 1441.57 603.267 1442.44 603.2C1443.3 603.067 1444.04 602.967 1444.64 602.9C1443.97 602.233 1443.1 601.267 1442.04 600C1440.97 598.733 1440 597.1 1439.14 595.1C1438.34 593.1 1437.94 590.7 1437.94 587.9C1437.94 583.833 1438.97 580.267 1441.04 577.2C1443.17 574.133 1446.04 571.733 1449.64 570C1453.24 568.267 1457.27 567.4 1461.74 567.4C1463.87 567.4 1465.84 567.533 1467.64 567.8C1469.5 568.067 1471.37 568.467 1473.24 569L1471.04 582.3C1469.7 581.967 1468.3 581.7 1466.84 581.5C1465.37 581.3 1464.07 581.2 1462.94 581.2C1460.74 581.2 1458.8 581.567 1457.14 582.3C1455.54 582.967 1454.27 583.933 1453.34 585.2C1452.47 586.4 1452.04 587.867 1452.04 589.6C1452.04 590.733 1452.24 591.8 1452.64 592.8C1453.1 593.8 1453.67 594.7 1454.34 595.5C1455 596.3 1455.74 597 1456.54 597.6C1457.34 598.2 1458.1 598.7 1458.84 599.1C1459.64 599.433 1460.3 599.667 1460.84 599.8C1462.5 599.333 1463.94 598.933 1465.14 598.6C1466.4 598.2 1467.6 597.833 1468.74 597.5C1469.94 597.1 1471.24 596.6 1472.64 596C1474.04 595.4 1475.77 594.667 1477.84 593.8L1482.34 607C1476.74 609.733 1471.27 611.867 1465.94 613.4C1460.6 614.933 1455.07 616 1449.34 616.6C1443.6 617.2 1437.27 617.5 1430.34 617.5Z" fill="black"/>
<path d="M1050.98 592V567.55C1048.08 569.45 1044.38 570.5 1040.53 571.15V563.05C1045.13 562.4 1050.18 559.9 1053.48 557H1061.18V592H1050.98ZM1089.15 593.15C1075.75 593.15 1067.35 586.3 1067.35 574.5C1067.35 562.7 1075.75 555.85 1089.15 555.85C1102.6 555.85 1111 562.7 1111 574.5C1111 586.3 1102.6 593.15 1089.15 593.15ZM1089.2 584.85C1096.35 584.85 1100.65 581.2 1100.65 574.5C1100.65 567.8 1096.35 564.15 1089.2 564.15C1082 564.15 1077.7 567.8 1077.7 574.5C1077.7 581.2 1082 584.85 1089.2 584.85ZM1121.21 580.45C1123.96 583.65 1128.06 585.5 1133.31 585.5C1137.61 585.5 1142.11 584.45 1142.11 581.2C1142.11 577.9 1137.86 577.35 1132.96 577.35H1127.41V570.55H1132.96C1137.11 570.55 1141.11 569.7 1141.11 567.05C1141.11 564.3 1136.91 563.5 1133.11 563.5C1127.91 563.5 1124.06 565.4 1121.46 568.45L1114.86 563.75C1118.61 559 1125.26 555.95 1133.46 555.95C1142.76 555.95 1151.51 558.95 1151.51 565.75C1151.51 569.85 1148.21 573.25 1143.26 573.85C1148.21 574.65 1152.86 577.1 1152.86 582.25C1152.86 589.25 1144.41 593.05 1133.71 593.05C1125.21 593.05 1118.26 589.9 1114.26 585L1121.21 580.45Z" fill="black"/>
<path d="M1350.83 721.32C1353.11 717.28 1358.27 714.2 1364.63 714.2C1371.07 714.2 1377.59 717.16 1377.59 722.64C1377.59 727.44 1372.91 729.68 1366.23 732C1359.95 734.2 1355.27 736.72 1354.31 740.04H1378.23V743H1350.03V741.36C1350.95 736.52 1356.23 732.4 1364.43 729.4C1370.03 727.36 1374.15 725.8 1374.15 722.68C1374.15 718.92 1369.35 717.16 1364.51 717.16C1359.75 717.16 1356.07 719.12 1353.39 723L1350.83 721.32ZM1399.41 743.84C1389.17 743.84 1383.17 738.08 1383.17 729C1383.17 719.92 1389.17 714.16 1399.41 714.16C1409.69 714.16 1415.65 719.92 1415.65 729C1415.65 738.08 1409.69 743.84 1399.41 743.84ZM1399.41 740.72C1407.25 740.72 1412.21 736.72 1412.21 729C1412.21 721.28 1407.25 717.28 1399.41 717.28C1391.53 717.28 1386.61 721.28 1386.61 729C1386.61 736.72 1391.53 740.72 1399.41 740.72ZM1420.99 721.32C1423.27 717.28 1428.43 714.2 1434.79 714.2C1441.23 714.2 1447.75 717.16 1447.75 722.64C1447.75 727.44 1443.07 729.68 1436.39 732C1430.11 734.2 1425.43 736.72 1424.47 740.04H1448.39V743H1420.19V741.36C1421.11 736.52 1426.39 732.4 1434.59 729.4C1440.19 727.36 1444.31 725.8 1444.31 722.68C1444.31 718.92 1439.51 717.16 1434.67 717.16C1429.91 717.16 1426.23 719.12 1423.55 723L1420.99 721.32ZM1471.25 725.24C1477.61 725.24 1483.77 728.08 1483.77 734.32C1483.77 739.92 1478.25 743.84 1469.49 743.84C1459.33 743.84 1453.33 738 1453.33 729C1453.33 720 1459.33 714.16 1469.49 714.16C1475.41 714.16 1479.77 715.96 1482.65 719.16L1480.01 721.12C1477.37 718.2 1473.69 717.04 1469.65 717.04C1462.05 717.04 1456.77 720.76 1456.77 729C1456.77 729.68 1456.81 730.36 1456.89 731C1459.89 727.52 1464.85 725.24 1471.25 725.24ZM1469.49 740.96C1476.01 740.96 1480.33 738.6 1480.33 734.32C1480.33 729.88 1475.89 728.08 1470.53 728.08C1465.69 728.08 1460.45 730.16 1457.49 733.76C1459.13 738.68 1463.57 740.96 1469.49 740.96Z" fill="black"/>
</svg>
