<svg width="3581" height="1864" viewBox="0 0 3581 1864" fill="none" xmlns="http://www.w3.org/2000/svg">
<path d="M553.488 565.599V0H766.861C799.982 0 829.575 2.98868 855.543 9.01507C881.51 14.9925 903.95 24.0076 922.813 36.0114C941.676 48.0152 956.08 63.3017 966.075 81.8708C976.07 100.44 981.068 121.998 981.068 146.593C981.068 168.298 976.658 187.749 967.79 204.848C958.922 221.997 944.518 236.254 924.528 247.719C904.538 259.135 878.521 266.876 846.527 270.845V281.134C900.814 284.563 940.353 298.135 965.242 321.849C990.083 345.562 1002.53 377.115 1002.53 416.556C1002.53 449.138 994.835 476.281 979.402 497.986C963.969 519.691 940.255 536.398 908.261 548.108C876.267 559.818 836.287 565.697 788.272 565.697H553.439L553.488 565.599ZM643.443 244.191H742.021C760.884 244.191 778.718 243.064 795.573 240.762C812.427 238.508 828.007 234.196 842.265 227.925C856.522 221.654 867.84 213.08 876.12 202.203C884.401 191.375 888.565 177.068 888.565 159.332C888.565 143.36 884.842 129.641 877.443 118.176C869.996 106.76 860.001 98.1861 847.458 92.4537C834.867 86.7702 820.903 82.6057 805.47 80.0089C790.036 77.4122 773.77 76.1384 756.621 76.1384H643.492V244.093L643.443 244.191ZM643.443 488.432H788.272C804.245 488.432 819.237 487.305 833.25 485.002C847.262 482.748 860.099 478.437 871.809 472.165C883.519 465.894 892.828 457.32 899.638 446.443C906.497 435.615 909.927 422.141 909.927 406.169C909.927 390.197 907.232 376.772 901.794 365.895C896.355 355.067 888.516 345.905 878.227 338.458C867.938 331.06 856.081 325.18 842.657 320.869C829.232 316.557 814.779 313.715 799.394 312.295C783.961 310.874 768.233 310.139 752.261 310.139H643.443V488.383V488.432Z" fill="white"/>
<path d="M1095.08 565.597V338.505L1094.25 119.987H1175.68L1169.7 291.372H1182.53C1187.68 250.216 1195.52 216.556 1206.1 190.246C1216.68 163.985 1231.09 143.995 1249.36 130.276C1267.64 116.558 1289.64 109.698 1315.36 109.698C1322.22 109.698 1329.52 110.433 1337.21 111.854C1344.9 113.275 1353.63 115.725 1363.33 119.154L1359.06 216.85C1348.78 214.009 1339.07 211.559 1329.91 209.55C1320.75 207.541 1312.18 206.562 1304.19 206.562C1281.31 206.562 1262.05 213.568 1246.33 227.58C1230.6 241.593 1217.76 260.995 1207.77 285.835C1197.77 310.676 1191.06 339.975 1187.63 373.684V565.646H1095.08V565.597Z" fill="white"/>
<path d="M1524.42 577.552C1501.54 577.552 1480.28 572.702 1460.58 563.001C1440.89 553.299 1425.16 539.581 1413.45 521.845C1401.74 504.158 1395.86 481.277 1395.86 453.301C1395.86 425.324 1401.84 402.444 1413.84 384.757C1425.84 367.069 1441.82 353.057 1461.81 342.768C1481.8 332.479 1503.35 325.081 1526.53 320.475C1549.66 315.918 1573.22 311.362 1597.23 306.756C1621.24 303.915 1640.2 300.779 1654.21 297.349C1668.22 293.92 1678.07 289.216 1683.75 283.19C1689.44 277.212 1692.33 269.03 1692.33 258.79C1692.33 243.945 1688.9 231.108 1682.04 220.231C1675.18 209.403 1665.19 200.682 1652.05 194.068C1638.92 187.502 1623.2 184.22 1604.92 184.22C1588.36 184.22 1572.19 187.061 1556.51 192.794C1540.79 198.526 1527.22 208.08 1515.8 221.505C1504.38 234.93 1497.23 252.764 1494.39 275.057L1410.41 253.646C1413.84 229.099 1421.24 207.786 1432.7 189.805C1444.12 171.824 1458.43 156.831 1475.57 144.828C1492.72 132.824 1512.57 123.956 1535.15 118.272C1557.74 112.589 1580.72 109.698 1604.14 109.698C1637.85 109.698 1666.26 114.255 1689.39 123.417C1712.51 132.579 1730.94 145.269 1744.66 161.535C1758.37 177.801 1768.22 197.105 1774.2 219.398C1780.18 241.691 1783.21 266.531 1783.21 293.969V381.376C1783.21 401.366 1783.36 421.797 1783.66 442.669C1783.95 463.541 1784.64 484.511 1785.81 505.676C1786.94 526.842 1788.36 546.832 1790.07 565.646H1705.21C1704.63 546.244 1704.04 526.352 1703.5 506.068C1702.91 485.784 1702.32 464.815 1701.78 443.061H1692.38C1685.52 467.656 1674.64 490.047 1659.8 510.331C1644.95 530.615 1626.23 546.881 1603.65 559.179C1581.06 571.477 1554.65 577.601 1524.37 577.601L1524.42 577.552ZM1558.72 505.578C1571.26 505.578 1584.44 502.884 1598.16 497.445C1611.88 492.007 1624.86 484.461 1637.16 474.711C1649.46 465.01 1660.29 452.272 1669.74 436.593C1679.15 420.866 1686.74 403.032 1692.48 383.042L1691.64 324.787L1713.94 323.905C1705.36 332.479 1693.95 339.191 1679.64 344.042C1665.33 348.892 1649.9 352.616 1633.34 355.164C1616.78 357.76 1599.92 360.455 1582.78 363.297C1565.63 366.187 1549.9 370.597 1535.64 376.574C1521.34 382.552 1510.07 390.44 1501.79 400.141C1493.51 409.842 1489.34 423.267 1489.34 440.415C1489.34 461.581 1495.47 477.7 1507.76 488.822C1520.06 499.944 1537.01 505.529 1558.77 505.529L1558.72 505.578Z" fill="white"/>
<path d="M1888.65 565.6V311.07L1887.82 119.941H1970.08L1962.39 281.036H1975.23C1982.09 239.341 1992.52 206.074 2006.49 181.184C2020.5 156.344 2038.19 138.216 2059.6 126.751C2081.01 115.335 2105.7 109.603 2133.73 109.603C2158.86 109.603 2180.27 113.914 2198.01 122.439C2215.69 131.013 2230.15 142.723 2241.27 157.569C2252.39 172.414 2260.97 189.122 2266.99 207.691C2272.97 226.26 2277.28 245.809 2279.83 266.387C2282.38 286.965 2283.7 306.955 2283.7 326.357V565.453H2190.27V338.36C2190.27 325.23 2189.68 310.384 2188.55 293.775C2187.38 277.215 2183.99 261.095 2178.26 245.368C2172.53 229.64 2163.81 216.51 2152.15 205.927C2140.44 195.344 2124.02 190.052 2102.86 190.052C2076.6 190.052 2054.7 198.48 2037.3 215.334C2019.86 232.188 2006.29 255.461 1996.59 285.201C1986.89 314.892 1981.45 349.188 1980.32 388.041V565.453H1888.6L1888.65 565.6Z" fill="white"/>
<path d="M516.595 1231.54V1149.28H1119.04V1231.54H516.595Z" fill="white"/>
<path d="M1557 1430.36C1520.99 1430.36 1489.59 1421.05 1462.74 1402.48C1435.89 1383.91 1415.02 1357.06 1400.17 1321.93C1385.33 1286.8 1377.88 1244.67 1377.88 1195.53C1377.88 1146.38 1384.74 1106.99 1398.46 1072.11C1412.17 1037.27 1432.16 1010.57 1458.43 992.001C1484.69 973.432 1516.14 964.123 1552.69 964.123C1583.56 964.123 1609.09 970.002 1629.37 981.712C1649.65 993.422 1666.07 1010.72 1678.66 1033.55C1691.2 1056.43 1700.66 1083.23 1706.93 1114.1H1719.77C1716.88 1094.11 1714.03 1074.56 1711.19 1055.4C1708.3 1036.24 1706.19 1018.12 1704.77 1000.97C1703.35 983.819 1702.62 968.68 1702.62 955.549V820.126H1796.88L1796.05 1209.2L1797.77 1418.31H1714.62L1719.77 1286.31H1706.05C1699.78 1316.59 1690.03 1342.46 1676.9 1363.87C1663.76 1385.28 1647.35 1401.75 1627.61 1413.16C1607.91 1424.58 1584.34 1430.31 1556.91 1430.31L1557 1430.36ZM1582.73 1351.53C1602.13 1351.53 1619.57 1346.82 1635 1337.37C1650.44 1327.96 1662.98 1315.81 1672.73 1300.96C1682.43 1286.12 1690.03 1270 1695.46 1252.56C1700.9 1235.11 1703.6 1218.7 1703.6 1203.27V1192.98C1703.6 1180.98 1702.03 1168.29 1698.89 1154.86C1695.76 1141.44 1691.2 1128.01 1685.18 1114.59C1679.2 1101.16 1671.16 1088.86 1661.17 1077.74C1651.17 1066.62 1639.61 1057.61 1626.48 1050.75C1613.35 1043.89 1598.75 1040.46 1582.78 1040.46C1559.89 1040.46 1540.2 1047.32 1523.64 1061.04C1507.08 1074.75 1494.49 1093.18 1485.91 1116.3C1477.34 1139.43 1473.08 1166.72 1473.08 1198.12C1473.08 1229.53 1477.34 1255.84 1485.91 1278.67C1494.49 1301.55 1506.93 1319.39 1523.2 1332.22C1539.46 1345.06 1559.31 1351.53 1582.78 1351.53H1582.73Z" fill="white"/>
<path d="M2011.19 1430.36C1988.31 1430.36 1967.04 1425.51 1947.35 1415.81C1927.65 1406.11 1911.92 1392.39 1900.21 1374.65C1888.5 1356.97 1882.63 1334.09 1882.63 1306.11C1882.63 1278.13 1888.6 1255.25 1900.61 1237.57C1912.61 1219.88 1928.58 1205.87 1948.57 1195.58C1968.56 1185.29 1990.12 1177.89 2013.3 1173.29C2036.42 1168.73 2059.99 1164.17 2084 1159.57C2108 1156.72 2126.96 1153.59 2140.98 1150.16C2154.99 1146.73 2164.84 1142.03 2170.52 1136C2176.2 1130.02 2179.09 1121.84 2179.09 1111.6C2179.09 1096.75 2175.67 1083.92 2168.81 1073.04C2161.95 1062.21 2151.95 1053.49 2138.82 1046.88C2125.69 1040.31 2109.96 1037.03 2091.69 1037.03C2075.13 1037.03 2058.96 1039.87 2043.28 1045.6C2027.55 1051.34 2013.98 1060.89 2002.57 1074.32C1991.15 1087.74 1984 1105.57 1981.15 1127.87L1897.18 1106.46C1900.61 1081.91 1908 1060.6 1919.47 1042.62C1930.89 1024.63 1945.19 1009.64 1962.34 997.638C1979.49 985.634 1999.33 976.766 2021.92 971.082C2044.51 965.399 2067.48 962.508 2090.9 962.508C2124.61 962.508 2153.03 967.065 2176.15 976.227C2199.28 985.389 2217.7 998.079 2231.42 1014.35C2245.14 1030.61 2254.99 1049.92 2260.97 1072.21C2266.94 1094.5 2269.98 1119.34 2269.98 1146.78V1234.19C2269.98 1254.18 2270.13 1274.61 2270.42 1295.48C2270.72 1316.35 2271.4 1337.32 2272.58 1358.49C2273.7 1379.65 2275.12 1399.64 2276.84 1418.46H2191.98C2191.39 1399.05 2190.8 1379.16 2190.27 1358.88C2189.68 1338.59 2189.09 1317.62 2188.55 1295.87H2179.14C2172.28 1320.47 2161.41 1342.86 2146.56 1363.14C2131.72 1383.43 2113 1399.69 2090.41 1411.99C2067.83 1424.29 2041.42 1430.41 2011.14 1430.41L2011.19 1430.36ZM2045.49 1358.39C2058.03 1358.39 2071.21 1355.69 2084.93 1350.26C2098.64 1344.82 2111.63 1337.27 2123.93 1327.52C2136.22 1317.82 2147.05 1305.08 2156.51 1289.4C2165.91 1273.68 2173.51 1255.84 2179.24 1235.85L2178.41 1177.6L2200.7 1176.71C2192.13 1185.29 2180.71 1192 2166.4 1196.85C2152.1 1201.7 2136.66 1205.43 2120.1 1207.97C2103.54 1210.57 2086.69 1213.27 2069.54 1216.11C2052.39 1219 2036.67 1223.41 2022.41 1229.38C2008.1 1235.36 1996.83 1243.25 1988.55 1252.95C1980.27 1262.65 1976.11 1276.08 1976.11 1293.23C1976.11 1314.39 1982.23 1330.51 1994.53 1341.63C2006.83 1352.75 2023.78 1358.34 2045.53 1358.34L2045.49 1358.39Z" fill="white"/>
<path d="M2523.68 1427.81C2501.38 1427.81 2481.98 1424.68 2465.42 1418.41C2448.86 1412.14 2435.29 1402.53 2424.71 1389.7C2414.12 1376.86 2406.14 1361.57 2400.7 1343.84C2395.26 1326.15 2392.57 1306.11 2392.57 1283.87V1049.03H2332.6V976.177H2366.89C2385.17 975.638 2398.45 971.474 2406.73 963.732C2415.01 956.04 2419.71 944.183 2420.89 928.162L2427.74 874.169H2484.28V972.699H2604.27V1050.7H2484.28V1279.51C2484.28 1302.93 2489.87 1319.24 2500.99 1328.35C2512.11 1337.52 2526.57 1342.07 2544.25 1342.07C2554.54 1342.07 2564.98 1340.65 2575.51 1337.81C2586.1 1334.97 2596.24 1330.12 2605.94 1323.26V1412.38C2590.51 1418.11 2575.95 1422.08 2562.24 1424.38C2548.52 1426.64 2535.68 1427.81 2523.68 1427.81Z" fill="white"/>
<path d="M2891.29 1133.01V896.709H2844.84V841.736C2859.49 841.736 2871.89 839.335 2882.08 834.485C2892.22 829.683 2898.83 819.247 2901.82 803.275H2954.78V1133.01H2891.34H2891.29Z" fill="white"/>
<path d="M3146.6 1140.02C3125.63 1140.02 3106.72 1136.1 3089.91 1128.26C3073.11 1120.42 3058.75 1109.1 3046.94 1094.3C3035.14 1079.51 3026.27 1061.58 3020.44 1040.61C3014.61 1019.64 3011.72 996.119 3011.72 970.151C3011.72 932.523 3017.45 900.872 3028.96 875.199C3040.48 849.574 3056.5 830.074 3077.17 816.748C3097.8 803.421 3121.81 796.758 3149.1 796.758C3176.39 796.758 3201.08 803.568 3221.02 817.238C3241.01 830.907 3256.4 850.554 3267.23 876.179C3278.05 901.852 3283.44 932.621 3283.44 968.632C3283.44 995.286 3280.45 1019.1 3274.43 1040.07C3268.45 1061.04 3259.34 1079.02 3247.19 1094.01C3235.04 1109 3220.44 1120.42 3203.48 1128.26C3186.48 1136.1 3167.52 1140.02 3146.5 1140.02H3146.6ZM3148.12 1089.06C3158.8 1089.06 3168.26 1086.56 3176.59 1081.57C3184.91 1076.57 3192.41 1069.42 3199.07 1060.11C3205.74 1050.8 3210.88 1038.7 3214.56 1023.9C3218.23 1009.1 3220.04 991.366 3220.04 970.69C3220.04 944.723 3217.1 922.577 3211.27 904.253C3205.44 885.929 3197.21 871.867 3186.53 862.019C3175.85 852.22 3162.72 847.272 3147.04 847.272C3134.4 847.272 3122.64 851.583 3111.81 860.255C3100.99 868.927 3092.17 882.009 3085.36 899.451C3078.55 916.943 3075.12 940.019 3075.12 968.632C3075.12 988.965 3076.93 1006.51 3080.6 1021.35C3084.28 1036.2 3089.37 1048.59 3095.84 1058.59C3102.36 1068.58 3110 1076.18 3118.82 1081.32C3127.64 1086.47 3137.39 1089.06 3148.07 1089.06H3148.12Z" fill="white"/>
<path d="M3444.39 1140.02C3423.08 1140.02 3404.51 1137.77 3388.68 1133.26C3372.86 1128.75 3359.63 1122.43 3348.95 1114.3C3338.27 1106.11 3330.28 1095.83 3324.99 1083.33C3319.65 1070.84 3317.01 1057.12 3317.01 1042.13L3374.48 1027.13C3375.16 1038.11 3377.32 1047.52 3380.99 1055.36C3384.67 1063.19 3389.81 1069.66 3396.48 1074.86C3403.14 1080 3410.73 1083.87 3419.21 1086.37C3427.68 1088.87 3436.8 1090.09 3446.45 1090.09C3459.78 1090.09 3471.68 1088.08 3482.17 1084.12C3492.65 1080.1 3500.98 1074.12 3507.16 1066.13C3513.33 1058.15 3516.42 1048.01 3516.42 1035.66C3516.42 1019.34 3511.52 1006.36 3501.67 996.708C3491.82 987.056 3476.93 980.54 3456.94 977.208C3436.95 973.877 3412.64 973.191 3383.98 975.2V936.738L3493.39 858.297V855.309H3332V802.835H3560.31V861.776L3453.41 940.217V944.235C3484.37 943.255 3509.12 946.831 3527.59 954.965C3546.06 963.147 3559.48 974.465 3567.81 988.918C3576.14 1003.42 3580.3 1019.83 3580.3 1038.11C3580.3 1058.79 3575.21 1076.67 3565.07 1091.81C3554.93 1106.95 3539.93 1118.8 3520.09 1127.28C3500.25 1135.76 3475.01 1140.02 3444.39 1140.02Z" fill="white"/>
<path d="M1108.55 1008.45H1099.89L1096.09 930.472H1112.35L1108.55 1008.45ZM1094.72 1030.79C1094.72 1027.04 1095.63 1024.41 1097.45 1022.89C1099.28 1021.37 1101.51 1020.61 1104.14 1020.61C1106.68 1020.61 1108.85 1021.37 1110.68 1022.89C1112.6 1024.41 1113.57 1027.04 1113.57 1030.79C1113.57 1034.44 1112.6 1037.07 1110.68 1038.7C1108.85 1040.32 1106.68 1041.13 1104.14 1041.13C1101.51 1041.13 1099.28 1040.32 1097.45 1038.7C1095.63 1037.07 1094.72 1034.44 1094.72 1030.79Z" fill="white"/>
<path d="M1066.08 1039H1053.31V932.6H1066.08V1039Z" fill="white"/>
<path d="M1018.73 1039L1003.23 1010.42H931.487L915.983 1039H901.847L960.367 932.6H974.655L1033.17 1039H1018.73ZM937.719 998.872H996.999L967.359 944.304L937.719 998.872Z" fill="white"/>
<path d="M803.314 953.12C829.002 953.12 841.314 969.536 841.314 992.184V1039H828.85V993.096C828.85 974.4 819.578 964.216 800.882 964.216C784.77 964.216 771.394 971.664 763.794 987.016V1039H751.33V926.52H763.794V973.336C771.546 960.872 785.53 953.12 803.314 953.12Z" fill="white"/>
<path d="M729.382 1025.32L733.79 1034.29C727.254 1038.85 719.046 1042.04 709.774 1042.04C694.878 1042.04 682.566 1034.14 682.566 1018.02V967.104H665.846V956.16H682.566V936.856H695.03V956.16H733.182V967.104H695.03V1016.2C695.03 1026.38 702.782 1030.94 711.902 1030.94C718.438 1030.94 723.91 1028.51 729.382 1025.32Z" fill="white"/>
<path d="M641.049 943.392C636.033 943.392 632.233 939.744 632.233 935.336C632.233 930.776 636.033 927.28 641.049 927.28C646.065 927.28 649.865 930.776 649.865 935.336C649.865 939.744 646.065 943.392 641.049 943.392ZM647.281 956.16V1039H634.817V956.16H647.281Z" fill="white"/>
<path d="M601.054 932.6H614.734L575.67 1039H562.142L527.942 947.952L493.59 1039H480.062L440.998 932.6H454.982L487.054 1023.5L521.558 932.6H534.478L568.83 1023.5L601.054 932.6Z" fill="white"/>
<path d="M378.986 956.16H391.602L360.594 1039H347.826L321.53 969.688L294.93 1039H282.162L251.154 956.16H264.074L289.306 1024.86L315.45 956.16H327.61L353.754 1024.86L378.986 956.16Z" fill="white"/>
<path d="M189.785 1042.19C158.169 1042.19 139.473 1025.02 139.473 997.656C139.473 970.296 158.169 952.968 189.785 952.968C221.401 952.968 240.097 970.296 240.097 997.656C240.097 1025.02 221.401 1042.19 189.785 1042.19ZM189.785 1031.1C211.369 1031.1 227.481 1020 227.481 997.656C227.481 975.16 211.369 964.064 189.785 964.064C168.201 964.064 152.089 975.16 152.089 997.656C152.089 1020 168.201 1031.1 189.785 1031.1Z" fill="white"/>
<path d="M100.624 932.6H113.088V1039H101.84L12.464 948.864V1039H0V932.6H13.832L100.624 1020.3V932.6Z" fill="white"/>
<path d="M2560.24 1804.11H2561.52C2569.71 1804.11 2576.24 1803.62 2581.13 1802.63C2586.08 1801.57 2589.64 1799.82 2591.82 1797.38C2590.23 1797.58 2588.65 1797.68 2587.07 1797.68C2582.58 1797.68 2578.59 1796.95 2575.09 1795.5C2571.59 1793.98 2569.05 1791.74 2567.46 1788.77C2566.21 1786.32 2565.58 1783.58 2565.58 1780.55C2565.58 1777.12 2566.31 1773.78 2567.76 1770.55C2569.28 1767.25 2571.33 1764.58 2573.9 1762.53C2576.54 1760.42 2579.44 1759.36 2582.61 1759.36C2586.31 1759.36 2589.61 1760.81 2592.51 1763.72C2595.42 1766.56 2597.66 1770.29 2599.24 1774.91C2600.83 1779.46 2601.62 1784.18 2601.62 1789.06C2601.62 1790.38 2601.59 1791.37 2601.52 1792.03C2600.99 1799.42 2597.4 1805.1 2590.73 1809.06C2584.06 1813.02 2574.33 1815 2561.52 1815H2560.24V1804.11ZM2586.87 1738.57V1749.36C2584.62 1749.63 2580.99 1749.96 2575.98 1750.35V1739.56L2586.87 1738.57ZM2574.49 1782.63C2575.48 1784.15 2577.33 1785.33 2580.04 1786.19C2582.74 1787.05 2585.75 1787.48 2589.05 1787.48C2590.63 1787.48 2592.21 1787.38 2593.8 1787.18C2593.14 1782.43 2591.75 1778.27 2589.64 1774.71C2587.53 1771.14 2584.99 1769.36 2582.02 1769.36C2580.5 1769.36 2579.08 1769.86 2577.76 1770.85C2576.51 1771.84 2575.48 1773.12 2574.69 1774.71C2573.97 1776.23 2573.6 1777.74 2573.6 1779.26C2573.6 1780.52 2573.9 1781.64 2574.49 1782.63Z" fill="white"/>
<path d="M2527.21 1842.92C2521.4 1842.92 2516.25 1841.83 2511.76 1839.65C2507.28 1837.47 2503.74 1834.27 2501.17 1830.05C2498.6 1825.89 2497.31 1820.94 2497.31 1815.2C2497.31 1811.24 2497.97 1806.98 2499.29 1802.43C2500.68 1797.87 2502.26 1793.78 2504.04 1790.15L2511.66 1793.71C2510.01 1797.41 2508.69 1800.94 2507.7 1804.31C2506.71 1807.61 2506.22 1810.81 2506.22 1813.91C2506.22 1819.92 2508.03 1824.44 2511.66 1827.47C2515.29 1830.58 2520.48 1832.13 2527.21 1832.13C2531.04 1832.13 2534.67 1831.63 2538.1 1830.64C2541.6 1829.65 2544.5 1828.43 2546.81 1826.98C2549.12 1825.59 2550.54 1824.31 2551.07 1823.12C2550.34 1821.93 2548 1820.08 2544.04 1817.57C2540.08 1815.07 2535.89 1812.95 2531.46 1811.24L2533.74 1800.94C2539.02 1802 2543.71 1802.79 2547.8 1803.32C2551.96 1803.85 2555.98 1804.11 2559.88 1804.11H2561.96L2562.55 1809.55L2561.96 1815H2559.88C2557.77 1815 2555.65 1814.9 2553.54 1814.7C2557.57 1817.74 2559.58 1820.68 2559.58 1823.51C2559.51 1826.62 2558 1829.68 2555.03 1832.72C2552.06 1835.76 2548.1 1838.2 2543.15 1840.05C2538.26 1841.96 2532.95 1842.92 2527.21 1842.92ZM2539.29 1860.94C2534.07 1861.46 2530.01 1861.83 2527.11 1862.02V1861.93C2522.03 1862.45 2518.03 1862.82 2515.13 1863.01V1853.41C2519.82 1852.95 2523.71 1852.59 2526.81 1852.32C2529.78 1852.12 2533.94 1851.76 2539.29 1851.23V1860.94Z" fill="white"/>
<path d="M2434.36 1804.11H2439.51C2444.66 1804.11 2448.36 1803.48 2450.6 1802.23C2452.84 1800.97 2453.97 1799.03 2453.97 1796.39C2453.97 1794.61 2453.27 1791.57 2451.89 1787.28C2450.57 1782.92 2449.51 1779.92 2448.72 1778.27L2456.94 1773.82C2458.19 1776.39 2459.48 1779.99 2460.8 1784.61C2462.12 1789.16 2462.78 1793.09 2462.78 1796.39C2462.78 1802.53 2460.76 1807.18 2456.74 1810.35C2452.78 1813.45 2447.04 1815 2439.51 1815H2434.36V1804.11ZM2447.33 1825.59V1836.38C2445.35 1836.58 2441.72 1836.91 2436.44 1837.37V1826.58L2447.33 1825.59Z" fill="white"/>
<path d="M2401.11 1804.11H2401.9C2406.72 1804.11 2410.31 1803.61 2412.69 1802.62C2415.13 1801.57 2416.71 1799.89 2417.44 1797.58C2417.7 1796.72 2417.84 1795.56 2417.84 1794.11C2417.84 1792 2417.44 1788.5 2416.65 1783.62L2424.87 1781.93C2425.79 1786.36 2426.25 1791.7 2426.25 1797.97C2426.58 1799.89 2427.47 1801.4 2428.92 1802.53C2430.44 1803.58 2432.36 1804.11 2434.67 1804.11H2435.36L2435.95 1809.55L2435.36 1815H2434.67C2431.96 1815 2429.49 1814.34 2427.24 1813.02C2425 1811.63 2423.18 1809.82 2421.8 1807.57C2420.15 1810.21 2417.67 1812.13 2414.37 1813.32C2411.14 1814.44 2406.98 1815 2401.9 1815H2401.11V1804.11ZM2419.42 1760.65V1771.44C2414.14 1771.9 2410.51 1772.23 2408.53 1772.43V1761.54L2419.42 1760.65Z" fill="white"/>
<path d="M2401.56 1815C2394.56 1815 2389.65 1813.18 2386.81 1809.55C2384.04 1805.86 2382.65 1800.02 2382.65 1792.03C2382.65 1784.77 2382.45 1776.52 2382.06 1767.28C2381.73 1757.98 2381.23 1751.11 2380.57 1746.69L2389.98 1744.61C2390.5 1748.37 2390.93 1754.38 2391.26 1762.63C2391.59 1770.81 2391.76 1778.44 2391.76 1785.5V1789.85C2391.69 1793.81 2391.86 1796.75 2392.25 1798.66C2392.65 1800.58 2393.54 1801.96 2394.93 1802.82C2396.31 1803.68 2398.52 1804.11 2401.56 1804.11H2402.05L2402.65 1809.55L2402.05 1815H2401.56Z" fill="white"/>
<path d="M2336.82 1811.73L2346.82 1808.47C2345.17 1807.15 2343.85 1805.56 2342.86 1803.71C2341.93 1801.8 2341.47 1799.72 2341.47 1797.48C2341.47 1794.97 2342.1 1792.63 2343.35 1790.45C2344.67 1788.2 2346.42 1786.42 2348.6 1785.1C2350.84 1783.78 2353.25 1783.09 2355.83 1783.02C2358.73 1783.02 2362.23 1783.81 2366.32 1785.4L2363.85 1792.53C2360.61 1791.34 2358 1790.74 2356.02 1790.74C2353.85 1790.81 2351.97 1791.54 2350.38 1792.92C2348.8 1794.24 2348.01 1795.83 2348.01 1797.67C2348.01 1799.46 2348.86 1801.07 2350.58 1802.53C2352.36 1803.91 2354.51 1804.6 2357.01 1804.6C2358.14 1804.6 2359.13 1804.47 2359.98 1804.21V1804.31L2369.39 1801.24L2370.48 1808.86L2337.91 1819.36L2336.82 1811.73Z" fill="white"/>
<path d="M2289.92 1814.41C2290.44 1810.45 2290.71 1803.52 2290.71 1793.62C2290.71 1784.57 2290.48 1775.3 2290.01 1765.8C2289.62 1756.23 2289.16 1749.86 2288.63 1746.69L2298.03 1744.61C2298.5 1747.91 2298.96 1754.41 2299.42 1764.11C2299.88 1773.82 2300.11 1783.19 2300.11 1792.23C2300.11 1802.53 2299.78 1810.28 2299.12 1815.49L2289.92 1814.41Z" fill="white"/>
<path d="M2255.8 1804.11H2258.96C2262.66 1804.11 2265.3 1803.32 2266.88 1801.73C2268.53 1800.15 2269.36 1797.67 2269.36 1794.31C2269.36 1790.48 2269.03 1782.46 2268.37 1770.25C2267.77 1757.98 2267.21 1750.12 2266.69 1746.69L2276.09 1744.61C2276.49 1748.04 2276.98 1756.09 2277.58 1768.77C2278.24 1781.37 2278.57 1789.66 2278.57 1793.62C2278.57 1797.77 2277.77 1801.47 2276.19 1804.7C2274.61 1807.94 2272.33 1810.48 2269.36 1812.33C2266.45 1814.11 2263.06 1815 2259.16 1815H2255.8V1804.11Z" fill="white"/>
<path d="M2200.98 1804.11H2203.26C2209.2 1804.11 2214.81 1803.45 2220.09 1802.13C2216.32 1798.63 2211.9 1793.65 2206.82 1787.18L2207.22 1780.05C2209.99 1777.28 2213.45 1775.2 2217.61 1773.82C2221.83 1772.36 2226.19 1771.64 2230.68 1771.64C2235.83 1771.64 2240.35 1772.56 2244.24 1774.41C2248.2 1776.19 2250.64 1778.7 2251.57 1781.93C2251.7 1782.33 2251.77 1782.99 2251.77 1783.91C2251.77 1786.55 2250.71 1789.52 2248.6 1792.82C2246.49 1796.12 2243.58 1799.26 2239.89 1802.23C2243.91 1803.48 2248.66 1804.11 2254.14 1804.11H2256.81L2257.41 1809.55L2256.81 1815H2254.14C2248.93 1815 2244.31 1814.54 2240.28 1813.61C2236.32 1812.62 2232.59 1811.07 2229.09 1808.96C2220.91 1812.99 2212.3 1815 2203.26 1815H2200.98V1804.11ZM2216.82 1785.2C2221.7 1790.88 2226.32 1795.13 2230.68 1797.97C2234.24 1795.99 2237.05 1793.85 2239.09 1791.54C2241.14 1789.16 2242.53 1787.08 2243.25 1785.3C2242.59 1783.98 2241.14 1782.92 2238.9 1782.13C2236.72 1781.34 2234.18 1780.94 2231.27 1780.94C2228.57 1780.94 2225.93 1781.31 2223.35 1782.03C2220.84 1782.69 2218.67 1783.75 2216.82 1785.2Z" fill="white"/>
<path d="M2200.79 1815C2192.87 1815 2187.66 1810.91 2185.15 1802.72C2181.78 1807.34 2176.96 1810.91 2170.69 1813.42C2164.42 1815.86 2157.26 1817.38 2149.21 1817.97L2146.54 1807.57C2149.64 1807.24 2152.61 1806.85 2155.45 1806.39C2155.91 1804.93 2156.14 1803.05 2156.14 1800.74C2156.14 1795.79 2155.02 1789.62 2152.77 1782.23C2150.53 1774.84 2147.59 1766.98 2143.96 1758.67L2151.88 1753.22C2155.98 1761.87 2159.14 1770.09 2161.39 1777.87C2163.63 1785.6 2164.75 1792.3 2164.75 1797.97C2164.75 1800.02 2164.52 1802.2 2164.06 1804.51C2175.21 1801.07 2180.79 1795.43 2180.79 1787.58C2180.79 1780.98 2180.53 1774.67 2180 1768.67C2179.54 1762.6 2178.78 1755.27 2177.72 1746.69L2187.13 1744.61C2188.12 1752.33 2188.88 1759.1 2189.4 1764.91C2189.93 1770.65 2190.2 1776.46 2190.2 1782.33L2190.1 1787.18C2190.23 1793.19 2191.05 1797.51 2192.57 1800.15C2194.16 1802.79 2196.96 1804.11 2200.99 1804.11H2201.98V1815H2200.79Z" fill="white"/>
<path d="M2084.68 1804.11H2086.46C2089.1 1804.11 2091.54 1803.35 2093.79 1801.83C2096.03 1800.32 2097.94 1798.01 2099.53 1794.9C2102.43 1789.23 2105.37 1784.74 2108.34 1781.44C2111.31 1778.14 2114.54 1776.39 2118.04 1776.19C2121.54 1775.99 2124.57 1776.92 2127.15 1778.96C2129.79 1781.01 2131.8 1783.72 2133.19 1787.08C2134.57 1790.45 2135.27 1793.98 2135.27 1797.68C2135.27 1801.31 2134.57 1804.64 2133.19 1807.67C2131.8 1810.64 2129.76 1812.89 2127.05 1814.41C2125.86 1815.13 2124.34 1815.5 2122.5 1815.5C2117.68 1815.5 2110.95 1812.76 2102.3 1807.28C2098.27 1812.43 2092.93 1815 2086.26 1815H2084.48L2084.68 1804.11ZM2107.15 1798.67C2110.45 1800.78 2113.45 1802.43 2116.16 1803.62C2118.93 1804.74 2121.08 1805.3 2122.59 1805.3C2123.25 1805.3 2123.78 1805.2 2124.18 1805C2125.17 1804.47 2125.93 1803.62 2126.46 1802.43C2126.98 1801.17 2127.25 1799.75 2127.25 1798.17C2127.25 1795.13 2126.46 1792.36 2124.87 1789.85C2123.29 1787.35 2121.24 1786.09 2118.73 1786.09C2115.37 1786.09 2111.51 1790.28 2107.15 1798.67Z" fill="white"/>
<path d="M2084.93 1815C2077.94 1815 2073.02 1813.18 2070.18 1809.55C2067.41 1805.86 2066.02 1800.02 2066.02 1792.03C2066.02 1784.77 2065.83 1776.52 2065.43 1767.28C2065.1 1757.98 2064.61 1751.11 2063.95 1746.69L2073.35 1744.61C2073.88 1748.37 2074.31 1754.38 2074.64 1762.63C2074.97 1770.81 2075.13 1778.44 2075.13 1785.5V1789.85C2075.07 1793.81 2075.23 1796.75 2075.63 1798.66C2076.02 1800.58 2076.91 1801.96 2078.3 1802.82C2079.69 1803.68 2081.9 1804.11 2084.93 1804.11H2085.43L2086.02 1809.55L2085.43 1815H2084.93Z" fill="white"/>
<path d="M2016.04 1815.99C2004.75 1815.99 1995.91 1814.31 1989.5 1810.94C1983.17 1807.58 1979.7 1802.79 1979.11 1796.59C1979.04 1796.06 1979.01 1795.3 1979.01 1794.31C1979.01 1791.6 1979.37 1788.73 1980.1 1785.7C1980.82 1782.59 1981.72 1779.79 1982.77 1777.28L1990.49 1781.04C1988.65 1786.26 1987.72 1790.32 1987.72 1793.22C1987.72 1793.95 1987.75 1794.51 1987.82 1794.9C1988.35 1798.07 1991.02 1800.58 1995.84 1802.43C2000.66 1804.21 2007.55 1805.13 2016.53 1805.2C2022.54 1805.2 2027.68 1804.8 2031.97 1804.01C2036.26 1803.15 2039.53 1802.16 2041.78 1801.04C2044.09 1799.92 2045.34 1798.9 2045.54 1797.97C2045.21 1795.13 2044.32 1791.57 2042.86 1787.28C2041.48 1782.99 2040.42 1779.99 2039.7 1778.27L2047.91 1773.82C2049.3 1776.98 2050.62 1780.94 2051.87 1785.7C2053.19 1790.38 2053.85 1794.28 2053.85 1797.38C2053.85 1801.27 2052.2 1804.64 2048.9 1807.48C2045.67 1810.25 2041.18 1812.36 2035.44 1813.81C2029.76 1815.26 2023.3 1815.99 2016.04 1815.99ZM2016.33 1769.76V1769.86C2020.89 1769.39 2024.85 1769.03 2028.21 1768.77V1778.37L2016.13 1779.56V1779.46C2011.05 1779.99 2007.06 1780.35 2004.16 1780.55V1770.95L2016.33 1769.76Z" fill="white"/>
<path d="M1952.66 1816.19C1950.75 1816.19 1949.13 1815.53 1947.81 1814.21C1946.56 1812.89 1945.93 1811.27 1945.93 1809.36C1945.93 1807.51 1946.59 1805.96 1947.91 1804.7C1949.23 1803.38 1950.81 1802.72 1952.66 1802.72C1954.51 1802.72 1956.09 1803.38 1957.41 1804.7C1958.73 1805.96 1959.39 1807.51 1959.39 1809.36C1959.39 1811.27 1958.73 1812.89 1957.41 1814.21C1956.16 1815.53 1954.58 1816.19 1952.66 1816.19ZM1962.36 1764.71C1962.3 1762.73 1961.8 1760.78 1960.88 1758.87C1960.02 1756.95 1958.7 1755.37 1956.92 1754.11C1955.2 1752.86 1953.16 1752.23 1950.78 1752.23C1947.61 1752.23 1944.94 1753.32 1942.76 1755.5C1940.58 1757.61 1939.49 1760.22 1939.49 1763.32C1939.49 1765.04 1939.76 1766.46 1940.29 1767.58C1940.88 1768.7 1941.77 1769.82 1942.96 1770.94C1944.15 1772 1946.19 1773.65 1949.1 1775.89L1951.67 1777.87C1953.12 1779 1954.18 1780.22 1954.84 1781.54C1955.5 1782.79 1955.9 1784.24 1956.03 1785.89C1956.23 1787.48 1956.32 1789.82 1956.32 1792.92V1796.39H1948.8V1790.74C1948.8 1789.42 1948.47 1788.14 1947.81 1786.88C1947.15 1785.63 1945.86 1784.21 1943.95 1782.63L1942.27 1781.24C1939.49 1778.93 1937.38 1777.05 1935.93 1775.6C1934.54 1774.15 1933.42 1772.43 1932.56 1770.45C1931.71 1768.4 1931.28 1765.93 1931.28 1763.02C1931.28 1759.53 1932.14 1756.26 1933.85 1753.22C1935.63 1750.12 1938.01 1747.65 1940.98 1745.8C1944.02 1743.95 1947.28 1743.03 1950.78 1743.03C1954.41 1743.03 1957.68 1743.98 1960.58 1745.9C1963.49 1747.81 1965.76 1750.39 1967.41 1753.62C1969.13 1756.79 1969.99 1760.22 1969.99 1763.92L1962.36 1764.71Z" fill="white"/>
<path d="M2536.07 1655.11H2544.58C2552.7 1655.11 2560.29 1654.15 2567.35 1652.24C2574.41 1650.32 2581.61 1647.42 2588.93 1643.53L2590.62 1642.64C2587.18 1641.65 2583.59 1640.19 2579.83 1638.28C2573.69 1635.05 2568.51 1633.43 2564.28 1633.43C2561.58 1633.43 2559.13 1634.22 2556.96 1635.8C2554.78 1637.39 2553.16 1639.2 2552.11 1641.25L2545.77 1636.79C2548.01 1632.31 2550.72 1628.91 2553.89 1626.6C2557.06 1624.29 2560.59 1623.13 2564.48 1623.13C2567.32 1623.13 2569.99 1623.63 2572.5 1624.62C2575.07 1625.54 2578.67 1627.19 2583.29 1629.57C2587.58 1631.75 2591.01 1633.36 2593.59 1634.42C2596.16 1635.47 2599.03 1636.33 2602.2 1636.99L2602.6 1646.6C2601.34 1646.93 2599.76 1647.59 2597.84 1648.58C2595.93 1649.5 2593.85 1650.59 2591.61 1651.84C2582.56 1656.66 2574.45 1660.22 2567.25 1662.53C2560.12 1664.84 2552.24 1666 2543.59 1666H2536.07V1655.11ZM2574.68 1675.7V1686.49C2572.7 1686.69 2569.07 1687.02 2563.79 1687.48V1676.69L2574.68 1675.7Z" fill="white"/>
<path d="M2536.48 1666C2534.17 1666 2532.06 1665.47 2530.15 1664.42V1664.91C2530.15 1670.98 2527.61 1676.69 2522.53 1682.04C2517.51 1687.45 2510.98 1691.64 2502.92 1694.61L2498.67 1685.31C2502.96 1683.72 2506.82 1681.74 2510.25 1679.37C2513.75 1676.99 2516.49 1674.51 2518.47 1671.94C2520.51 1669.43 2521.54 1667.09 2521.54 1664.91C2521.54 1662.14 2519.79 1653.96 2516.29 1640.36L2525 1636.99C2525.92 1639.96 2526.82 1643.26 2527.67 1646.89C2528.6 1649.93 2529.72 1652.07 2531.04 1653.33C2532.36 1654.52 2534.17 1655.11 2536.48 1655.11H2537.28L2537.87 1660.56L2537.28 1666H2536.48Z" fill="white"/>
<path d="M2471.87 1655.11H2477.02C2482.17 1655.11 2485.87 1654.48 2488.11 1653.23C2490.35 1651.97 2491.48 1650.03 2491.48 1647.39C2491.48 1645.61 2490.78 1642.57 2489.4 1638.28C2488.08 1633.92 2487.02 1630.92 2486.23 1629.27L2494.45 1624.82C2495.7 1627.39 2496.99 1630.99 2498.31 1635.61C2499.63 1640.16 2500.29 1644.09 2500.29 1647.39C2500.29 1653.53 2498.27 1658.18 2494.25 1661.35C2490.29 1664.45 2484.55 1666 2477.02 1666H2471.87V1655.11ZM2484.84 1676.59V1687.38C2482.86 1687.58 2479.23 1687.91 2473.95 1688.37V1677.58L2484.84 1676.59Z" fill="white"/>
<path d="M2419.96 1666.99C2408.68 1666.99 2399.83 1665.31 2393.43 1661.94C2387.1 1658.58 2383.63 1653.79 2383.04 1647.59C2382.97 1647.06 2382.94 1646.3 2382.94 1645.31C2382.94 1642.6 2383.3 1639.73 2384.03 1636.7C2384.75 1633.59 2385.64 1630.79 2386.7 1628.28L2394.42 1632.04C2392.57 1637.26 2391.65 1641.32 2391.65 1644.22C2391.65 1644.95 2391.68 1645.51 2391.75 1645.9C2392.28 1649.14 2394.95 1651.68 2399.77 1653.53C2404.65 1655.31 2411.61 1656.2 2420.66 1656.2C2428.77 1656.2 2435.31 1655.57 2440.26 1654.32C2445.21 1653 2449.07 1650.99 2451.84 1648.28C2454.61 1645.51 2456.79 1641.78 2458.38 1637.09L2466.79 1638.08C2465.6 1641.71 2465.01 1644.78 2465.01 1647.29C2465.01 1648.48 2465.17 1649.63 2465.5 1650.75C2466.43 1653.66 2468.87 1655.11 2472.83 1655.11L2473.42 1660.56L2472.83 1666C2468.94 1666 2465.6 1664.88 2462.83 1662.63C2460.12 1660.39 2458.51 1657.39 2457.98 1653.63C2454.15 1658.44 2449.14 1661.88 2442.93 1663.92C2436.79 1665.97 2429.14 1666.99 2419.96 1666.99ZM2411.05 1623.03C2416.27 1622.51 2420.33 1622.14 2423.23 1621.95V1622.04C2427.78 1621.58 2431.74 1621.22 2435.11 1620.96V1630.56C2429.7 1631.09 2425.67 1631.45 2423.03 1631.65V1631.55C2417.95 1632.08 2413.96 1632.44 2411.05 1632.64V1623.03Z" fill="white"/>
<path d="M2316.61 1655.11H2320.77C2327.7 1655.11 2332.58 1654.48 2335.42 1653.23C2338.26 1651.91 2339.67 1649.86 2339.67 1647.09C2339.61 1645.24 2338.92 1642.24 2337.6 1638.08C2336.28 1633.92 2335.19 1630.99 2334.33 1629.27L2342.55 1624.82C2343.87 1627.46 2345.15 1630.99 2346.41 1635.41C2347.73 1639.83 2348.39 1643.69 2348.39 1646.99C2348.39 1653.26 2346.21 1658.01 2341.85 1661.25C2337.5 1664.42 2330.96 1666 2322.25 1666H2316.61V1655.11ZM2334.82 1606.6V1606.7C2339.44 1606.24 2343.44 1605.87 2346.8 1605.61V1615.21L2334.63 1616.4V1616.3C2330.01 1616.76 2326.01 1617.13 2322.65 1617.39V1607.79L2334.82 1606.6Z" fill="white"/>
<path d="M2317.14 1666C2314.57 1666 2312.19 1665.47 2310.01 1664.42C2307.83 1663.36 2305.95 1661.81 2304.37 1659.76C2302.85 1661.68 2301.04 1663.19 2298.92 1664.32C2296.88 1665.37 2294.67 1665.93 2292.29 1666H2292.09H2291.8C2288.5 1665.93 2285.79 1665.08 2283.68 1663.43C2281.57 1661.71 2280.05 1659.3 2279.12 1656.2C2277.54 1659.17 2275.56 1661.54 2273.18 1663.33C2270.87 1665.04 2268.33 1665.93 2265.56 1666H2265.17C2262.2 1666 2259.69 1665.14 2257.64 1663.43C2255.6 1661.71 2254.31 1659.4 2253.78 1656.5C2249.42 1662.83 2243.91 1666 2237.25 1666H2236.85L2236.26 1660.55L2236.85 1655.11H2237.35C2239.72 1655.11 2241.93 1654.58 2243.98 1653.53C2246.09 1652.47 2247.71 1651.12 2248.83 1649.47C2250.15 1647.75 2251.17 1645.87 2251.9 1643.82C2252.69 1641.78 2253.38 1639.57 2253.98 1637.19L2262.29 1638.08C2262.23 1638.41 2261.87 1639.76 2261.21 1642.14C2260.55 1644.52 2260.22 1646.76 2260.22 1648.87C2260.22 1650.92 2260.61 1652.47 2261.4 1653.53C2262.26 1654.58 2263.58 1655.11 2265.36 1655.11H2265.56C2269.19 1655.11 2272.16 1652.96 2274.47 1648.67C2275.33 1647.09 2275.99 1645.31 2276.45 1643.33C2276.98 1641.28 2277.47 1638.94 2277.94 1636.3L2286.25 1636.7C2285.39 1641.18 2284.97 1644.45 2284.97 1646.5C2284.97 1649.33 2285.53 1651.48 2286.65 1652.93C2287.84 1654.38 2289.65 1655.11 2292.09 1655.11C2293.74 1655.11 2295.33 1654.78 2296.85 1654.12C2298.43 1653.39 2299.65 1652.5 2300.51 1651.45C2300.18 1650.13 2299.32 1646.03 2297.93 1639.17C2297.87 1638.71 2297.7 1637.78 2297.44 1636.4L2305.66 1634.22C2306.45 1638.58 2307.08 1641.94 2307.54 1644.32C2308.07 1646.63 2308.53 1648.38 2308.92 1649.57C2309.52 1651.41 2310.47 1652.8 2311.79 1653.72C2313.11 1654.65 2314.9 1655.11 2317.14 1655.11H2317.73L2318.33 1660.55L2317.64 1666H2317.14Z" fill="white"/>
<path d="M2198.08 1655.11H2198.87C2204.02 1655.11 2208.01 1654.88 2210.85 1654.42C2213.69 1653.96 2215.73 1653.3 2216.99 1652.44C2218.31 1651.51 2219.2 1650.23 2219.66 1648.58C2219.92 1647.72 2220.06 1646.5 2220.06 1644.91C2220.06 1643.13 2219.89 1641.12 2219.56 1638.87C2219.23 1636.56 2219.03 1635.15 2218.97 1634.62L2227.18 1632.93C2228.11 1637.36 2228.57 1642.7 2228.57 1648.97C2228.9 1650.89 2229.76 1652.4 2231.14 1653.53C2232.6 1654.58 2234.54 1655.11 2236.98 1655.11H2237.68L2238.27 1660.56L2237.68 1666H2236.98C2234.21 1666 2231.7 1665.34 2229.46 1664.02C2227.28 1662.63 2225.5 1660.79 2224.11 1658.48C2222.46 1661.25 2219.69 1663.2 2215.8 1664.32C2211.97 1665.44 2206.33 1666 2198.87 1666H2198.08V1655.11ZM2204.02 1613.43C2209.23 1612.9 2213.29 1612.54 2216.19 1612.34L2228.07 1611.35V1620.96C2222.66 1621.48 2218.64 1621.85 2216 1622.04V1621.95C2210.91 1622.47 2206.92 1622.84 2204.02 1623.03V1613.43Z" fill="white"/>
<path d="M2143.26 1655.11H2145.54C2151.48 1655.11 2157.09 1654.45 2162.37 1653.13C2158.61 1649.63 2154.18 1644.65 2149.1 1638.18L2149.5 1631.05C2152.27 1628.28 2155.73 1626.2 2159.89 1624.82C2164.12 1623.36 2168.47 1622.64 2172.96 1622.64C2178.11 1622.64 2182.63 1623.56 2186.52 1625.41C2190.48 1627.19 2192.93 1629.7 2193.85 1632.93C2193.98 1633.33 2194.05 1633.99 2194.05 1634.91C2194.05 1637.55 2192.99 1640.52 2190.88 1643.82C2188.77 1647.12 2185.86 1650.26 2182.17 1653.23C2186.19 1654.48 2190.95 1655.11 2196.42 1655.11H2199.1L2199.69 1660.56L2199.1 1666H2196.42C2191.21 1666 2186.59 1665.54 2182.56 1664.61C2178.6 1663.62 2174.87 1662.07 2171.38 1659.96C2163.19 1663.99 2154.58 1666 2145.54 1666H2143.26V1655.11ZM2177.61 1602.94V1613.73L2166.72 1614.72V1603.93L2177.61 1602.94ZM2159.1 1636.2C2163.98 1641.88 2168.6 1646.13 2172.96 1648.97C2176.52 1646.99 2179.33 1644.85 2181.38 1642.54C2183.42 1640.16 2184.81 1638.08 2185.53 1636.3C2184.87 1634.98 2183.42 1633.92 2181.18 1633.13C2179 1632.34 2176.46 1631.94 2173.55 1631.94C2170.85 1631.94 2168.21 1632.31 2165.63 1633.03C2163.13 1633.69 2160.95 1634.75 2159.1 1636.2Z" fill="white"/>
<path d="M2143.21 1666C2139.25 1666 2135.91 1664.71 2133.21 1662.14C2132.68 1671.31 2129.84 1678.44 2124.69 1683.52C2119.54 1688.6 2112.55 1691.15 2103.7 1691.15C2098.56 1691.15 2093.87 1690.09 2089.65 1687.98C2085.42 1685.93 2082.06 1682.96 2079.55 1679.07C2077.11 1675.24 2075.89 1670.82 2075.89 1665.8C2075.89 1662.17 2076.51 1658.11 2077.77 1653.62C2079.09 1649.07 2080.67 1645.01 2082.52 1641.45L2090.14 1645.01C2088.43 1648.64 2087.11 1652.04 2086.18 1655.21C2085.26 1658.31 2084.8 1661.38 2084.8 1664.42C2084.8 1669.17 2086.51 1673 2089.94 1675.9C2093.38 1678.87 2097.96 1680.35 2103.7 1680.35C2118.22 1680.35 2125.19 1672.67 2124.59 1657.29C2124.07 1643.82 2123.47 1631.88 2122.81 1621.45C2122.22 1610.96 2121.62 1603.04 2121.03 1597.69L2130.34 1595.61C2131.13 1603.6 2131.95 1619.73 2132.81 1644.02H2132.91C2133.11 1647.06 2133.5 1649.37 2134.1 1650.95C2134.76 1652.47 2135.78 1653.56 2137.17 1654.22C2138.55 1654.81 2140.57 1655.11 2143.21 1655.11H2144.39L2144.99 1660.55L2144.39 1666H2143.21Z" fill="white"/>
<path d="M2028.78 1665.41C2029.31 1661.45 2029.58 1654.52 2029.58 1644.62C2029.58 1635.57 2029.35 1626.3 2028.88 1616.8C2028.49 1607.23 2028.03 1600.86 2027.5 1597.69L2036.9 1595.61C2037.36 1598.91 2037.83 1605.41 2038.29 1615.11C2038.75 1624.82 2038.98 1634.19 2038.98 1643.23C2038.98 1653.53 2038.65 1661.28 2037.99 1666.49L2028.78 1665.41Z" fill="white"/>
<path d="M1994.66 1655.11H1997.83C2001.53 1655.11 2004.17 1654.32 2005.75 1652.73C2007.4 1651.15 2008.23 1648.67 2008.23 1645.31C2008.23 1641.48 2007.9 1633.46 2007.24 1621.25C2006.64 1608.98 2006.08 1601.12 2005.55 1597.69L2014.96 1595.61C2015.35 1599.04 2015.85 1607.09 2016.44 1619.77C2017.1 1632.37 2017.43 1640.66 2017.43 1644.62C2017.43 1648.77 2016.64 1652.47 2015.06 1655.7C2013.47 1658.94 2011.2 1661.48 2008.23 1663.33C2005.32 1665.11 2001.92 1666 1998.03 1666H1994.66V1655.11Z" fill="white"/>
<path d="M1994.55 1666C1991.58 1666 1988.94 1665.47 1986.63 1664.42C1984.32 1663.29 1982.24 1661.61 1980.4 1659.37C1975.12 1664.05 1968.94 1666.4 1961.88 1666.4C1957.2 1666.4 1953.17 1665.67 1949.8 1664.22C1946.44 1662.77 1943.4 1661.05 1940.7 1659.07L1945.05 1651.25C1947.63 1652.7 1950.07 1653.89 1952.38 1654.81C1954.75 1655.67 1957.63 1656.1 1960.99 1656.1C1966.4 1656.1 1971.35 1654.65 1975.84 1651.74L1961.98 1619.37L1970.2 1615.01L1983.76 1647.09C1985.02 1650.13 1986.43 1652.24 1988.02 1653.43C1989.6 1654.55 1991.78 1655.11 1994.55 1655.11H1995.64L1996.24 1660.55L1995.64 1666H1994.55ZM1961.19 1595.81C1963.43 1595.54 1967.06 1595.21 1972.08 1594.82V1605.61L1961.19 1606.6V1595.81Z" fill="white"/>
<path d="M1896.15 1655.11H1898.92C1905.19 1655.11 1910.24 1654.58 1914.07 1653.53C1917.96 1652.4 1920.44 1650.82 1921.49 1648.77C1921.62 1648.11 1921.69 1647.59 1921.69 1647.19C1921.69 1643.89 1919.87 1639.86 1916.24 1635.11C1912.61 1630.29 1907.47 1625.21 1900.8 1619.87L1901.99 1609.97L1938.32 1594.32L1941.29 1603.14L1911.1 1616.2C1915.91 1620.3 1920.37 1625.25 1924.46 1631.05C1928.55 1636.86 1930.6 1642.34 1930.6 1647.49C1930.6 1649.14 1930.37 1650.66 1929.91 1652.04C1928.39 1656.73 1924.92 1660.23 1919.51 1662.54C1914.17 1664.85 1907.3 1666 1898.92 1666H1896.15V1655.11Z" fill="white"/>
<path d="M1896.6 1666C1889.61 1666 1884.69 1664.18 1881.85 1660.55C1879.08 1656.86 1877.69 1651.02 1877.69 1643.03C1877.69 1635.77 1877.49 1627.52 1877.1 1618.28C1876.77 1608.98 1876.27 1602.11 1875.61 1597.69L1885.02 1595.61C1885.55 1599.37 1885.98 1605.38 1886.31 1613.63C1886.64 1621.81 1886.8 1629.44 1886.8 1636.5V1640.85C1886.73 1644.81 1886.9 1647.75 1887.3 1649.66C1887.69 1651.58 1888.58 1652.96 1889.97 1653.82C1891.35 1654.68 1893.57 1655.11 1896.6 1655.11H1897.1L1897.69 1660.55L1897.1 1666H1896.6Z" fill="white"/>
<path d="M1831.86 1662.73L1841.86 1659.47C1840.21 1658.15 1838.89 1656.56 1837.9 1654.71C1836.98 1652.8 1836.51 1650.72 1836.51 1648.48C1836.51 1645.97 1837.14 1643.63 1838.39 1641.45C1839.71 1639.2 1841.46 1637.42 1843.64 1636.1C1845.89 1634.78 1848.29 1634.09 1850.87 1634.02C1853.77 1634.02 1857.27 1634.81 1861.36 1636.4L1858.89 1643.53C1855.65 1642.34 1853.05 1641.74 1851.07 1641.74C1848.89 1641.81 1847.01 1642.54 1845.42 1643.92C1843.84 1645.24 1843.05 1646.83 1843.05 1648.67C1843.05 1650.46 1843.91 1652.07 1845.62 1653.53C1847.4 1654.91 1849.55 1655.6 1852.06 1655.6C1853.18 1655.6 1854.17 1655.47 1855.03 1655.21V1655.31L1864.43 1652.24L1865.52 1659.86L1832.95 1670.36L1831.86 1662.73Z" fill="white"/>
<path d="M1784.96 1665.41C1785.49 1661.45 1785.75 1654.52 1785.75 1644.62C1785.75 1635.57 1785.52 1626.3 1785.06 1616.8C1784.66 1607.23 1784.2 1600.86 1783.67 1597.69L1793.08 1595.61C1793.54 1598.91 1794 1605.41 1794.46 1615.11C1794.92 1624.82 1795.15 1634.19 1795.15 1643.23C1795.15 1653.53 1794.82 1661.28 1794.16 1666.49L1784.96 1665.41Z" fill="white"/>
<path d="M1770.05 1595.61C1771.04 1603.33 1771.8 1610.16 1772.33 1616.1C1772.86 1621.98 1773.12 1627.85 1773.12 1633.73L1773.02 1638.58C1772.76 1648.15 1768.8 1655.41 1761.14 1660.36C1753.55 1665.31 1743.88 1668.18 1732.13 1668.97L1729.46 1658.57C1732.56 1658.24 1735.53 1657.85 1738.37 1657.39C1738.83 1655.93 1739.06 1654.05 1739.06 1651.74C1739.06 1646.79 1737.94 1640.62 1735.7 1633.23C1733.45 1625.84 1730.52 1617.98 1726.89 1609.67L1734.81 1604.22C1738.9 1612.87 1742.07 1621.09 1744.31 1628.87C1746.56 1636.6 1747.68 1643.3 1747.68 1648.97C1747.68 1651.02 1747.45 1653.2 1746.98 1655.51C1758.14 1652.07 1763.72 1646.43 1763.72 1638.58C1763.72 1631.98 1763.45 1625.67 1762.92 1619.67C1762.46 1613.6 1761.7 1606.27 1760.65 1597.69L1770.05 1595.61ZM1727.28 1691.34L1733.32 1689.46C1731.87 1688.08 1730.95 1686.53 1730.55 1684.81C1730.35 1684.15 1730.25 1683.46 1730.25 1682.73C1730.25 1680.62 1730.91 1678.67 1732.23 1676.89C1733.62 1675.11 1735.34 1673.99 1737.38 1673.52C1738.31 1673.33 1739.2 1673.23 1740.05 1673.23C1741.9 1673.23 1744.11 1673.66 1746.69 1674.51L1745.2 1679.96C1743.22 1679.17 1741.47 1678.77 1739.96 1678.77C1738.44 1678.77 1737.18 1679.2 1736.19 1680.06C1735.27 1680.92 1734.81 1681.91 1734.81 1683.03C1734.81 1683.89 1735.3 1684.78 1736.29 1685.7C1737.35 1686.69 1738.73 1687.19 1740.45 1687.19L1748.47 1684.71V1690.16L1727.28 1696.89V1691.34Z" fill="white"/>
<path d="M1635.69 1655.11H1637.18C1640.41 1655.11 1643.05 1654.42 1645.1 1653.03C1647.14 1651.58 1648.76 1649.34 1649.95 1646.3C1651.2 1643.26 1652.19 1639.17 1652.92 1634.02L1661.13 1635.71C1660.74 1638.15 1660.54 1640.39 1660.54 1642.44C1660.54 1647.32 1661.76 1650.95 1664.2 1653.33C1669.22 1644.42 1674.8 1637.49 1680.93 1632.54C1687.14 1627.52 1693.27 1625.01 1699.35 1625.01C1702.91 1625.01 1706.15 1625.77 1709.05 1627.29C1711.95 1628.81 1714.2 1630.92 1715.78 1633.63C1717.43 1636.27 1718.26 1639.27 1718.26 1642.64C1718.26 1647.72 1716.61 1652.17 1713.31 1656C1710.01 1659.83 1705.42 1662.8 1699.55 1664.91C1693.74 1667.02 1687.17 1668.08 1679.84 1668.08C1666.45 1668.08 1658.26 1663.95 1655.29 1655.7C1653.51 1659.07 1651.2 1661.64 1648.36 1663.43C1645.52 1665.14 1641.76 1666 1637.08 1666H1635.69V1655.11ZM1671.73 1656.79C1674.17 1657.12 1676.61 1657.29 1679.05 1657.29C1685.06 1657.29 1690.4 1656.6 1695.09 1655.21C1699.78 1653.82 1703.41 1652.01 1705.98 1649.76C1708.62 1647.52 1709.94 1645.18 1709.94 1642.74C1709.94 1640.62 1709.05 1638.87 1707.27 1637.49C1705.55 1636.04 1703.18 1635.31 1700.14 1635.31C1695.39 1635.31 1690.54 1637.19 1685.59 1640.95C1680.64 1644.65 1676.02 1649.93 1671.73 1656.79Z" fill="white"/>
<path d="M1637.14 1660.55L1636.55 1666C1625 1666 1616.48 1665.24 1611.01 1663.72C1605.73 1665.24 1600.02 1666 1593.88 1666H1567.05V1655.11H1576.16C1578.2 1651.35 1580.35 1647.82 1582.59 1644.52C1582.72 1641.61 1582.79 1639.17 1582.79 1637.19C1582.79 1630.72 1582.46 1623.4 1581.8 1615.21C1581.21 1606.96 1580.61 1601.15 1580.02 1597.79L1589.42 1595.61C1589.95 1598.84 1590.45 1603.63 1590.91 1609.97C1591.44 1616.24 1591.7 1622.51 1591.7 1628.78L1591.6 1633.73C1598.99 1626.53 1606.32 1622.93 1613.58 1622.93C1617.14 1622.93 1620.34 1623.69 1623.18 1625.21C1626.09 1626.73 1628.36 1628.84 1630.01 1631.55C1631.66 1634.19 1632.49 1637.22 1632.49 1640.66C1632.49 1646.33 1630.24 1651.35 1625.76 1655.7C1631.17 1655.31 1634.77 1655.11 1636.55 1655.11L1637.14 1660.55ZM1585.76 1655.11C1587.15 1655.18 1589.56 1655.21 1592.99 1655.21C1599.06 1655.21 1604.44 1654.52 1609.12 1653.13C1613.88 1651.74 1617.54 1649.93 1620.11 1647.68C1622.75 1645.44 1624.07 1643.06 1624.07 1640.56C1624.07 1638.51 1623.22 1636.79 1621.5 1635.41C1619.85 1634.02 1617.54 1633.33 1614.57 1633.33C1609.95 1633.33 1605.1 1635.24 1600.02 1639.07C1595 1642.9 1590.25 1648.25 1585.76 1655.11Z" fill="white"/>
<path d="M1533.79 1655.11H1534.58C1539.4 1655.11 1543 1654.61 1545.37 1653.62C1547.82 1652.57 1549.4 1650.89 1550.13 1648.58C1550.39 1647.72 1550.52 1646.56 1550.52 1645.11C1550.52 1643 1550.13 1639.5 1549.33 1634.62L1557.55 1632.93C1558.48 1637.36 1558.94 1642.7 1558.94 1648.97C1559.27 1650.89 1560.16 1652.4 1561.61 1653.53C1563.13 1654.58 1565.04 1655.11 1567.35 1655.11H1568.05L1568.64 1660.55L1568.05 1666H1567.35C1564.65 1666 1562.17 1665.34 1559.93 1664.02C1557.68 1662.63 1555.87 1660.82 1554.48 1658.57C1552.83 1661.21 1550.36 1663.13 1547.06 1664.32C1543.82 1665.44 1539.67 1666 1534.58 1666H1533.79V1655.11ZM1552.11 1611.65V1622.44C1546.83 1622.9 1543.2 1623.23 1541.22 1623.43V1612.54L1552.11 1611.65Z" fill="white"/>
<path d="M1534.25 1666C1527.25 1666 1522.33 1664.18 1519.49 1660.55C1516.72 1656.86 1515.34 1651.02 1515.34 1643.03C1515.34 1635.77 1515.14 1627.52 1514.74 1618.28C1514.41 1608.98 1513.92 1602.11 1513.26 1597.69L1522.66 1595.61C1523.19 1599.37 1523.62 1605.38 1523.95 1613.63C1524.28 1621.81 1524.44 1629.44 1524.44 1636.5V1640.85C1524.38 1644.81 1524.54 1647.75 1524.94 1649.66C1525.34 1651.58 1526.23 1652.96 1527.61 1653.82C1529 1654.68 1531.21 1655.11 1534.25 1655.11H1534.74L1535.33 1660.55L1534.74 1666H1534.25Z" fill="white"/>
<path d="M1454.51 1655.11H1455.7C1458.67 1655.11 1462.47 1655.04 1467.09 1654.91C1464.05 1651.48 1462.53 1647.35 1462.53 1642.54C1462.53 1638.91 1463.49 1635.51 1465.4 1632.34C1467.32 1629.17 1469.89 1626.66 1473.13 1624.82C1476.36 1622.9 1479.83 1621.94 1483.52 1621.94C1486.49 1621.94 1489.4 1622.6 1492.23 1623.92C1495.14 1625.18 1497.81 1626.86 1500.25 1628.97L1496.49 1636.3C1492.07 1633.92 1487.98 1632.74 1484.21 1632.74C1481.71 1632.74 1479.43 1633.23 1477.38 1634.22C1475.4 1635.14 1473.85 1636.37 1472.73 1637.88C1471.61 1639.4 1471.05 1641.02 1471.05 1642.73C1471.05 1644.65 1471.74 1646.43 1473.13 1648.08C1474.51 1649.73 1476.36 1651.05 1478.67 1652.04C1481.05 1653.03 1483.65 1653.49 1486.49 1653.43C1492.3 1652.63 1497.41 1651.41 1501.84 1649.76L1504.01 1659.37C1498.6 1661.61 1492.1 1663.29 1484.51 1664.42C1476.99 1665.47 1467.38 1666 1455.7 1666H1454.51V1655.11Z" fill="white"/>
<path d="M1421.39 1693.92C1415.58 1693.92 1410.43 1692.83 1405.94 1690.65C1401.45 1688.47 1397.92 1685.27 1395.35 1681.05C1392.77 1676.89 1391.49 1671.94 1391.49 1666.2C1391.49 1662.24 1392.15 1657.98 1393.47 1653.43C1394.85 1648.87 1396.44 1644.78 1398.22 1641.15L1405.84 1644.71C1404.19 1648.41 1402.87 1651.94 1401.88 1655.31C1400.89 1658.61 1400.4 1661.81 1400.4 1664.91C1400.4 1670.92 1402.21 1675.44 1405.84 1678.47C1409.47 1681.58 1414.65 1683.13 1421.39 1683.13C1425.21 1683.13 1428.84 1682.63 1432.28 1681.64C1435.77 1680.65 1438.68 1679.43 1440.99 1677.98C1443.3 1676.59 1444.72 1675.31 1445.24 1674.12C1444.52 1672.93 1442.18 1671.08 1438.22 1668.57C1434.26 1666.07 1430.06 1663.95 1425.64 1662.24L1427.92 1651.94C1433.2 1653 1437.89 1653.79 1441.98 1654.32C1446.14 1654.85 1450.16 1655.11 1454.06 1655.11H1456.13L1456.73 1660.55L1456.13 1666H1454.06C1451.94 1666 1449.83 1665.9 1447.72 1665.7C1451.75 1668.74 1453.76 1671.68 1453.76 1674.51C1453.69 1677.62 1452.17 1680.68 1449.2 1683.72C1446.23 1686.76 1442.27 1689.2 1437.32 1691.05C1432.44 1692.96 1427.13 1693.92 1421.39 1693.92ZM1433.46 1711.94C1428.25 1712.46 1424.19 1712.83 1421.29 1713.02V1712.93C1416.2 1713.45 1412.21 1713.82 1409.31 1714.01V1704.41C1413.99 1703.95 1417.89 1703.59 1420.99 1703.32C1423.96 1703.12 1428.12 1702.76 1433.46 1702.23V1711.94Z" fill="white"/>
</svg>
