<svg width="3064" height="1431" viewBox="0 0 3064 1431" fill="none" xmlns="http://www.w3.org/2000/svg">
<path d="M36.8934 565.599V0H250.267C283.388 0 312.981 2.98868 338.948 9.01507C364.915 14.9925 387.355 24.0076 406.218 36.0114C425.081 48.0152 439.486 63.3017 449.481 81.8708C459.476 100.44 464.473 121.998 464.473 146.593C464.473 168.298 460.064 187.749 451.196 204.848C442.328 221.997 427.923 236.254 407.933 247.719C387.943 259.135 361.927 266.876 329.933 270.845V281.134C384.219 284.563 423.758 298.135 448.648 321.849C473.488 345.562 485.933 377.115 485.933 416.556C485.933 449.138 478.241 476.281 462.807 497.986C447.374 519.691 423.66 536.398 391.667 548.108C359.673 559.818 319.693 565.697 271.678 565.697H36.8444L36.8934 565.599ZM126.848 244.191H225.426C244.289 244.191 262.124 243.064 278.978 240.762C295.832 238.508 311.413 234.196 325.67 227.925C339.928 221.654 351.246 213.08 359.526 202.203C367.806 191.375 371.971 177.068 371.971 159.332C371.971 143.36 368.247 129.641 360.849 118.176C353.402 106.76 343.407 98.1861 330.864 92.4537C318.272 86.7702 304.308 82.6057 288.875 80.0089C273.442 77.4122 257.175 76.1384 240.027 76.1384H126.897V244.093L126.848 244.191ZM126.848 488.432H271.678C287.65 488.432 302.643 487.305 316.655 485.002C330.668 482.748 343.504 478.437 355.214 472.165C366.924 465.894 376.233 457.32 383.044 446.443C389.903 435.615 393.333 422.141 393.333 406.169C393.333 390.197 390.638 376.772 385.199 365.895C379.761 355.067 371.922 345.905 361.633 338.458C351.344 331.06 339.487 325.18 326.062 320.869C312.638 316.557 298.184 313.715 282.8 312.295C267.366 310.874 251.639 310.139 235.666 310.139H126.848V488.383V488.432Z" fill="white"/>
<path d="M578.484 565.597V338.505L577.651 119.987H659.081L653.104 291.372H665.94C671.085 250.216 678.924 216.556 689.507 190.246C700.09 163.985 714.494 143.995 732.77 130.276C751.045 116.558 773.044 109.698 798.766 109.698C805.625 109.698 812.926 110.433 820.618 111.854C828.31 113.275 837.031 115.725 846.732 119.154L842.47 216.85C832.181 214.009 822.48 211.559 813.318 209.55C804.155 207.541 795.581 206.562 787.595 206.562C764.714 206.562 745.459 213.568 729.732 227.58C714.005 241.593 701.168 260.995 691.173 285.835C681.178 310.676 674.465 339.975 671.036 373.684V565.646H578.484V565.597Z" fill="white"/>
<path d="M1007.83 577.552C984.947 577.552 963.684 572.702 943.988 563.001C924.292 553.3 908.564 539.581 896.854 521.845C885.145 504.157 879.265 481.277 879.265 453.301C879.265 425.324 885.243 402.444 897.246 384.757C909.25 367.069 925.222 353.057 945.212 342.768C965.202 332.479 986.76 325.081 1009.94 320.475C1033.06 315.918 1056.63 311.362 1080.63 306.756C1104.64 303.915 1123.6 300.779 1137.62 297.349C1151.63 293.92 1161.48 289.216 1167.16 283.19C1172.84 277.212 1175.73 269.03 1175.73 258.79C1175.73 243.945 1172.3 231.108 1165.45 220.231C1158.59 209.403 1148.59 200.682 1135.46 194.068C1122.33 187.502 1106.6 184.22 1088.33 184.22C1071.77 184.22 1055.6 187.061 1039.92 192.794C1024.19 198.526 1010.62 208.08 999.205 221.505C987.789 234.93 980.636 252.764 977.794 275.057L893.817 253.646C897.246 229.099 904.645 207.786 916.109 189.805C927.525 171.824 941.832 156.831 958.98 144.828C976.128 132.824 995.971 123.956 1018.56 118.272C1041.14 112.589 1064.12 109.698 1087.54 109.698C1121.25 109.698 1149.67 114.255 1172.79 123.417C1195.92 132.579 1214.34 145.269 1228.06 161.535C1241.78 177.801 1251.63 197.105 1257.61 219.398C1263.58 241.691 1266.62 266.531 1266.62 293.969V381.376C1266.62 401.366 1266.77 421.797 1267.06 442.669C1267.35 463.541 1268.04 484.511 1269.22 505.676C1270.34 526.842 1271.76 546.832 1273.48 565.646H1188.62C1188.03 546.244 1187.44 526.352 1186.91 506.068C1186.32 485.784 1185.73 464.815 1185.19 443.061H1175.78C1168.92 467.656 1158.05 490.047 1143.2 510.331C1128.36 530.615 1109.64 546.881 1087.05 559.179C1064.47 571.477 1038.06 577.601 1007.78 577.601L1007.83 577.552ZM1042.12 505.578C1054.67 505.578 1067.85 502.884 1081.57 497.445C1095.28 492.007 1108.27 484.461 1120.57 474.711C1132.86 465.01 1143.69 452.272 1153.15 436.593C1162.55 420.866 1170.15 403.032 1175.88 383.042L1175.05 324.787L1197.34 323.905C1188.77 332.479 1177.35 339.191 1163.04 344.042C1148.74 348.892 1133.3 352.616 1116.74 355.164C1100.18 357.76 1083.33 360.455 1066.18 363.297C1049.03 366.187 1033.31 370.597 1019.05 376.574C1004.74 382.552 993.473 390.44 985.192 400.141C976.912 409.842 972.748 423.267 972.748 440.415C972.748 461.581 978.872 477.7 991.17 488.822C1003.47 499.944 1020.42 505.529 1042.17 505.529L1042.12 505.578Z" fill="white"/>
<path d="M1372.06 565.6V311.07L1371.22 119.94H1453.49L1445.8 281.036H1458.63C1465.49 239.341 1475.93 206.074 1489.89 181.184C1503.9 156.344 1521.59 138.216 1543 126.751C1564.41 115.335 1589.11 109.603 1617.13 109.603C1642.27 109.603 1663.68 113.914 1681.41 122.439C1699.1 131.013 1713.55 142.723 1724.68 157.569C1735.8 172.414 1744.37 189.122 1750.4 207.691C1756.37 226.26 1760.69 245.809 1763.23 266.387C1765.78 286.965 1767.1 306.955 1767.1 326.357V565.453H1673.67V338.36C1673.67 325.23 1673.08 310.384 1671.96 293.775C1670.78 277.215 1667.4 261.095 1661.67 245.368C1655.94 229.64 1647.21 216.51 1635.55 205.927C1623.84 195.344 1607.43 190.052 1586.26 190.052C1560 190.052 1538.1 198.48 1520.71 215.334C1503.27 232.188 1489.69 255.461 1479.99 285.201C1470.29 314.892 1464.85 349.188 1463.73 388.041V565.453H1372.01L1372.06 565.6Z" fill="white"/>
<path d="M0 1231.54V1149.28H602.443V1231.54H0Z" fill="white"/>
<path d="M1040.41 1430.36C1004.4 1430.36 972.992 1421.05 946.143 1402.48C919.294 1383.91 898.422 1357.06 883.577 1321.93C868.731 1286.8 861.284 1244.67 861.284 1195.53C861.284 1146.38 868.143 1106.99 881.862 1072.11C895.58 1037.27 915.57 1010.57 941.832 992.001C968.093 973.432 999.548 964.123 1036.1 964.123C1066.97 964.123 1092.49 970.002 1112.78 981.712C1133.06 993.422 1149.47 1010.72 1162.06 1033.55C1174.61 1056.43 1184.06 1083.23 1190.33 1114.1H1203.17C1200.28 1094.11 1197.44 1074.56 1194.6 1055.4C1191.71 1036.24 1189.6 1018.12 1188.18 1000.97C1186.76 983.819 1186.02 968.679 1186.02 955.548V820.126H1280.29L1279.46 1209.2L1281.17 1418.31H1198.03L1203.17 1286.31H1189.45C1183.18 1316.59 1173.43 1342.46 1160.3 1363.87C1147.17 1385.28 1130.76 1401.75 1111.01 1413.16C1091.32 1424.58 1067.75 1430.31 1040.31 1430.31L1040.41 1430.36ZM1066.13 1351.53C1085.53 1351.53 1102.98 1346.82 1118.41 1337.37C1133.84 1327.96 1146.39 1315.81 1156.14 1300.96C1165.84 1286.12 1173.43 1270 1178.87 1252.56C1184.31 1235.11 1187 1218.7 1187 1203.27V1192.98C1187 1180.97 1185.44 1168.28 1182.3 1154.86C1179.16 1141.44 1174.61 1128.01 1168.58 1114.59C1162.6 1101.16 1154.57 1088.86 1144.57 1077.74C1134.58 1066.62 1123.02 1057.61 1109.88 1050.75C1096.75 1043.89 1082.15 1040.46 1066.18 1040.46C1043.3 1040.46 1023.6 1047.32 1007.04 1061.03C990.484 1074.75 977.892 1093.18 969.318 1116.3C960.744 1139.43 956.481 1166.72 956.481 1198.12C956.481 1229.53 960.744 1255.84 969.318 1278.67C977.892 1301.55 990.337 1319.39 1006.6 1332.22C1022.87 1345.06 1042.71 1351.53 1066.18 1351.53H1066.13Z" fill="white"/>
<path d="M1494.59 1430.36C1471.71 1430.36 1450.45 1425.51 1430.75 1415.81C1411.06 1406.11 1395.33 1392.39 1383.62 1374.66C1371.91 1356.97 1366.03 1334.09 1366.03 1306.11C1366.03 1278.14 1372.01 1255.25 1384.01 1237.57C1396.02 1219.88 1411.99 1205.87 1431.98 1195.58C1451.97 1185.29 1473.53 1177.89 1496.7 1173.29C1519.83 1168.73 1543.39 1164.17 1567.4 1159.57C1591.41 1156.73 1610.37 1153.59 1624.38 1150.16C1638.39 1146.73 1648.24 1142.03 1653.93 1136C1659.61 1130.02 1662.5 1121.84 1662.5 1111.6C1662.5 1096.76 1659.07 1083.92 1652.21 1073.04C1645.35 1062.21 1635.36 1053.49 1622.23 1046.88C1609.1 1040.31 1593.37 1037.03 1575.09 1037.03C1558.53 1037.03 1542.36 1039.87 1526.69 1045.6C1510.96 1051.34 1497.39 1060.89 1485.97 1074.32C1474.55 1087.74 1467.4 1105.57 1464.56 1127.87L1380.58 1106.46C1384.01 1081.91 1391.41 1060.6 1402.88 1042.62C1414.29 1024.63 1428.6 1009.64 1445.75 997.638C1462.89 985.635 1482.74 976.766 1505.32 971.083C1527.91 965.399 1550.89 962.509 1574.31 962.509C1608.02 962.509 1636.43 967.065 1659.56 976.227C1682.69 985.39 1701.11 998.079 1714.83 1014.35C1728.55 1030.61 1738.39 1049.92 1744.37 1072.21C1750.35 1094.5 1753.39 1119.34 1753.39 1146.78V1234.19C1753.39 1254.18 1753.53 1274.61 1753.83 1295.48C1754.12 1316.35 1754.81 1337.32 1755.98 1358.49C1757.11 1379.65 1758.53 1399.64 1760.25 1418.46H1675.39C1674.8 1399.05 1674.21 1379.16 1673.67 1358.88C1673.08 1338.59 1672.5 1317.63 1671.96 1295.87H1662.55C1655.69 1320.47 1644.81 1342.86 1629.97 1363.14C1615.12 1383.43 1596.41 1399.69 1573.82 1411.99C1551.23 1424.29 1524.82 1430.41 1494.54 1430.41L1494.59 1430.36ZM1528.89 1358.39C1541.43 1358.39 1554.61 1355.69 1568.33 1350.26C1582.05 1344.82 1595.03 1337.27 1607.33 1327.52C1619.63 1317.82 1630.46 1305.08 1639.91 1289.4C1649.32 1273.68 1656.91 1255.84 1662.65 1235.85L1661.81 1177.6L1684.11 1176.72C1675.53 1185.29 1664.12 1192 1649.81 1196.85C1635.5 1201.7 1620.07 1205.43 1603.51 1207.97C1586.95 1210.57 1570.1 1213.27 1552.95 1216.11C1535.8 1219 1520.07 1223.41 1505.81 1229.38C1491.51 1235.36 1480.24 1243.25 1471.96 1252.95C1463.68 1262.65 1459.51 1276.08 1459.51 1293.23C1459.51 1314.39 1465.64 1330.51 1477.94 1341.63C1490.23 1352.75 1507.19 1358.34 1528.94 1358.34L1528.89 1358.39Z" fill="white"/>
<path d="M2007.08 1427.81C1984.79 1427.81 1965.39 1424.68 1948.83 1418.41C1932.27 1412.14 1918.7 1402.53 1908.11 1389.7C1897.53 1376.86 1889.54 1361.57 1884.1 1343.84C1878.67 1326.15 1875.97 1306.11 1875.97 1283.87V1049.03H1816V976.178H1850.3C1868.57 975.639 1881.85 971.474 1890.13 963.733C1898.41 956.041 1903.11 944.184 1904.29 928.162L1911.15 874.17H1967.69V972.699H2087.68V1050.7H1967.69V1279.51C1967.69 1302.93 1973.28 1319.24 1984.4 1328.35C1995.52 1337.52 2009.97 1342.07 2027.66 1342.07C2037.95 1342.07 2048.39 1340.65 2058.92 1337.81C2069.5 1334.97 2079.64 1330.12 2089.34 1323.26V1412.38C2073.91 1418.11 2059.36 1422.08 2045.64 1424.38C2031.92 1426.64 2019.09 1427.81 2007.08 1427.81Z" fill="white"/>
<path d="M2374.69 1133.01V896.709H2328.25V841.737C2342.89 841.737 2355.29 839.336 2365.48 834.485C2375.62 829.684 2382.24 819.248 2385.23 803.275H2438.19V1133.01H2374.74H2374.69Z" fill="white"/>
<path d="M2630.01 1140.02C2609.04 1140.02 2590.12 1136.1 2573.32 1128.26C2556.51 1120.42 2542.16 1109.1 2530.35 1094.3C2518.54 1079.51 2509.67 1061.58 2503.84 1040.61C2498.01 1019.64 2495.12 996.119 2495.12 970.151C2495.12 932.523 2500.86 900.872 2512.37 875.199C2523.88 849.574 2539.9 830.074 2560.58 816.748C2581.21 803.421 2605.21 796.758 2632.5 796.758C2659.8 796.758 2684.49 803.568 2704.43 817.238C2724.42 830.907 2739.8 850.554 2750.63 876.179C2761.46 901.852 2766.85 932.621 2766.85 968.632C2766.85 995.286 2763.86 1019.1 2757.83 1040.07C2751.86 1061.04 2742.74 1079.02 2730.59 1094.01C2718.44 1109 2703.84 1120.42 2686.89 1128.26C2669.89 1136.1 2650.93 1140.02 2629.91 1140.02H2630.01ZM2631.52 1089.06C2642.21 1089.06 2651.66 1086.56 2659.99 1081.57C2668.32 1076.57 2675.82 1069.42 2682.48 1060.11C2689.14 1050.8 2694.29 1038.7 2697.96 1023.9C2701.64 1009.1 2703.45 991.366 2703.45 970.69C2703.45 944.723 2700.51 922.577 2694.68 904.253C2688.85 885.929 2680.62 871.867 2669.94 862.019C2659.26 852.22 2646.13 847.272 2630.45 847.272C2617.81 847.272 2606.05 851.583 2595.22 860.255C2584.39 868.927 2575.57 882.009 2568.76 899.451C2561.95 916.943 2558.52 940.019 2558.52 968.632C2558.52 988.965 2560.33 1006.51 2564.01 1021.35C2567.68 1036.2 2572.78 1048.59 2579.25 1058.59C2585.76 1068.58 2593.41 1076.18 2602.23 1081.32C2611.04 1086.47 2620.79 1089.06 2631.48 1089.06H2631.52Z" fill="white"/>
<path d="M2927.8 1140.02C2906.48 1140.02 2887.92 1137.77 2872.09 1133.26C2856.27 1128.75 2843.04 1122.43 2832.36 1114.3C2821.67 1106.11 2813.69 1095.83 2808.4 1083.33C2803.06 1070.84 2800.41 1057.12 2800.41 1042.13L2857.88 1027.13C2858.57 1038.11 2860.72 1047.52 2864.4 1055.36C2868.07 1063.19 2873.22 1069.66 2879.88 1074.86C2886.54 1080 2894.14 1083.87 2902.61 1086.37C2911.09 1088.87 2920.2 1090.09 2929.86 1090.09C2943.18 1090.09 2955.09 1088.08 2965.57 1084.12C2976.06 1080.1 2984.39 1074.12 2990.56 1066.13C2996.73 1058.15 2999.82 1048.01 2999.82 1035.66C2999.82 1019.34 2994.92 1006.36 2985.07 996.708C2975.23 987.056 2960.33 980.54 2940.34 977.208C2920.35 973.877 2896.05 973.191 2867.39 975.2V936.738L2976.79 858.297V855.309H2815.4V802.835H3043.72V861.776L2936.81 940.217V944.235C2967.78 943.255 2992.52 946.831 3010.99 954.965C3029.46 963.147 3042.89 974.465 3051.22 988.918C3059.55 1003.42 3063.71 1019.83 3063.71 1038.11C3063.71 1058.79 3058.61 1076.67 3048.47 1091.81C3038.33 1106.95 3023.34 1118.8 3003.5 1127.28C2983.65 1135.76 2958.42 1140.02 2927.8 1140.02Z" fill="white"/>
</svg>
