<svg width="3003" height="1522" viewBox="0 0 3003 1522" fill="none" xmlns="http://www.w3.org/2000/svg">
<path d="M28.4662 436.952V0H193.324C218.927 0 241.774 2.33238 261.864 6.94414C281.954 11.5559 299.288 18.5531 313.813 27.7767C328.39 37.0532 339.522 48.8741 347.261 63.1865C355.001 77.5519 358.87 94.1967 358.87 113.174C358.87 129.978 355.425 144.926 348.586 158.178C341.748 171.431 330.617 182.456 315.138 191.256C299.659 200.108 279.622 206.045 254.92 209.12V217.071C296.85 219.722 327.436 230.217 346.625 248.505C365.814 266.846 375.409 291.23 375.409 321.658C375.409 346.837 369.472 367.775 357.545 384.526C345.618 401.33 327.33 414.211 302.575 423.275C277.873 432.34 246.969 436.846 209.915 436.846H28.5192V436.952H28.4662ZM97.9608 188.658H174.081C188.659 188.658 202.441 187.757 215.481 186.008C228.468 184.259 240.501 180.919 251.58 176.095C262.606 171.219 271.353 164.645 277.714 156.217C284.128 147.842 287.308 136.816 287.308 123.139C287.308 110.788 284.446 100.187 278.721 91.3872C272.996 82.5878 265.257 75.9617 255.556 71.5089C245.855 67.1092 235.042 63.8756 223.115 61.9143C211.188 59.9529 198.624 58.9458 185.372 58.9458H97.9608V188.711V188.658ZM97.9608 377.37H209.862C222.213 377.37 233.822 376.469 244.636 374.719C255.45 372.97 265.363 369.63 274.427 364.807C283.492 359.93 290.648 353.357 295.949 344.928C301.25 336.553 303.9 326.163 303.9 313.812C303.9 301.461 301.78 291.071 297.592 282.696C293.404 274.321 287.308 267.27 279.41 261.493C271.459 255.768 262.288 251.209 251.951 247.922C241.562 244.636 230.43 242.409 218.503 241.296C206.576 240.183 194.437 239.653 182.086 239.653H98.0137V377.37H97.9608Z" fill="white"/>
<path d="M446.864 436.954V261.494L446.228 92.6613H509.096L504.484 225.077H514.397C518.373 193.325 524.416 167.245 532.579 146.942C540.742 126.64 551.874 111.214 566.028 100.613C580.128 90.0108 597.144 84.71 617.022 84.71C622.323 84.71 627.942 85.293 633.879 86.3532C639.816 87.4664 646.548 89.3218 654.075 91.9722L650.789 167.457C642.838 165.23 635.31 163.375 628.26 161.838C621.21 160.301 614.584 159.505 608.382 159.505C590.73 159.505 575.834 164.912 563.695 175.726C551.556 186.54 541.644 201.541 533.904 220.731C526.165 239.92 520.97 262.555 518.373 288.582V436.901H446.864V436.954Z" fill="white"/>
<path d="M778.54 446.176C760.888 446.176 744.455 442.412 729.242 434.938C714.028 427.464 701.889 416.862 692.825 403.186C683.76 389.509 679.254 371.857 679.254 350.23C679.254 328.602 683.866 310.95 693.143 297.274C702.419 283.598 714.77 272.784 730.196 264.833C745.622 256.881 762.319 251.156 780.183 247.605C798.047 244.053 816.282 240.555 834.782 237.003C853.335 234.777 867.966 232.391 878.833 229.741C889.646 227.09 897.28 223.433 901.679 218.821C906.079 214.209 908.305 207.901 908.305 199.95C908.305 188.5 905.655 178.534 900.354 170.159C895.053 161.784 887.314 155.051 877.189 149.963C867.012 144.874 854.873 142.329 840.772 142.329C827.944 142.329 815.487 144.556 803.348 148.955C791.209 153.355 780.713 160.776 771.914 171.113C763.061 181.503 757.549 195.285 755.375 212.513L690.492 195.974C693.143 176.997 698.868 160.564 707.72 146.676C716.52 132.788 727.599 121.179 740.798 111.902C754.05 102.626 769.369 95.7876 786.809 91.3878C804.249 86.9881 822.007 84.7617 840.083 84.7617C866.11 84.7617 888.056 88.3133 905.973 95.3635C923.837 102.414 938.097 112.22 948.698 124.836C959.3 137.399 966.88 152.295 971.545 169.523C976.157 186.751 978.489 205.94 978.489 227.143V294.677C978.489 310.155 978.595 325.899 978.807 342.014C979.019 358.128 979.549 374.349 980.451 390.676C981.352 407.002 982.412 422.428 983.737 437.005H918.218C917.794 422.004 917.317 406.684 916.893 390.994C916.469 375.356 915.992 359.135 915.568 342.332H908.305C903.005 361.309 894.629 378.643 883.126 394.28C871.623 409.971 857.205 422.534 839.765 432.022C822.325 441.511 801.917 446.282 778.54 446.282V446.176ZM804.991 390.57C814.692 390.57 824.87 388.502 835.471 384.262C846.073 380.074 856.092 374.243 865.58 366.716C875.069 359.241 883.444 349.382 890.76 337.243C898.022 325.104 903.906 311.321 908.305 295.843L907.669 250.838L924.897 250.202C918.271 256.828 909.419 262.023 898.393 265.734C887.367 269.497 875.44 272.36 862.665 274.321C849.837 276.283 836.85 278.403 823.597 280.629C810.345 282.856 798.206 286.248 787.18 290.913C776.155 295.525 767.408 301.621 761.047 309.095C754.633 316.622 751.452 326.959 751.452 340.211C751.452 356.538 756.17 368.995 765.659 377.635C775.147 386.223 788.294 390.57 805.044 390.57H804.991Z" fill="white"/>
<path d="M1059.91 436.952V240.343L1059.28 92.713H1122.83L1116.9 217.178H1126.81C1132.11 184.948 1140.17 159.239 1150.98 140.05C1161.8 120.861 1175.47 106.866 1192.01 98.0139C1208.55 89.2145 1227.63 84.7617 1249.26 84.7617C1268.66 84.7617 1285.25 88.0482 1298.93 94.6743C1312.61 101.3 1323.74 110.365 1332.38 121.815C1340.96 133.318 1347.59 146.199 1352.26 160.564C1356.87 174.93 1360.21 190.037 1362.17 205.887C1364.13 221.79 1365.14 237.215 1365.14 252.217V436.899H1292.99V261.44C1292.99 251.315 1292.57 239.813 1291.67 227.037C1290.77 214.262 1288.12 201.752 1283.72 189.613C1279.32 177.474 1272.58 167.349 1263.52 159.186C1254.45 151.023 1241.79 146.941 1225.46 146.941C1205.16 146.941 1188.25 153.461 1174.84 166.448C1161.37 179.488 1150.88 197.458 1143.4 220.411C1135.87 243.364 1131.69 269.868 1130.84 299.871V436.899H1059.91V436.952Z" fill="white"/>
<path d="M1729.2 292.609V229.052H2194.62V292.609H1729.2Z" fill="white"/>
<path d="M925.481 830.333V766.775H1390.9V830.333H925.481Z" fill="white"/>
<path d="M2191.97 983.949C2164.14 983.949 2139.86 976.793 2119.13 962.427C2098.41 948.115 2082.29 927.335 2070.79 900.195C2059.29 873.054 2053.56 840.507 2053.56 802.553C2053.56 764.598 2058.86 734.171 2069.46 707.243C2080.07 680.314 2095.49 659.694 2115.79 645.329C2136.1 631.016 2160.37 623.807 2188.63 623.807C2212.48 623.807 2232.2 628.313 2247.89 637.377C2263.53 646.442 2276.25 659.8 2285.95 677.452C2295.65 695.104 2302.91 715.83 2307.79 739.684H2317.7C2315.48 724.259 2313.3 709.151 2311.08 694.362C2308.85 679.572 2307.21 665.578 2306.1 652.326C2304.98 639.074 2304.45 627.411 2304.45 617.234V512.647H2377.29L2376.65 813.207L2377.98 974.725H2313.78L2317.76 872.789H2307.16C2302.28 896.166 2294.8 916.151 2284.63 932.689C2274.45 949.228 2261.78 961.95 2246.57 970.75C2231.35 979.549 2213.12 984.002 2191.97 984.002V983.949ZM2211.79 923.042C2226.79 923.042 2240.26 919.384 2252.19 912.122C2264.11 904.86 2273.81 895.477 2281.34 883.974C2288.81 872.524 2294.7 860.014 2298.89 846.55C2303.07 833.086 2305.19 820.417 2305.19 808.49V800.538C2305.19 791.262 2303.97 781.455 2301.54 771.066C2299.1 760.676 2295.6 750.339 2290.93 739.949C2286.32 729.56 2280.12 720.071 2272.38 711.483C2264.64 702.896 2255.74 695.952 2245.56 690.651C2235.38 685.35 2224.14 682.7 2211.79 682.7C2194.14 682.7 2178.93 688.001 2166.1 698.602C2153.27 709.204 2143.57 723.41 2136.94 741.327C2130.32 759.244 2127.03 780.289 2127.03 804.567C2127.03 828.845 2130.32 849.148 2136.94 866.799C2143.57 884.451 2153.16 898.234 2165.73 908.199C2178.29 918.112 2193.66 923.095 2211.74 923.095H2211.79V923.042Z" fill="white"/>
<path d="M2542.83 983.951C2525.18 983.951 2508.75 980.188 2493.54 972.713C2478.32 965.239 2466.18 954.637 2457.12 940.961C2448.05 927.285 2443.55 909.633 2443.55 888.005C2443.55 866.378 2448.16 848.726 2457.44 835.05C2466.71 821.373 2479.06 810.559 2494.49 802.608C2509.92 794.657 2526.61 788.932 2544.48 785.38C2562.34 781.829 2580.58 778.33 2599.08 774.778C2617.63 772.552 2632.26 770.167 2643.13 767.516C2653.94 764.866 2661.57 761.208 2665.97 756.596C2670.37 751.985 2672.6 745.677 2672.6 737.725C2672.6 726.275 2669.95 716.31 2664.65 707.934C2659.35 699.559 2651.61 692.827 2641.48 687.738C2631.31 682.649 2619.17 680.105 2605.07 680.105C2592.24 680.105 2579.78 682.331 2567.64 686.731C2555.5 691.131 2545.01 698.552 2536.21 708.889C2527.36 719.278 2521.84 733.061 2519.67 750.288L2454.79 733.75C2457.44 714.773 2463.16 698.34 2472.01 684.452C2480.81 670.563 2491.89 658.954 2505.09 649.678C2518.34 640.401 2533.66 633.563 2551.1 629.163C2568.54 624.763 2586.3 622.537 2604.38 622.537C2630.4 622.537 2652.35 626.089 2670.27 633.139C2688.13 640.189 2702.39 649.996 2712.99 662.612C2723.59 675.228 2731.17 690.07 2735.84 707.298C2740.45 724.526 2742.78 743.715 2742.78 764.919V832.452C2742.78 847.931 2742.89 863.674 2743.1 879.789C2743.31 895.904 2743.84 912.124 2744.74 928.451C2745.65 944.778 2746.71 960.203 2748.03 974.781H2682.51C2682.09 959.779 2681.61 944.46 2681.19 928.769C2680.76 913.132 2680.29 896.911 2679.86 880.107H2672.6C2667.3 899.084 2658.92 916.418 2647.42 932.056C2635.92 947.746 2621.5 960.309 2604.06 969.798C2586.62 979.287 2566.21 984.057 2542.83 984.057V983.951ZM2569.34 928.345C2579.04 928.345 2589.22 926.278 2599.77 922.037C2610.37 917.849 2620.39 912.018 2629.87 904.491C2639.36 897.017 2647.74 887.157 2655.05 875.018C2662.32 862.879 2668.2 849.097 2672.6 833.618L2671.96 788.614L2689.19 787.978C2682.56 794.604 2673.71 799.799 2662.69 803.509C2651.66 807.273 2639.73 810.135 2626.96 812.097C2614.13 814.058 2601.14 816.178 2587.89 818.405C2574.64 820.631 2562.5 824.024 2551.47 828.689C2540.45 833.3 2531.7 839.396 2525.34 846.871C2518.93 854.398 2515.75 864.734 2515.75 877.987C2515.75 894.313 2520.46 906.77 2530.01 915.411C2539.49 923.998 2552.64 928.345 2569.39 928.345H2569.34Z" fill="white"/>
<path d="M2938.7 981.938C2921.48 981.938 2906.47 979.499 2893.7 974.676C2880.87 969.799 2870.43 962.43 2862.27 952.518C2854.1 942.605 2847.9 930.784 2843.71 917.108C2839.52 903.432 2837.4 887.953 2837.4 870.778V689.382H2791.07V633.087H2817.58C2831.68 632.663 2841.96 629.429 2848.38 623.492C2854.79 617.555 2858.4 608.384 2859.3 596.033L2864.6 554.315H2908.28V630.436H3000.94V690.654H2908.28V867.439C2908.28 885.515 2912.57 898.131 2921.21 905.181C2929.8 912.231 2940.93 915.783 2954.66 915.783C2962.61 915.783 2970.67 914.669 2978.83 912.496C2987 910.27 2994.84 906.559 3002.31 901.258V970.117C2990.39 974.516 2979.15 977.591 2968.55 979.393C2957.95 981.143 2948.03 982.044 2938.76 982.044V981.938H2938.7Z" fill="white"/>
<path d="M62.2324 1512.39V1186.65H0V1124.42C18.9772 1124.42 35.3039 1121.35 48.9802 1115.15C62.6565 1109 71.2439 1095.74 74.7955 1075.44H133.688V1512.39H62.1794H62.2324Z" fill="white"/>
<path d="M389.933 1521.67C361.68 1521.67 336.765 1516.37 315.138 1505.77C293.51 1495.17 275.169 1480.06 260.168 1460.39C245.166 1440.78 233.928 1417.03 226.401 1389.2C218.874 1361.37 215.163 1330.26 215.163 1295.85C215.163 1247.3 222.531 1205.95 237.321 1171.71C252.11 1137.52 272.731 1111.59 299.235 1093.94C325.74 1076.29 356.591 1067.44 391.895 1067.44C428.948 1067.44 460.541 1076.61 486.568 1094.9C512.596 1113.24 532.58 1139.48 546.468 1173.67C560.357 1207.86 567.301 1248.15 567.301 1294.48C567.301 1328.88 563.325 1359.89 555.374 1387.51C547.422 1415.07 535.867 1439.03 520.6 1459.33C505.386 1479.64 486.727 1495.06 464.676 1505.66C442.624 1516.26 417.657 1521.56 389.88 1521.56V1521.67H389.933ZM391.259 1461.4C406.26 1461.4 420.042 1457.85 432.658 1450.8C445.221 1443.75 456.141 1433.57 465.418 1420.37C474.694 1407.17 481.851 1390.16 486.939 1369.38C492.028 1348.65 494.573 1324.16 494.573 1295.91C494.573 1261.03 490.385 1230.92 482.01 1205.53C473.634 1180.14 461.919 1160.52 446.918 1146.58C431.916 1132.69 413.151 1125.75 390.622 1125.75C372.069 1125.75 354.894 1131.84 338.992 1143.93C323.089 1156.07 310.42 1174.36 300.931 1198.9C291.443 1223.39 286.672 1255.3 286.672 1294.58C286.672 1322.41 289.216 1346.53 294.305 1367.1C299.394 1387.61 306.55 1405.05 315.827 1419.42C325.103 1433.78 336.129 1444.33 348.904 1451.17C361.68 1458.01 375.833 1461.45 391.259 1461.45V1461.4Z" fill="white"/>
<path d="M779.177 1521.67C751.824 1521.67 727.758 1518.7 707.032 1512.71C686.305 1506.78 669.29 1498.24 656.037 1487.22C642.785 1476.19 632.66 1462.41 625.557 1445.82C618.507 1429.28 615.168 1411.31 615.645 1391.85L681.853 1375.31C681.853 1392.12 684.715 1406.01 690.44 1417.03C696.165 1428.06 703.798 1437.02 713.287 1443.85C722.776 1450.69 733.377 1455.57 745.039 1458.43C756.754 1461.29 768.734 1462.73 781.138 1462.73C800.115 1462.73 817.343 1460.08 832.769 1454.77C848.194 1449.47 860.598 1441.2 869.822 1429.97C879.099 1418.73 883.71 1404.05 883.71 1385.92C883.71 1361.64 876.66 1342.98 862.507 1329.99C848.353 1316.95 828.21 1307.94 801.918 1302.85C775.678 1297.76 743.767 1296.54 706.237 1299.19V1253.5L853.866 1138.95V1134.34H634.728V1075.39H930.676V1146.21L787.022 1256.79V1261.4C828.528 1260.07 861.606 1264.95 886.308 1275.98C911.01 1287 928.874 1302.11 939.953 1321.35C950.978 1340.54 956.491 1362.27 956.491 1386.55C956.491 1413.9 949.865 1437.86 936.613 1458.38C923.361 1478.89 903.854 1494.58 878.038 1505.4C852.223 1516.21 819.199 1521.62 779.071 1521.62H779.177V1521.67Z" fill="white"/>
</svg>
