<?xml version="1.0" encoding="UTF-8"?>
<svg id="Layer_1" xmlns="http://www.w3.org/2000/svg" version="1.1" viewBox="0 0 841.89 595.28">
  <!-- Generator: Adobe Illustrator 30.1.0, SVG Export Plug-In . SVG Version: 2.1.1 Build 136)  -->
  <defs>
    <style>
      .st0 {
        fill: #fff;
      }
    </style>
  </defs>
  <g id="Layer_11" data-name="Layer_1">
    <g>
      <path class="st0" d="M143.13,236.54v-82.43h31.1c4.83,0,9.14.44,12.93,1.31s7.06,2.19,9.8,3.93c2.75,1.75,4.85,3.98,6.31,6.68,1.46,2.71,2.19,5.85,2.19,9.43,0,3.17-.65,5.99-1.94,8.49-1.29,2.5-3.39,4.58-6.31,6.24-2.92,1.67-6.7,2.79-11.36,3.37v1.5c7.91.5,13.68,2.48,17.3,5.93,3.62,3.46,5.43,8.06,5.43,13.8,0,4.75-1.12,8.7-3.37,11.86-2.25,3.17-5.7,5.6-10.37,7.31-4.66,1.71-10.49,2.56-17.48,2.56h-34.22v.02ZM156.24,189.7h14.36c2.75,0,5.35-.17,7.81-.5,2.45-.33,4.72-.96,6.81-1.87,2.08-.92,3.73-2.16,4.93-3.75,1.21-1.58,1.81-3.66,1.81-6.24,0-2.33-.54-4.33-1.62-5.99s-2.54-2.91-4.37-3.75c-1.83-.83-3.87-1.44-6.12-1.81s-4.62-.56-7.12-.56h-16.49v24.48h0ZM156.24,225.3h21.11c2.33,0,4.52-.17,6.56-.5s3.91-.96,5.62-1.87c1.71-.92,3.06-2.16,4.06-3.75,1-1.58,1.5-3.54,1.5-5.87s-.4-4.29-1.19-5.87c-.79-1.58-1.94-2.91-3.43-4-1.5-1.08-3.23-1.94-5.18-2.56-1.96-.62-4.06-1.04-6.31-1.25s-4.54-.31-6.87-.31h-15.86v25.98h-.01Z"/>
      <path class="st0" d="M222.06,236.54v-33.1l-.12-31.85h11.86l-.87,24.98h1.87c.75-5.99,1.89-10.91,3.43-14.74s3.64-6.74,6.31-8.74c2.66-2,5.87-3,9.62-3,1,0,2.06.11,3.18.31,1.12.21,2.39.56,3.81,1.06l-.62,14.24c-1.5-.42-2.92-.77-4.25-1.06-1.33-.29-2.58-.44-3.75-.44-3.33,0-6.14,1.02-8.43,3.06s-4.16,4.87-5.62,8.49c-1.46,3.62-2.44,7.89-2.93,12.8v27.98h-13.49Z"/>
      <path class="st0" d="M284.63,238.28c-3.33,0-6.43-.71-9.3-2.12-2.87-1.41-5.16-3.41-6.87-5.99s-2.56-5.91-2.56-9.99.87-7.41,2.62-9.99,4.08-4.62,6.99-6.12,6.06-2.58,9.43-3.25,6.81-1.33,10.3-2c3.5-.42,6.26-.87,8.31-1.37,2.04-.5,3.48-1.19,4.31-2.06s1.25-2.06,1.25-3.56c0-2.16-.5-4.04-1.5-5.62s-2.46-2.85-4.37-3.81c-1.92-.96-4.21-1.44-6.87-1.44-2.42,0-4.77.42-7.06,1.25s-4.27,2.23-5.93,4.18c-1.67,1.96-2.71,4.56-3.12,7.81l-12.24-3.12c.5-3.58,1.58-6.68,3.25-9.3,1.66-2.62,3.75-4.81,6.24-6.56,2.5-1.75,5.39-3.04,8.68-3.87,3.29-.83,6.64-1.25,10.05-1.25,4.91,0,9.05.67,12.43,2,3.37,1.33,6.06,3.18,8.06,5.56,2,2.37,3.43,5.18,4.31,8.43.87,3.25,1.31,6.87,1.31,10.87v12.74c0,2.92.02,5.89.06,8.93.04,3.04.14,6.1.31,9.18.17,3.08.37,5.99.62,8.74h-12.36c-.08-2.83-.17-5.72-.25-8.68-.08-2.95-.17-6.01-.25-9.18h-1.37c-1,3.58-2.58,6.85-4.75,9.8-2.17,2.96-4.89,5.33-8.18,7.12-3.29,1.79-7.14,2.69-11.55,2.69v-.02ZM289.62,227.79c1.83,0,3.75-.39,5.75-1.19,2-.79,3.89-1.89,5.68-3.31,1.79-1.41,3.37-3.27,4.75-5.56,1.37-2.29,2.48-4.89,3.31-7.81l-.12-8.49,3.25-.12c-1.25,1.25-2.92,2.23-5,2.93-2.08.71-4.33,1.25-6.74,1.62-2.42.37-4.87.77-7.37,1.19s-4.79,1.06-6.87,1.94c-2.08.87-3.73,2.02-4.93,3.43-1.21,1.42-1.81,3.37-1.81,5.87,0,3.08.89,5.43,2.68,7.06,1.79,1.62,4.27,2.44,7.43,2.44h-.01Z"/>
      <path class="st0" d="M337.71,236.54v-37.09l-.12-27.85h11.99l-1.12,23.48h1.87c1-6.08,2.52-10.93,4.56-14.55,2.04-3.62,4.62-6.26,7.74-7.93,3.12-1.66,6.72-2.5,10.8-2.5,3.66,0,6.79.62,9.37,1.87s4.68,2.96,6.31,5.12c1.62,2.17,2.87,4.6,3.75,7.31.87,2.71,1.5,5.56,1.87,8.55.37,3,.56,5.91.56,8.74v34.84h-13.61v-33.1c0-1.91-.08-4.08-.25-6.49s-.67-4.77-1.5-7.06-2.1-4.2-3.81-5.74c-1.71-1.54-4.1-2.31-7.18-2.31-3.83,0-7.02,1.23-9.55,3.68-2.54,2.46-4.52,5.85-5.93,10.18-1.42,4.33-2.21,9.33-2.37,14.99v25.85h-13.38Z"/>
      <path class="st0" d="M463.97,209.31v-11.99h87.8v11.99h-87.8Z"/>
      <path class="st0" d="M312.35,310.75v-11.99h87.8v11.99h-87.8Z"/>
      <path class="st0" d="M551.27,339.73c-5.25,0-9.83-1.35-13.74-4.06-3.91-2.7-6.95-6.62-9.12-11.74s-3.25-11.26-3.25-18.42,1-12.9,3-17.98c2-5.08,4.91-8.97,8.74-11.68,3.83-2.7,8.41-4.06,13.74-4.06,4.5,0,8.22.85,11.18,2.56,2.95,1.71,5.35,4.23,7.18,7.56s3.2,7.24,4.12,11.74h1.87c-.42-2.91-.83-5.76-1.25-8.55-.42-2.79-.73-5.43-.94-7.93s-.31-4.7-.31-6.62v-19.73h13.74l-.12,56.7.25,30.47h-12.11l.75-19.23h-2c-.92,4.41-2.33,8.18-4.25,11.3s-4.31,5.52-7.18,7.18-6.31,2.5-10.3,2.5h0ZM555.01,328.24c2.83,0,5.37-.69,7.62-2.06s4.08-3.14,5.5-5.31c1.41-2.16,2.52-4.52,3.31-7.06s1.19-4.93,1.19-7.18v-1.5c0-1.75-.23-3.6-.69-5.56s-1.12-3.91-2-5.87c-.87-1.96-2.04-3.75-3.5-5.37s-3.14-2.93-5.06-3.93-4.04-1.5-6.37-1.5c-3.33,0-6.2,1-8.62,3s-4.25,4.68-5.5,8.06-1.87,7.35-1.87,11.93.62,8.41,1.87,11.74,3.06,5.93,5.43,7.81c2.37,1.87,5.27,2.81,8.68,2.81h.01Z"/>
      <path class="st0" d="M617.46,339.73c-3.33,0-6.43-.71-9.3-2.12s-5.16-3.41-6.87-5.99-2.56-5.91-2.56-9.99.87-7.41,2.62-9.99,4.08-4.62,6.99-6.12,6.06-2.58,9.43-3.25,6.81-1.33,10.3-2c3.5-.42,6.26-.87,8.31-1.37,2.04-.5,3.48-1.19,4.31-2.06s1.25-2.06,1.25-3.56c0-2.16-.5-4.04-1.5-5.62s-2.46-2.85-4.37-3.81c-1.92-.96-4.21-1.44-6.87-1.44-2.42,0-4.77.42-7.06,1.25s-4.27,2.23-5.93,4.18c-1.67,1.96-2.71,4.56-3.12,7.81l-12.24-3.12c.5-3.58,1.58-6.68,3.25-9.3,1.66-2.62,3.75-4.81,6.24-6.56,2.5-1.75,5.39-3.04,8.68-3.87s6.64-1.25,10.05-1.25c4.91,0,9.05.67,12.43,2,3.37,1.33,6.06,3.18,8.06,5.56s3.43,5.18,4.31,8.43c.87,3.25,1.31,6.87,1.31,10.87v12.74c0,2.92.02,5.89.06,8.93.04,3.04.14,6.1.31,9.18s.37,5.99.62,8.74h-12.36c-.08-2.83-.17-5.72-.25-8.68-.08-2.95-.17-6.01-.25-9.18h-1.37c-1,3.58-2.58,6.85-4.75,9.8-2.17,2.96-4.89,5.33-8.18,7.12s-7.14,2.69-11.55,2.69v-.02ZM622.46,329.24c1.83,0,3.75-.39,5.74-1.19,2-.79,3.89-1.89,5.68-3.31,1.79-1.41,3.37-3.27,4.75-5.56,1.37-2.29,2.48-4.89,3.31-7.81l-.12-8.49,3.25-.12c-1.25,1.25-2.92,2.23-5,2.93-2.08.71-4.33,1.25-6.74,1.62-2.42.37-4.87.77-7.37,1.19s-4.79,1.06-6.87,1.94c-2.08.87-3.73,2.02-4.93,3.43-1.21,1.42-1.81,3.37-1.81,5.87,0,3.08.89,5.43,2.69,7.06,1.79,1.62,4.27,2.44,7.43,2.44h-.01Z"/>
      <path class="st0" d="M692.14,339.35c-3.25,0-6.08-.46-8.49-1.37-2.42-.92-4.39-2.31-5.93-4.18s-2.71-4.1-3.5-6.68-1.19-5.5-1.19-8.74v-34.22h-8.74v-10.62h5c2.66-.08,4.6-.69,5.81-1.81s1.89-2.85,2.06-5.18l1-7.87h8.24v14.36h17.48v11.36h-17.48v33.35c0,3.41.81,5.79,2.44,7.12,1.62,1.33,3.72,2,6.31,2,1.5,0,3.02-.21,4.56-.62,1.54-.42,3.02-1.12,4.43-2.12v12.99c-2.25.83-4.37,1.41-6.37,1.75-2,.33-3.87.5-5.62.5v-.02Z"/>
      <path class="st0" d="M149.5,439.42v-61.45h-11.74v-11.74c3.58,0,6.66-.58,9.24-1.75,2.58-1.16,4.2-3.66,4.87-7.49h11.11v82.43h-13.49.01Z"/>
      <path class="st0" d="M211.32,441.17c-5.33,0-10.03-1-14.11-3s-7.54-4.85-10.37-8.56c-2.83-3.7-4.95-8.18-6.37-13.43s-2.12-11.12-2.12-17.61c0-9.16,1.39-16.96,4.18-23.42,2.79-6.45,6.68-11.34,11.68-14.67,5-3.33,10.82-5,17.48-5,6.99,0,12.95,1.73,17.86,5.18,4.91,3.46,8.68,8.41,11.3,14.86,2.62,6.45,3.93,14.05,3.93,22.79,0,6.49-.75,12.34-2.25,17.55-1.5,5.2-3.68,9.72-6.56,13.55-2.87,3.83-6.39,6.74-10.55,8.74s-8.87,3-14.11,3v.02ZM211.57,429.8c2.83,0,5.43-.67,7.81-2,2.37-1.33,4.43-3.25,6.18-5.74s3.1-5.7,4.06-9.62c.96-3.91,1.44-8.53,1.44-13.86,0-6.58-.79-12.26-2.37-17.05-1.58-4.79-3.79-8.49-6.62-11.12-2.83-2.62-6.37-3.93-10.62-3.93-3.5,0-6.74,1.15-9.74,3.43-3,2.29-5.39,5.74-7.18,10.37-1.79,4.62-2.69,10.64-2.69,18.05,0,5.25.48,9.8,1.44,13.68.96,3.87,2.31,7.16,4.06,9.87s3.83,4.7,6.24,5.99c2.41,1.29,5.08,1.94,7.99,1.94h0Z"/>
      <path class="st0" d="M284.75,441.17c-5.16,0-9.7-.56-13.61-1.69-3.91-1.12-7.12-2.73-9.62-4.81s-4.41-4.68-5.75-7.81c-1.33-3.12-1.96-6.51-1.87-10.18l12.49-3.12c0,3.17.54,5.79,1.62,7.87s2.52,3.77,4.31,5.06,3.79,2.21,5.99,2.75c2.21.54,4.47.81,6.81.81,3.58,0,6.83-.5,9.74-1.5s5.25-2.56,6.99-4.68c1.75-2.12,2.62-4.89,2.62-8.31,0-4.58-1.33-8.1-4-10.55-2.67-2.46-6.47-4.16-11.43-5.12-4.95-.96-10.97-1.19-18.05-.69v-8.62l27.85-21.61v-.87h-41.34v-11.12h55.83v13.36l-27.1,20.86v.87c7.83-.25,14.07.67,18.73,2.75s8.03,4.93,10.12,8.56c2.08,3.62,3.12,7.72,3.12,12.3,0,5.16-1.25,9.68-3.75,13.55s-6.18,6.83-11.05,8.87-11.1,3.06-18.67,3.06h.02Z"/>
    </g>
  </g>
</svg>