<?xml version="1.0" encoding="UTF-8"?>
<svg id="Layer_1" xmlns="http://www.w3.org/2000/svg" version="1.1" viewBox="0 0 841.89 595.28">
  <!-- Generator: Adobe Illustrator 30.1.0, SVG Export Plug-In . SVG Version: 2.1.1 Build 136)  -->
  <defs>
    <style>
      .st0 {
        fill: #fff;
      }
    </style>
  </defs>
  <path class="st0" d="M115.82,267.11v-115.44h43.55c6.76,0,12.8.61,18.1,1.84,5.3,1.22,9.88,3.06,13.73,5.51,3.85,2.45,6.79,5.57,8.83,9.36,2.04,3.79,3.06,8.19,3.06,13.21,0,4.43-.9,8.4-2.71,11.89-1.81,3.5-4.75,6.41-8.83,8.75-4.08,2.33-9.39,3.91-15.92,4.72v2.1c11.08.7,19.15,3.47,24.23,8.31,5.07,4.84,7.61,11.28,7.61,19.33,0,6.65-1.57,12.19-4.72,16.62-3.15,4.43-7.99,7.84-14.52,10.23-6.53,2.39-14.69,3.59-24.49,3.59h-47.93ZM134.18,201.51h20.12c3.85,0,7.49-.23,10.93-.7,3.44-.46,6.62-1.34,9.53-2.62,2.91-1.28,5.22-3.03,6.91-5.25,1.69-2.21,2.54-5.13,2.54-8.75,0-3.26-.76-6.06-2.27-8.4-1.52-2.33-3.56-4.08-6.12-5.25-2.57-1.16-5.42-2.01-8.57-2.54-3.15-.53-6.47-.79-9.97-.79h-23.09v34.28ZM134.18,251.36h29.56c3.26,0,6.32-.23,9.18-.7,2.86-.46,5.48-1.34,7.87-2.62,2.39-1.28,4.29-3.03,5.68-5.25,1.4-2.21,2.1-4.96,2.1-8.22s-.55-6-1.66-8.22c-1.11-2.21-2.71-4.08-4.81-5.6-2.1-1.51-4.52-2.71-7.26-3.59-2.74-.88-5.69-1.46-8.83-1.75-3.15-.29-6.36-.44-9.62-.44h-22.21v36.38Z"/>
  <path class="st0" d="M226.36,267.11v-46.35l-.17-44.6h16.62l-1.22,34.98h2.62c1.05-8.4,2.65-15.27,4.81-20.64,2.16-5.36,5.1-9.44,8.83-12.24,3.73-2.8,8.22-4.2,13.47-4.2,1.4,0,2.89.15,4.46.44,1.57.29,3.35.79,5.33,1.49l-.87,19.94c-2.1-.58-4.08-1.08-5.95-1.49-1.87-.41-3.62-.61-5.25-.61-4.67,0-8.6,1.43-11.81,4.29-3.21,2.86-5.83,6.82-7.87,11.89-2.04,5.07-3.41,11.05-4.11,17.93v39.18h-18.89Z"/>
  <path class="st0" d="M313.99,269.55c-4.67,0-9.01-.99-13.03-2.97-4.02-1.98-7.23-4.78-9.62-8.4-2.39-3.61-3.59-8.28-3.59-13.99s1.22-10.38,3.67-13.99c2.45-3.61,5.71-6.47,9.79-8.57,4.08-2.1,8.48-3.61,13.21-4.55,4.72-.93,9.53-1.86,14.43-2.8,4.9-.58,8.77-1.22,11.63-1.92,2.86-.7,4.87-1.66,6.03-2.89,1.16-1.22,1.75-2.89,1.75-4.98,0-3.03-.7-5.65-2.1-7.87-1.4-2.21-3.44-3.99-6.12-5.34-2.68-1.34-5.89-2.01-9.62-2.01-3.38,0-6.68.58-9.88,1.75-3.21,1.17-5.98,3.12-8.31,5.86-2.33,2.74-3.79,6.38-4.37,10.93l-17.14-4.37c.7-5.01,2.21-9.36,4.55-13.03,2.33-3.67,5.25-6.73,8.75-9.18,3.5-2.45,7.55-4.26,12.16-5.42,4.61-1.16,9.3-1.75,14.08-1.75,6.88,0,12.68.93,17.4,2.8,4.72,1.87,8.48,4.46,11.28,7.78,2.8,3.32,4.81,7.26,6.03,11.81,1.22,4.55,1.84,9.62,1.84,15.22v17.84c0,4.08.03,8.25.09,12.51.06,4.26.2,8.54.44,12.86.23,4.32.52,8.4.87,12.24h-17.32c-.12-3.96-.24-8.02-.35-12.16-.12-4.14-.24-8.42-.35-12.86h-1.92c-1.4,5.02-3.62,9.59-6.65,13.73-3.03,4.14-6.85,7.46-11.46,9.97-4.61,2.51-10,3.76-16.18,3.76ZM320.99,254.86c2.56,0,5.25-.55,8.05-1.66,2.8-1.11,5.45-2.65,7.96-4.64,2.51-1.98,4.72-4.58,6.65-7.78,1.92-3.21,3.47-6.85,4.64-10.93l-.17-11.89,4.55-.18c-1.75,1.75-4.08,3.12-7,4.11-2.92.99-6.07,1.75-9.45,2.27-3.38.53-6.82,1.08-10.32,1.66-3.5.59-6.71,1.49-9.62,2.71-2.92,1.22-5.22,2.83-6.91,4.81-1.69,1.98-2.54,4.72-2.54,8.22,0,4.32,1.25,7.61,3.76,9.88,2.51,2.27,5.97,3.41,10.41,3.41Z"/>
  <path class="st0" d="M388.33,267.11v-51.95l-.17-39.01h16.79l-1.57,32.88h2.62c1.4-8.51,3.53-15.3,6.38-20.38,2.86-5.07,6.47-8.77,10.84-11.11,4.37-2.33,9.41-3.5,15.13-3.5,5.13,0,9.5.88,13.12,2.62,3.61,1.75,6.56,4.14,8.83,7.17,2.27,3.03,4.02,6.44,5.25,10.23,1.22,3.79,2.1,7.78,2.62,11.98.52,4.2.79,8.28.79,12.24v48.8h-19.07v-46.35c0-2.68-.12-5.71-.35-9.1-.24-3.38-.93-6.67-2.1-9.88-1.17-3.21-2.95-5.89-5.33-8.05-2.39-2.16-5.74-3.24-10.06-3.24-5.36,0-9.83,1.72-13.38,5.16-3.56,3.44-6.33,8.19-8.31,14.26-1.98,6.06-3.09,13.06-3.32,20.99v36.21h-18.72Z"/>
  <path class="st0" d="M108.29,403.03v-16.79h122.96v16.79h-122.96Z"/>
  <path class="st0" d="M320.64,443.61c-7.35,0-13.76-1.9-19.24-5.69-5.48-3.79-9.74-9.27-12.77-16.44-3.03-7.17-4.55-15.77-4.55-25.8s1.4-18.07,4.2-25.19c2.8-7.11,6.88-12.56,12.24-16.35,5.36-3.79,11.78-5.69,19.24-5.69,6.3,0,11.51,1.2,15.65,3.59,4.14,2.39,7.49,5.92,10.06,10.58,2.56,4.67,4.49,10.14,5.77,16.44h2.62c-.59-4.08-1.17-8.07-1.75-11.98-.59-3.91-1.02-7.61-1.31-11.11-.29-3.5-.44-6.59-.44-9.27v-27.64h19.24l-.17,79.41.35,42.68h-16.97l1.05-26.94h-2.8c-1.28,6.18-3.27,11.46-5.95,15.83-2.68,4.37-6.03,7.73-10.06,10.06-4.02,2.33-8.83,3.5-14.43,3.5ZM325.89,427.52c3.96,0,7.52-.96,10.67-2.89,3.15-1.92,5.71-4.4,7.7-7.43,1.98-3.03,3.53-6.32,4.64-9.88,1.11-3.56,1.66-6.91,1.66-10.06v-2.1c0-2.45-.32-5.04-.96-7.78-.64-2.74-1.57-5.48-2.8-8.22-1.22-2.74-2.86-5.25-4.9-7.52-2.04-2.27-4.4-4.11-7.08-5.51-2.68-1.4-5.66-2.1-8.92-2.1-4.67,0-8.69,1.4-12.07,4.2-3.38,2.8-5.95,6.56-7.7,11.28-1.75,4.72-2.62,10.29-2.62,16.7s.87,11.78,2.62,16.44c1.75,4.67,4.29,8.31,7.61,10.93s7.37,3.94,12.16,3.94Z"/>
  <path class="st0" d="M413.34,443.61c-4.67,0-9.01-.99-13.03-2.97-4.02-1.98-7.23-4.78-9.62-8.4-2.39-3.61-3.59-8.28-3.59-13.99s1.22-10.38,3.67-13.99c2.45-3.61,5.71-6.47,9.79-8.57,4.08-2.1,8.48-3.61,13.21-4.55,4.72-.93,9.53-1.86,14.43-2.8,4.9-.58,8.77-1.22,11.63-1.92,2.86-.7,4.87-1.66,6.03-2.89,1.16-1.22,1.75-2.89,1.75-4.98,0-3.03-.7-5.65-2.1-7.87-1.4-2.21-3.44-3.99-6.12-5.34-2.68-1.34-5.89-2.01-9.62-2.01-3.38,0-6.68.58-9.88,1.75-3.21,1.17-5.98,3.12-8.31,5.86-2.33,2.74-3.79,6.38-4.37,10.93l-17.14-4.37c.7-5.01,2.21-9.36,4.55-13.03,2.33-3.67,5.25-6.73,8.75-9.18,3.5-2.45,7.55-4.26,12.16-5.42,4.61-1.16,9.3-1.75,14.08-1.75,6.88,0,12.68.93,17.4,2.8,4.72,1.87,8.48,4.46,11.28,7.78,2.8,3.32,4.81,7.26,6.03,11.81,1.22,4.55,1.84,9.62,1.84,15.22v17.84c0,4.08.03,8.25.09,12.51.06,4.26.2,8.54.44,12.86.23,4.32.52,8.4.87,12.24h-17.32c-.12-3.96-.24-8.02-.35-12.16-.12-4.14-.24-8.42-.35-12.86h-1.92c-1.4,5.02-3.62,9.59-6.65,13.73-3.03,4.14-6.85,7.46-11.46,9.97-4.61,2.51-10,3.76-16.18,3.76ZM420.34,428.92c2.56,0,5.25-.55,8.05-1.66,2.8-1.11,5.45-2.65,7.96-4.64,2.51-1.98,4.72-4.58,6.65-7.78,1.92-3.21,3.47-6.85,4.64-10.93l-.17-11.89,4.55-.18c-1.75,1.75-4.08,3.12-7,4.11-2.92.99-6.07,1.75-9.45,2.27-3.38.53-6.82,1.08-10.32,1.66-3.5.59-6.71,1.49-9.62,2.71-2.92,1.22-5.22,2.83-6.91,4.81-1.69,1.98-2.54,4.72-2.54,8.22,0,4.32,1.25,7.61,3.76,9.88,2.51,2.27,5.97,3.41,10.41,3.41Z"/>
  <path class="st0" d="M517.94,443.09c-4.55,0-8.51-.64-11.89-1.92-3.38-1.28-6.15-3.24-8.31-5.86-2.16-2.62-3.79-5.74-4.9-9.36-1.11-3.61-1.66-7.7-1.66-12.24v-47.93h-12.24v-14.87h7c3.73-.11,6.44-.96,8.13-2.54,1.69-1.57,2.65-3.99,2.89-7.26l1.4-11.02h11.54v20.11h24.49v15.92h-24.49v46.7c0,4.78,1.14,8.11,3.41,9.97,2.27,1.87,5.22,2.8,8.83,2.8,2.1,0,4.23-.29,6.38-.87,2.16-.58,4.23-1.57,6.21-2.97v18.19c-3.15,1.17-6.12,1.98-8.92,2.45-2.8.46-5.42.7-7.87.7Z"/>
  <path class="st0" d="M592.97,382.92v-48.23h-9.48v-11.22c2.99,0,5.52-.49,7.6-1.48,2.07-.98,3.42-3.11,4.03-6.37h10.81v67.3h-12.95Z"/>
  <path class="st0" d="M645.08,384.35c-4.28,0-8.14-.8-11.57-2.4-3.43-1.6-6.36-3.91-8.77-6.93-2.41-3.02-4.22-6.68-5.41-10.96-1.19-4.28-1.78-9.08-1.78-14.38,0-7.68,1.17-14.14,3.52-19.38,2.35-5.23,5.62-9.21,9.84-11.93,4.21-2.72,9.11-4.08,14.68-4.08s10.61,1.39,14.68,4.18c4.08,2.79,7.22,6.8,9.43,12.03,2.21,5.24,3.31,11.52,3.31,18.87,0,5.44-.61,10.3-1.84,14.58-1.22,4.28-3.08,7.95-5.56,11.01-2.48,3.06-5.46,5.39-8.92,6.99-3.47,1.6-7.34,2.4-11.63,2.4ZM645.39,373.95c2.18,0,4.11-.51,5.81-1.53,1.7-1.02,3.23-2.48,4.59-4.38,1.36-1.9,2.41-4.37,3.16-7.39.75-3.02,1.12-6.64,1.12-10.86,0-5.3-.6-9.82-1.79-13.56-1.19-3.74-2.87-6.61-5.05-8.62-2.18-2-4.86-3.01-8.06-3.01-2.58,0-4.98.88-7.19,2.65-2.21,1.77-4.01,4.44-5.4,8-1.39,3.57-2.09,8.28-2.09,14.12,0,4.15.37,7.73,1.12,10.76.75,3.03,1.79,5.56,3.11,7.6,1.33,2.04,2.89,3.59,4.69,4.64,1.8,1.05,3.79,1.58,5.97,1.58Z"/>
  <path class="st0" d="M705.86,384.35c-4.35,0-8.14-.46-11.37-1.38-3.23-.92-5.93-2.21-8.11-3.87-2.18-1.67-3.81-3.77-4.89-6.32-1.09-2.55-1.63-5.35-1.63-8.41l11.73-3.06c.14,2.24.58,4.16,1.33,5.76.75,1.6,1.8,2.92,3.16,3.98,1.36,1.05,2.91,1.84,4.64,2.35,1.73.51,3.59.76,5.56.76,2.72,0,5.15-.41,7.29-1.22,2.14-.82,3.84-2.04,5.1-3.67,1.26-1.63,1.89-3.7,1.89-6.22,0-3.33-1-5.98-3.01-7.95-2.01-1.97-5.05-3.3-9.13-3.98-4.08-.68-9.04-.82-14.89-.41v-7.85l22.33-16.01v-.61h-32.94v-10.71h46.6v12.03l-21.82,16.01v.82c6.32-.2,11.37.53,15.14,2.19,3.77,1.67,6.51,3.98,8.21,6.93,1.7,2.96,2.55,6.31,2.55,10.04,0,4.22-1.04,7.87-3.11,10.96-2.07,3.09-5.13,5.51-9.18,7.24-4.05,1.73-9.2,2.6-15.45,2.6Z"/>
</svg>