<?xml version="1.0" encoding="UTF-8"?>
<svg id="Layer_1" xmlns="http://www.w3.org/2000/svg" version="1.1" viewBox="0 0 841.89 595.28">
  <!-- Generator: Adobe Illustrator 30.1.0, SVG Export Plug-In . SVG Version: 2.1.1 Build 136)  -->
  <defs>
    <style>
      .st0 {
        fill: #fff;
      }
    </style>
  </defs>
  <g>
    <path class="st0" d="M216.34,324.57c0,15.98-13.66,24.75-35.32,24.75h-67.16v-90.23h62c21.66,0,35.32,8.51,35.32,23.07,0,10.31-6.7,19.08-20.11,19.98,14.18.77,25.26,8.12,25.26,22.43ZM134.23,295.7h38.28c11.21,0,18.18-1.8,18.18-10.18s-6.96-10.18-18.18-10.18h-38.28v20.37ZM195.2,322.25c0-9.15-6.83-10.83-18.43-10.83h-42.54v21.66h42.54c11.6,0,18.43-1.8,18.43-10.83Z"/>
    <path class="st0" d="M310.43,309.62v26.17c0,5.16.9,9.41,3.22,13.53h-20.5c-1.55-2.58-2.58-5.8-2.58-8.38v-.13c-5.41,5.93-15.86,11.09-29.52,11.09-15.21,0-34.93-6.06-34.93-24.49s19.72-24.36,34.93-24.36c13.66,0,24.1,5.03,29.52,11.09v-4.64c0-13.15-8.64-18.82-25.65-18.82-9.67,0-17.4,1.29-25.91,5.93l-5.93-13.15c9.28-4.77,23.2-7.86,35.83-7.86,25.91,0,41.51,11.99,41.51,34.03ZM290.97,326.5c-5.28-8.38-15.86-10.44-25.01-10.44-8.25,0-20.37,1.93-20.37,11.34s12.12,11.47,20.37,11.47c9.15,0,19.72-2.19,25.01-10.57v-1.8Z"/>
    <path class="st0" d="M407.36,327.92c0,13.66-13.02,24.23-38.93,24.23-18.43,0-34.67-5.93-44.21-14.05l9.67-11.86c7.35,6.32,19.72,10.7,35.06,10.7,11.34,0,19.98-2.06,19.98-7.61,0-5.16-7.86-7.09-22.94-8.12-19.98-1.42-39.06-6.32-39.06-22.17,0-13.79,12.89-23.59,39.7-23.59,14.95,0,28.75,4.77,37.51,10.57l-9.15,12.63c-7.22-4.77-16.63-7.99-29.39-7.99-8.25,0-19.98,1.29-19.98,7.09,0,5.41,9.67,6.32,23.07,7.09,22.3,1.29,38.67,7.86,38.67,23.07Z"/>
    <path class="st0" d="M464.59,336.95c12.25,0,19.98-3.22,27.33-9.15l10.7,11.73c-9.93,8.77-22.69,12.63-39.06,12.63-29.26,0-46.15-14.7-46.15-38.28s16.76-38.41,44.73-38.41c25.78,0,43.05,13.15,43.05,38.28,0,2.32-.13,3.48-.52,4.64h-68.06c1.8,12.76,11.47,18.56,27.97,18.56ZM437.52,305.62l48.6-.26c-3.09-10.18-11.21-14.7-23.85-14.7s-21.91,4.9-24.75,14.95Z"/>
    <path class="st0" d="M562.94,336.95c12.25,0,19.98-3.22,27.33-9.15l10.7,11.73c-9.93,8.77-22.69,12.63-39.06,12.63-29.26,0-46.15-14.7-46.15-38.28s16.76-38.41,44.73-38.41c25.78,0,43.05,13.15,43.05,38.28,0,2.32-.13,3.48-.52,4.64h-68.06c1.8,12.76,11.47,18.56,27.97,18.56ZM535.87,305.62l48.6-.26c-3.09-10.18-11.21-14.7-23.85-14.7s-21.91,4.9-24.75,14.95Z"/>
    <path class="st0" d="M672.76,345.2c-6.06,4.12-14.95,6.83-23.33,6.83-14.95,0-26.55-8.12-26.55-24.1v-34.67h-13.15v-14.95h13.15v-16.5h19.98v16.5h29.26v14.95h-29.26v31.19c0,7.22,5.41,10.96,12.5,10.96,4.9,0,9.28-1.8,13.28-3.74l4.12,13.53Z"/>
  </g>
  <path class="st0" d="M689.75,258.9c0-9.47,7.53-15.78,19.16-15.78s19.12,6.3,19.12,15.78-7.53,15.78-19.12,15.78-19.16-6.3-19.16-15.78ZM725.83,258.9c0-8.8-6.98-13.79-16.92-13.79s-17,4.99-17,13.79,7.06,13.75,17,13.75,16.92-4.95,16.92-13.75ZM708.79,269.81c-7.57,0-12.86-4.02-12.86-10.95s5.29-10.95,12.86-10.95c5.96,0,9.9,2.54,11.67,5.5l-5.2,2.45c-1.61-2.16-3.47-2.96-5.96-2.96-4.14,0-6.72,2.24-6.72,5.96s2.58,5.96,6.72,5.96c2.54,0,4.4-.85,6.01-3.05l5.46,2.5c-2.03,3-5.96,5.54-11.97,5.54Z"/>
</svg>