<svg width="3126" height="555" viewBox="0 0 3126 555" fill="none" xmlns="http://www.w3.org/2000/svg">
<path d="M521.499 414.6C521.499 495.919 451.986 540.548 341.763 540.548H0V81.3867H315.505C425.728 81.3867 495.241 124.692 495.241 198.785C495.241 251.25 461.146 295.879 392.905 300.459C465.064 304.377 521.448 341.78 521.448 414.6H521.499ZM103.659 267.687H298.457C355.503 267.687 390.971 258.527 390.971 215.883C390.971 173.239 355.553 164.079 298.457 164.079H103.659V267.738V267.687ZM413.922 402.794C413.922 356.232 379.165 347.683 320.136 347.683H103.659V457.906H320.136C379.165 457.906 413.922 448.746 413.922 402.794Z" fill="white"/>
<path d="M1000.3 338.522V471.695C1000.3 497.954 1004.88 519.581 1016.69 540.547H912.367C904.48 527.418 899.238 511.032 899.238 497.903V497.241C871.708 527.418 818.53 553.676 749.017 553.676C671.617 553.676 571.266 522.838 571.266 429.051C571.266 335.265 671.617 305.088 749.017 305.088C818.53 305.088 871.657 330.685 899.238 361.523V337.911C899.238 270.994 855.271 242.14 768.711 242.14C719.503 242.14 680.166 248.705 636.861 272.317L606.684 205.399C653.908 181.126 724.744 165.401 789.015 165.401C920.866 165.401 1000.25 226.416 1000.25 338.573L1000.3 338.522ZM901.274 424.421C874.405 381.777 820.566 371.294 774.003 371.294C732.021 371.294 670.345 381.115 670.345 429C670.345 476.886 732.021 487.369 774.003 487.369C820.566 487.369 874.354 476.224 901.274 433.58V424.421Z" fill="white"/>
<path d="M1493.56 431.649C1493.56 501.162 1427.3 554.95 1295.45 554.95C1201.67 554.95 1119.02 524.774 1070.48 483.453L1119.69 423.1C1157.09 455.261 1220.04 477.55 1298.1 477.55C1355.8 477.55 1399.77 467.067 1399.77 438.824C1399.77 412.566 1359.77 402.745 1283.04 397.503C1181.36 390.277 1084.27 365.342 1084.27 284.685C1084.27 214.511 1149.86 164.641 1286.29 164.641C1362.37 164.641 1432.59 188.914 1477.17 218.429L1430.61 282.7C1393.87 258.427 1345.98 242.041 1281.05 242.041C1239.07 242.041 1179.38 248.606 1179.38 278.12C1179.38 305.651 1228.59 310.282 1296.77 314.2C1410.25 320.765 1493.56 354.198 1493.56 431.598V431.649Z" fill="white"/>
<path d="M1784.79 477.599C1847.13 477.599 1886.46 461.213 1923.87 431.036L1978.32 490.728C1927.78 535.357 1862.85 554.999 1779.55 554.999C1630.65 554.999 1544.7 480.194 1544.7 360.201C1544.7 240.207 1629.99 164.74 1772.32 164.74C1903.51 164.74 1991.39 231.658 1991.39 359.539C1991.39 371.345 1990.73 377.248 1988.75 383.151H1642.4C1651.56 448.084 1700.77 477.599 1784.74 477.599H1784.79ZM1647.04 318.167L1894.35 316.844C1878.63 265.04 1837.31 242.039 1772.98 242.039C1708.66 242.039 1661.49 266.974 1647.04 318.116V318.167Z" fill="white"/>
<path d="M2285.27 477.599C2347.61 477.599 2386.95 461.213 2424.35 431.036L2478.8 490.728C2428.27 535.357 2363.33 554.999 2280.03 554.999C2131.13 554.999 2045.18 480.194 2045.18 360.201C2045.18 240.207 2130.47 164.74 2272.8 164.74C2403.99 164.74 2491.88 231.658 2491.88 359.539C2491.88 371.345 2491.21 377.248 2489.23 383.151H2142.89C2152.05 448.084 2201.26 477.599 2285.22 477.599H2285.27ZM2147.52 318.167L2394.83 316.844C2379.11 265.04 2337.79 242.039 2273.47 242.039C2209.14 242.039 2161.97 266.974 2147.52 318.116V318.167Z" fill="white"/>
<path d="M2844.12 519.581C2813.29 540.546 2768.05 554.337 2725.4 554.337C2649.32 554.337 2590.29 513.016 2590.29 431.697V255.269H2523.38V179.192H2590.29V95.2266H2691.97V179.192H2840.87V255.269H2691.97V413.988C2691.97 450.729 2719.5 469.761 2755.58 469.761C2780.51 469.761 2802.8 460.601 2823.16 450.729L2844.12 519.581Z" fill="white"/>
<path d="M2930.35 80.5C2930.35 32.1898 2968.71 0 3027.95 0C3087.2 0 3125.35 32.1388 3125.35 80.5C3125.35 128.861 3086.99 161 3027.95 161C2968.91 161 2930.35 128.861 2930.35 80.5ZM3114.14 80.5C3114.14 35.6077 3078.59 10.1518 3027.95 10.1518C2977.32 10.1518 2941.35 35.6077 2941.35 80.5C2941.35 125.392 2977.32 150.644 3027.95 150.644C3078.59 150.644 3114.14 125.392 3114.14 80.5ZM3027.34 136.156C2988.78 136.156 2961.83 115.649 2961.83 80.2959C2961.83 44.9432 2988.78 24.4357 3027.34 24.4357C3057.7 24.4357 3077.77 37.3933 3086.79 52.4934L3060.3 64.9918C3052.1 53.9728 3042.62 49.8916 3029.94 49.8916C3008.85 49.8916 2995.71 61.3187 2995.71 80.2959C2995.71 99.2731 3008.85 110.7 3029.94 110.7C3042.88 110.7 3052.35 106.364 3060.55 95.141L3088.37 107.894C3078.03 123.199 3058.01 136.156 3027.39 136.156H3027.34Z" fill="white"/>
</svg>
